<svg width="66" height="66" viewBox="0 0 66 66" fill="none" xmlns="http://www.w3.org/2000/svg">
<g clip-path="url(#clip0)">
<path d="M9.86101 11.2219H1.69436C0.94262 11.2219 0.333252 10.6125 0.333252 9.86078V1.69412C0.333252 0.942377 0.94262 0.333008 1.69436 0.333008H9.86101C10.6127 0.333008 11.2221 0.942377 11.2221 1.69412V9.86078C11.2221 10.6125 10.6127 11.2219 9.86101 11.2219ZM3.05547 8.49967H8.4999V3.05523H3.05547V8.49967Z" fill="white"/>
<path d="M64.3056 11.2219H56.1389C55.3873 11.2219 54.7778 10.6125 54.7778 9.86078V1.69412C54.7778 0.942377 55.3873 0.333008 56.1389 0.333008H64.3056C65.0572 0.333008 65.6667 0.942377 65.6667 1.69412V9.86078C65.6667 10.6125 65.0572 11.2219 64.3056 11.2219ZM57.5 8.49967H62.9445V3.05523H57.5V8.49967Z" fill="white"/>
<path d="M6.08343 30.2781C6.01606 30.2781 5.94787 30.273 5.87927 30.2627C5.13597 30.1509 4.62392 29.4576 4.7358 28.7143C5.64774 22.6518 8.43216 17.145 12.788 12.7892C17.1438 8.43333 22.6507 5.64891 28.7131 4.73696C29.4565 4.62535 30.1497 5.13699 30.2615 5.88043C30.3732 6.62387 29.8614 7.31708 29.118 7.42883C18.0169 9.09878 9.09747 18.0183 7.42753 29.1194C7.32626 29.7941 6.74575 30.2781 6.08343 30.2781Z" fill="white"/>
<path d="M59.9148 30.2782C59.2526 30.2782 58.6721 29.7941 58.5706 29.1194C56.9005 18.0183 47.9812 9.09881 36.8802 7.42886C36.1368 7.31711 35.6249 6.62376 35.7368 5.88046C35.8487 5.13716 36.5428 4.62524 37.2852 4.73699C43.3477 5.64894 48.8546 8.43336 53.2104 12.7892C57.5662 17.145 60.3506 22.6518 61.2626 28.7143C61.3743 29.4576 60.8625 30.151 60.1191 30.2627C60.0504 30.2732 59.9822 30.2782 59.9148 30.2782Z" fill="white"/>
<path d="M9.86101 38.4436H1.69436C0.94262 38.4436 0.333252 37.8341 0.333252 37.0825V28.9158C0.333252 28.1641 0.94262 27.5547 1.69436 27.5547H9.86101C10.6127 27.5547 11.2221 28.1641 11.2221 28.9158V37.0825C11.2221 37.8341 10.6127 38.4436 9.86101 38.4436ZM3.05547 35.7214H8.4999V30.2769H3.05547V35.7214Z" fill="white"/>
<path d="M64.3056 38.4436H56.1389C55.3873 38.4436 54.7778 37.8341 54.7778 37.0825V28.9158C54.7778 28.1641 55.3873 27.5547 56.1389 27.5547H64.3056C65.0572 27.5547 65.6667 28.1641 65.6667 28.9158V37.0825C65.6667 37.8341 65.0572 38.4436 64.3056 38.4436ZM57.5 35.7214H62.9445V30.2769H57.5V35.7214Z" fill="white"/>
<path d="M37.0827 11.2219H28.916C28.1643 11.2219 27.5549 10.6125 27.5549 9.86078V1.69412C27.5549 0.942377 28.1643 0.333008 28.916 0.333008H37.0827C37.8343 0.333008 38.4438 0.942377 38.4438 1.69412V9.86078C38.4438 10.6125 37.8343 11.2219 37.0827 11.2219ZM30.2771 8.49967H35.7216V3.05523H30.2771V8.49967Z" fill="white"/>
<path d="M28.9166 7.13824H9.86111C9.10937 7.13824 8.5 6.52887 8.5 5.77713C8.5 5.02538 9.10937 4.41602 9.86111 4.41602H28.9166C29.6684 4.41602 30.2777 5.02538 30.2777 5.77713C30.2777 6.52887 29.6684 7.13824 28.9166 7.13824Z" fill="white"/>
<path d="M56.1381 7.13824H37.0825C36.3309 7.13824 35.7214 6.52887 35.7214 5.77713C35.7214 5.02538 36.3309 4.41602 37.0825 4.41602H56.1381C56.8897 4.41602 57.4992 5.02538 57.4992 5.77713C57.4992 6.52887 56.8897 7.13824 56.1381 7.13824Z" fill="white"/>
<path d="M32.9993 34.3608C32.2476 34.3608 31.6382 33.7513 31.6382 32.9997V13.9441C31.6382 13.1924 32.2476 12.583 32.9993 12.583C33.7509 12.583 34.3604 13.1924 34.3604 13.9441V32.9997C34.3604 33.7513 33.7509 34.3608 32.9993 34.3608Z" fill="white"/>
<path d="M32.9994 42.5266C29.9973 42.5266 27.5549 40.0842 27.5549 37.0821C27.5549 34.0801 29.9973 31.6377 32.9994 31.6377C36.0014 31.6377 38.4438 34.0801 38.4438 37.0821C38.4438 40.0842 36.0014 42.5266 32.9994 42.5266ZM32.9994 34.3599C31.4983 34.3599 30.2771 35.5811 30.2771 37.0821C30.2771 38.5832 31.4983 39.8044 32.9994 39.8044C34.5004 39.8044 35.7216 38.5832 35.7216 37.0821C35.7216 35.5811 34.5004 34.3599 32.9994 34.3599Z" fill="white"/>
<path d="M41.3934 58.8609H24.6064C24.2063 58.8609 23.8264 58.6849 23.5678 58.3796C23.3092 58.0743 23.198 57.6707 23.2639 57.2762L24.7493 48.3639L18.3434 40.6767C18.0176 40.2858 17.9371 39.746 18.1346 39.2771L29.0234 13.416C29.236 12.9113 29.7302 12.583 30.2778 12.583H35.7223C36.2698 12.583 36.7642 12.9112 36.9768 13.416L47.8656 39.2771C48.063 39.746 47.9824 40.2858 47.6569 40.6767L41.2509 48.3639L42.7363 57.276C42.8021 57.6707 42.6909 58.0743 42.4322 58.3796C42.1734 58.6849 41.7935 58.8609 41.3934 58.8609ZM26.2131 56.1387H39.7867L38.4627 48.1959C38.3975 47.805 38.506 47.4051 38.7597 47.1006L45.0351 39.5703L34.8183 15.3054H31.1815L20.9647 39.5702L27.24 47.1005C27.4937 47.405 27.6022 47.8049 27.537 48.1956L26.2131 56.1387Z" fill="white"/>
<path d="M42.5279 65.6653H23.4724C23.0723 65.6653 22.6925 65.4893 22.4338 65.184C22.1752 64.8788 22.064 64.4752 22.1299 64.0806L23.2641 57.275C23.3736 56.6187 23.9414 56.1377 24.6067 56.1377H41.3937C42.0591 56.1377 42.627 56.6187 42.7363 57.275L43.8705 64.0806C43.9361 64.4752 43.825 64.8788 43.5664 65.184C43.3078 65.4893 42.9279 65.6653 42.5279 65.6653ZM25.0792 62.9431H40.9212L40.2407 58.8598H25.7597L25.0792 62.9431Z" fill="white"/>
</g>
<defs>
<clipPath id="clip0">
<rect width="65.3333" height="65.3324" fill="white" transform="translate(0.333252 0.333008)"/>
</clipPath>
</defs>
</svg>
