<svg width="66" height="66" viewBox="0 0 66 66" fill="none" xmlns="http://www.w3.org/2000/svg">
<g clip-path="url(#clip0)">
<path d="M59.4962 0.333008H6.50362C3.30955 0.333008 0.696215 3.3227 0.405844 7.10379C0.405844 7.36759 0.333252 7.54345 0.333252 7.80725V47.113C0.333252 51.2458 3.09177 54.5872 6.50362 54.5872H59.4962C62.6903 54.5872 65.3036 51.5975 65.594 47.8164C65.594 47.5526 65.6666 47.3768 65.6666 47.113V7.80725C65.6666 3.67443 62.9081 0.333008 59.4962 0.333008ZM56.8829 50.8061H8.60881C5.7051 50.8061 3.30955 47.9044 3.30955 44.3871V10.6211C3.30955 7.10379 6.14066 4.20203 9.04436 4.20203H57.3184C60.2221 4.20203 62.6177 7.10379 62.6177 10.6211V44.3871C62.6903 47.9044 59.8592 50.8061 56.8829 50.8061Z" fill="white"/>
<path d="M46.575 58.2793H19.4253C18.6268 58.2793 17.9009 59.0707 17.9009 60.1259V63.819C17.9009 64.7863 18.5542 65.6656 19.4253 65.6656H46.6476C47.4461 65.6656 48.172 64.8742 48.172 63.819V60.1259C48.0994 59.1586 47.4461 58.2793 46.575 58.2793Z" fill="white"/>
<path d="M25.0153 39.7279C24.7249 40.0796 24.3619 40.0796 24.0716 39.7279L14.6345 28.2967C14.3442 27.945 14.3442 27.5053 14.6345 27.1536L24.0716 15.7224C24.3619 15.3707 24.7249 15.3707 25.0153 15.7224L26.0316 16.9535C26.3219 17.3052 26.3219 17.7449 26.0316 18.0966L18.0464 27.7691L26.0316 37.4417C26.3219 37.7934 26.3219 38.2331 26.0316 38.5848L25.0153 39.7279ZM30.4597 43.9486C30.3871 44.3883 30.0242 44.6521 29.6612 44.4762L28.4271 44.0366C28.0642 43.9486 27.8464 43.509 27.9916 43.0693L35.5412 11.4137C35.6138 10.9741 35.9768 10.7103 36.3397 10.8861L37.5738 11.3258C37.9368 11.4137 38.0819 11.8534 38.0093 12.2931L30.4597 43.9486ZM41.9293 39.7279C41.639 40.0796 41.276 40.0796 40.9856 39.7279L39.9693 38.4969C39.679 38.1451 39.679 37.7055 39.9693 37.3537L47.9545 27.6812L39.9693 18.0087C39.679 17.6569 39.679 17.2173 39.9693 16.8655L40.9856 15.6345C41.276 15.2828 41.639 15.2828 41.9293 15.6345L51.3664 27.0657C51.6568 27.4174 51.6568 27.8571 51.3664 28.2088L41.9293 39.7279Z" fill="white"/>
</g>
<defs>
<clipPath id="clip0">
<rect width="65.3333" height="65.3326" fill="white" transform="translate(0.333252 0.333008)"/>
</clipPath>
</defs>
</svg>
