<svg width="72" height="72" viewBox="0 0 72 72" fill="none" xmlns="http://www.w3.org/2000/svg">
<path d="M53.9488 38.1601C51.6096 35.9679 48.553 34.8106 45.354 34.9202C42.1503 35.0229 39.1788 36.3681 36.9866 38.7072C34.7945 41.0452 33.6441 44.0972 33.7468 47.3009C33.8506 50.5046 35.1946 53.4761 37.5338 55.6682C39.7761 57.7706 42.673 58.9139 45.732 58.9139C45.8638 58.9139 45.9968 58.9116 46.1286 58.9081C49.3323 58.8042 52.3038 57.4602 54.496 55.1211C56.6881 52.7831 57.8385 49.7311 57.7346 46.5274C57.6308 43.3237 56.2868 40.3522 53.9488 38.1601ZM52.7926 53.5262C51.0263 55.4092 48.6335 56.4931 46.0528 56.5759C43.4791 56.6657 41.014 55.7312 39.1298 53.9661C37.2456 52.2009 36.163 49.8069 36.079 47.2262C35.995 44.6456 36.9225 42.1874 38.6888 40.3021C40.4551 38.4191 42.848 37.3352 45.4286 37.2524C45.536 37.2489 45.6421 37.2477 45.7483 37.2477C48.2111 37.2477 50.5456 38.1694 52.3516 39.8622C54.2358 41.6286 55.3185 44.0214 55.4013 46.6021C55.4865 49.1827 54.559 51.6421 52.7926 53.5262Z" fill="white"/>
<path d="M61.8333 9.33301H56V11.6663H61.8333V9.33301Z" fill="white"/>
<path d="M70.0001 9.33301H64.1667V11.6663H70.0001V9.33301Z" fill="white"/>
<path d="M70 14H56V16.3333H70V14Z" fill="white"/>
<path d="M12.166 15.7663C9.81633 19.3608 8.41283 23.5538 8.197 27.9428L8.13633 29.1667H19.789L19.8777 28.0957C20.1857 24.3728 22.1025 20.9743 25.1405 18.7717L25.9583 18.1778L20.517 7.84933L19.4472 8.5365C17.234 9.9575 15.2985 11.7145 13.6768 13.7083L11.6667 10.1908V3.5H9.33333V9.33333H7V0H4.66667V9.33333H2.33333V5.83333H0V9.33333V10.5V11.6667H9.82333L12.166 15.7663ZM19.6548 11.2187L22.967 17.5058C20.1215 19.8742 18.2432 23.1875 17.6785 26.8333H10.6213C10.9503 23.7172 11.9397 20.7352 13.482 18.0705L13.6628 18.3867C13.1518 18.9117 12.8333 19.6268 12.8333 20.4167C12.8333 22.0243 14.1423 23.3333 15.75 23.3333C17.3577 23.3333 18.6667 22.0243 18.6667 20.4167C18.6667 18.8428 17.4102 17.5642 15.8492 17.5105L14.9298 15.9017C16.2528 14.1307 17.8337 12.5417 19.6548 11.2187ZM16.3333 20.4167C16.3333 20.7387 16.072 21 15.75 21C15.428 21 15.1667 20.7387 15.1667 20.4167C15.1667 20.0947 15.428 19.8333 15.75 19.8333C16.072 19.8333 16.3333 20.0947 16.3333 20.4167Z" fill="white"/>
<path d="M24.5 64.167H0V66.5003H24.5V64.167Z" fill="white"/>
<path d="M9.33333 59.5H0V61.8333H9.33333V59.5Z" fill="white"/>
<path d="M24.5001 59.5H11.6667V61.8333H24.5001V59.5Z" fill="white"/>
<path d="M70.2112 63.4588L60.354 54.2188C61.5568 51.8202 62.1542 49.1473 62.0655 46.3893C61.9243 42.0295 60.095 37.9847 56.9123 35.0003C56.7898 34.8848 56.6568 34.7892 56.532 34.6783C56.9462 32.877 57.1667 31.029 57.1667 29.167C57.1667 21.9675 54.026 15.503 49.0653 11.0172L51.9342 7.00033H70V4.66699H50.7325L47.257 9.53199C43.176 6.49049 38.136 4.66699 32.6667 4.66699C29.5727 4.66699 26.5545 5.23633 23.6985 6.36099L22.4712 6.84399L28.0642 17.1457L28.9718 16.8738C30.1653 16.5145 31.4078 16.3337 32.6667 16.3337C39.7425 16.3337 45.5 22.0912 45.5 29.167C45.5 29.6477 45.4627 30.126 45.4102 30.6008C41.1623 30.6872 36.953 32.408 33.8252 35.7435C32.1813 37.497 30.9855 39.5503 30.2505 41.7658C25.3902 40.8407 21.4748 37.1867 20.237 32.3753L20.0118 31.5003H8.23901L8.44085 32.8408C9.16418 37.6522 11.298 41.9712 14.371 45.4222L9.33335 49.6198V57.167H11.6667V50.7142L16.0043 47.0987C19.9745 50.7853 25.151 53.1537 30.8233 53.5795C31.6972 55.5372 32.9583 57.3198 34.5695 58.8307C37.716 61.78 41.7293 63.2407 45.7357 63.2407C48.5882 63.2407 51.429 62.4858 53.9572 61.0147L63.8272 70.2675C64.2588 70.6723 65.037 71.083 66.0147 71.083C67.0378 71.0818 68.2803 70.6327 69.5707 69.256C72.0977 66.5645 71.0943 64.2872 70.2112 63.4588ZM32.6667 14.0003C31.5023 14.0003 30.3485 14.1322 29.225 14.3923L25.7985 8.08299C28.0082 7.36433 30.3123 7.00033 32.6667 7.00033C37.6308 7.00033 42.2042 8.66049 45.9037 11.429L45.6575 11.7743C45.4183 11.7113 45.1733 11.667 44.9167 11.667C43.309 11.667 42 12.976 42 14.5837C42 16.1913 43.309 17.5003 44.9167 17.5003C46.5243 17.5003 47.8333 16.1913 47.8333 14.5837C47.8333 14.0925 47.6992 13.6363 47.4845 13.2292L47.7015 12.9247C52.0753 16.9777 54.8333 22.7492 54.8333 29.167C54.8333 30.4982 54.7097 31.8223 54.4752 33.1232C52.3962 31.806 50.0908 31.015 47.7353 30.728C47.789 30.21 47.8333 29.6897 47.8333 29.167C47.8333 20.8043 41.0293 14.0003 32.6667 14.0003ZM45.5 14.5837C45.5 14.9057 45.2387 15.167 44.9167 15.167C44.5947 15.167 44.3333 14.9057 44.3333 14.5837C44.3333 14.2617 44.5947 14.0003 44.9167 14.0003C45.2387 14.0003 45.5 14.2617 45.5 14.5837ZM17.815 45.5902L18.1755 45.2892C18.5092 45.4222 18.8697 45.5003 19.25 45.5003C20.8577 45.5003 22.1667 44.1925 22.1667 42.5837C22.1667 40.9748 20.8577 39.667 19.25 39.667C17.6423 39.667 16.3333 40.9748 16.3333 42.5837C16.3333 42.95 16.4092 43.2977 16.5328 43.6208L16.1618 43.93C13.6442 41.123 11.816 37.6755 10.9923 33.8337H18.2315C19.9103 39.0382 24.2888 42.9477 29.6683 44.028C29.47 45.1422 29.379 46.2843 29.4163 47.4417C29.4572 48.7168 29.6602 49.9593 29.981 51.161C25.3505 50.5987 21.1365 48.592 17.815 45.5902ZM18.6667 42.5837C18.6667 42.2628 18.928 42.0003 19.25 42.0003C19.572 42.0003 19.8333 42.2628 19.8333 42.5837C19.8333 42.9045 19.572 43.167 19.25 43.167C18.928 43.167 18.6667 42.9045 18.6667 42.5837ZM36.1667 57.1285C33.439 54.5712 31.8698 51.1038 31.7485 47.367C31.6272 43.629 32.97 40.0683 35.5273 37.3395C38.2795 34.4042 42.0082 32.9213 45.745 32.9213C49.1785 32.9213 52.6202 34.1732 55.3163 36.7013C58.044 39.2587 59.6132 42.726 59.7345 46.4628C59.8547 50.2008 58.513 53.7615 55.9557 56.4903C50.6765 62.1206 41.7993 62.4088 36.1667 57.1285ZM67.8708 67.6611C66.402 69.2291 65.555 68.6715 65.4243 68.5653L55.9253 59.659C56.5285 59.1772 57.1142 58.6638 57.6578 58.084C58.198 57.5088 58.674 56.8917 59.1197 56.2558L68.6163 65.1586C68.6233 65.168 69.4482 65.9788 67.8708 67.6611Z" fill="white"/>
</svg>
