<svg width="66" height="66" viewBox="0 0 66 66" fill="none" xmlns="http://www.w3.org/2000/svg">
<g clip-path="url(#clip0)">
<path d="M57.8201 30.184C64.0089 19.4567 65.7968 7.83557 65.6593 3.70972C65.5905 1.85308 64.0777 0.409031 62.2898 0.340266C58.1639 0.202738 46.5428 1.99061 35.8155 8.1794L30.6582 6.254C24.607 4.05354 17.7305 5.84141 13.5359 10.7924L4.80284 21.0383C3.9089 22.0698 3.56508 23.5138 3.97767 24.8891C4.18396 25.6455 4.52778 26.2644 5.07789 26.8145C5.49048 27.2271 6.0406 27.5709 6.65947 27.7772L13.9485 30.459C9.8914 36.5103 7.48465 41.8051 8.85993 43.1804L22.8879 57.2083C24.3319 58.6524 29.6268 56.1769 35.678 52.1198L38.2911 59.4088C38.4973 60.0277 38.8412 60.509 39.2538 60.9216C39.8039 61.4717 40.4227 61.8155 41.1792 62.0218C42.4857 62.3657 43.9297 62.0906 44.9612 61.1279L55.2071 52.4636C60.0893 48.269 61.946 41.3926 59.7455 35.3413L57.8201 30.184ZM62.1523 3.29713C62.4961 3.29713 62.6336 3.50342 62.6336 3.77848C62.7024 5.97894 62.0835 10.8612 60.3644 16.5686L49.3621 5.56635C55.0695 3.84725 59.9518 3.22837 62.1523 3.29713ZM7.62217 24.8891C7.20959 24.7516 6.93453 24.4078 6.86577 24.0639C6.797 23.7201 6.86577 23.2388 7.14082 22.9637L15.8051 12.7178C19.1746 8.72951 24.7445 7.28546 29.6268 9.07333L32.5836 10.1736C30.2456 11.7551 27.9764 13.543 25.9135 15.6059C22.4065 19.1129 18.6932 23.5826 15.5988 27.846L7.62217 24.8891ZM24.5382 54.5953L11.4042 41.4613C11.748 40.1548 13.4671 36.579 16.4928 31.9031L34.0964 49.5067C29.4892 52.6011 25.8447 54.2515 24.5382 54.5953ZM18.2119 29.3588C20.7562 25.7143 24.0568 21.6572 28.0452 17.6689C33.34 12.374 40.0102 8.86704 46.1989 6.66658L59.3329 19.8006C57.1325 25.9206 53.6255 32.6595 48.3306 37.9543C44.3423 41.9427 40.2852 45.2433 36.6407 47.7876L18.2119 29.3588ZM53.2817 50.1944L43.0358 58.8587C42.7607 59.1337 42.3481 59.2025 41.9356 59.1337C41.523 58.9962 41.2479 58.7211 41.1104 58.3773L38.1535 50.3319C42.4169 47.2375 46.8866 43.593 50.3936 40.0173C52.4565 37.9543 54.2444 35.6851 55.826 33.3471L56.9262 36.304C58.7141 41.255 57.27 46.8249 53.2817 50.1944Z" fill="white"/>
<path d="M45.9931 20.0071C42.83 16.844 37.6726 16.844 34.4407 20.0071C31.2088 23.1703 31.2775 28.3276 34.4407 31.5595C37.6039 34.7915 42.7612 34.7227 45.9931 31.5595C49.225 28.3964 49.225 23.1703 45.9931 20.0071ZM43.9302 29.3591C41.936 31.3532 38.6353 31.3532 36.6412 29.3591C34.647 27.3649 34.647 24.0642 36.6412 22.0701C38.6353 20.0759 41.936 20.0759 43.9302 22.0701C45.9243 24.133 45.9243 27.3649 43.9302 29.3591Z" fill="white"/>
<path d="M16.4928 58.1714L11.6106 63.0536C11.0605 63.6037 11.0605 64.5664 11.6106 65.1853C12.1607 65.7354 13.1234 65.7354 13.7423 65.1853L18.6245 60.3031C19.1747 59.753 19.1747 58.7903 18.6245 58.1714C18.0057 57.6213 17.1117 57.6213 16.4928 58.1714Z" fill="white"/>
<path d="M13.1926 52.8061C12.6425 52.256 11.6798 52.256 11.0609 52.8061L3.29052 60.5765C2.7404 61.1266 2.7404 62.0893 3.29052 62.7082C3.84063 63.2583 4.80333 63.2583 5.42221 62.7082L13.2613 54.8691C13.8115 54.319 13.8115 53.3563 13.1926 52.8061Z" fill="white"/>
<path d="M7.7598 49.5072C8.30991 48.9571 8.30991 47.9944 7.7598 47.3755C7.20968 46.8254 6.24698 46.8254 5.6281 47.3755L0.745838 52.2577C0.195723 52.8078 0.195723 53.7705 0.745838 54.3894C1.29595 54.9395 2.25865 54.9395 2.87753 54.3894L7.7598 49.5072Z" fill="white"/>
</g>
<defs>
<clipPath id="clip0">
<rect width="65.3333" height="65.2643" fill="white" transform="translate(0.333252 0.333008)"/>
</clipPath>
</defs>
</svg>
