<svg width="38" height="30" viewBox="0 0 38 30" fill="none" xmlns="http://www.w3.org/2000/svg">
<path d="M26.521 28.3074C26.1815 28.3074 25.8421 28.3074 25.5026 28.3074C24.6046 28.3074 23.7065 28.3074 22.8085 28.3074C21.5323 28.3074 20.2518 28.3074 18.9756 28.3074C17.4975 28.3074 16.0237 28.3074 14.5456 28.3074C13.0503 28.3074 11.5549 28.3074 10.0553 28.3074C8.71901 28.3074 7.38268 28.3074 6.04635 28.3074C5.04948 28.3074 4.0526 28.3074 3.06003 28.3074C2.58737 28.3074 2.10182 28.2773 1.63346 28.3074C1.62487 28.3074 1.59909 28.3031 1.59049 28.3074H1.5819C1.5862 28.2945 1.65924 28.329 1.66784 28.3333C1.74089 28.3548 1.61628 28.2859 1.66784 28.3376C1.68932 28.3591 1.70221 28.3806 1.7237 28.4021C1.71081 28.3892 1.68932 28.316 1.71081 28.3806C1.71081 28.3849 1.74518 28.4623 1.73659 28.4623V28.458C1.74089 28.4537 1.73659 28.4279 1.73659 28.4193C1.74948 28.273 1.73659 28.1225 1.73659 27.9763C1.73659 27.2666 1.73659 26.5569 1.73659 25.8472C1.73659 24.7161 1.73659 23.5849 1.73659 22.4537C1.73659 21.0558 1.73659 19.658 1.73659 18.2601C1.73659 16.7505 1.73659 15.2408 1.73659 13.7354C1.73659 12.2687 1.73659 10.8064 1.73659 9.33971C1.73659 8.07519 1.73659 6.80637 1.73659 5.54186C1.73659 4.63003 1.73659 3.7182 1.73659 2.80637C1.73659 2.53111 1.73659 2.25584 1.73659 1.98487C1.73659 1.87734 1.77096 1.7053 1.73659 1.60207V1.58057C1.74518 1.58487 1.7151 1.65799 1.71081 1.66229C1.68932 1.7268 1.71081 1.65369 1.7237 1.64078C1.70221 1.66229 1.68932 1.68379 1.66784 1.7053C1.62057 1.75261 1.67643 1.7053 1.69362 1.6967C1.67643 1.7053 1.62487 1.7182 1.61198 1.73111C1.24245 2.00637 1.5819 1.73111 1.5819 1.73541C1.5819 1.73971 1.63776 1.73541 1.64206 1.73541C1.77526 1.73971 1.90846 1.73541 2.04167 1.73541C2.63893 1.73541 3.24049 1.73541 3.83776 1.73541C4.80026 1.73541 5.76276 1.73541 6.72526 1.73541C7.95846 1.73541 9.19596 1.73541 10.4292 1.73541C11.8428 1.73541 13.2608 1.73541 14.6745 1.73541C16.1784 1.73541 17.6823 1.73541 19.1862 1.73541C20.6858 1.73541 22.1854 1.73541 23.685 1.73541C25.0901 1.73541 26.4909 1.73541 27.896 1.73541C29.112 1.73541 30.328 1.73541 31.544 1.73541C32.4807 1.73541 33.4131 1.73541 34.3499 1.73541C34.9128 1.73541 35.4756 1.73541 36.0385 1.73541C36.146 1.73541 36.2706 1.75261 36.378 1.73541C36.3823 1.73541 36.4038 1.73971 36.4038 1.73541H36.4081C36.4038 1.74401 36.3307 1.7139 36.3221 1.7096C36.2577 1.68809 36.3307 1.7096 36.3436 1.7225C36.3393 1.7182 36.2362 1.60637 36.2792 1.66659C36.3135 1.7182 36.262 1.57627 36.2534 1.58917C36.2491 1.59777 36.2534 1.62358 36.2534 1.63218C36.2233 2.07949 36.2534 2.53971 36.2534 2.98702C36.2534 3.93326 36.2534 4.88379 36.2534 5.83003C36.2534 7.12035 36.2534 8.40637 36.2534 9.6967C36.2534 11.172 36.2534 12.6472 36.2534 14.1225C36.2534 15.6279 36.2534 17.1333 36.2534 18.6386C36.2534 20.0193 36.2534 21.3999 36.2534 22.7806C36.2534 23.8816 36.2534 24.9827 36.2534 26.0838C36.2534 26.7505 36.2534 27.4171 36.2534 28.0838C36.2534 28.1741 36.2147 28.3634 36.2534 28.4494V28.4666C36.2018 28.4537 36.3694 28.2988 36.2663 28.4064C36.2921 28.3763 36.3178 28.3548 36.3479 28.3247C36.335 28.3376 36.262 28.3591 36.3264 28.3376C36.3436 28.3333 36.4081 28.316 36.4038 28.3117C36.3823 28.2902 36.2018 28.3117 36.1717 28.3117C35.0932 28.3117 34.019 28.3117 32.9405 28.3117C31.4881 28.3117 30.0358 28.3117 28.5835 28.3117C27.9046 28.3074 27.2128 28.3074 26.521 28.3074C26.1858 28.3074 25.8592 28.6042 25.8764 28.9526C25.8936 29.301 26.16 29.5978 26.521 29.5978C27.2729 29.5978 28.0249 29.5978 28.7768 29.5978C30.2592 29.5978 31.7374 29.5978 33.2198 29.5978C34.2381 29.5978 35.2608 29.5978 36.2792 29.5978C36.4124 29.5978 36.5413 29.5978 36.6788 29.5677C37.203 29.4386 37.5381 28.987 37.5596 28.4537C37.5639 28.3419 37.5596 28.23 37.5596 28.1182C37.5596 27.4558 37.5596 26.7935 37.5596 26.1311C37.5596 25.0257 37.5596 23.916 37.5596 22.8107C37.5596 21.4171 37.5596 20.0236 37.5596 18.63C37.5596 17.1031 37.5596 15.5763 37.5596 14.0494C37.5596 12.5612 37.5596 11.0773 37.5596 9.58917C37.5596 8.29455 37.5596 7.00422 37.5596 5.7096C37.5596 4.76766 37.5596 3.82143 37.5596 2.87949C37.5596 2.45369 37.5682 2.02788 37.5596 1.60207C37.5467 0.94831 37.0612 0.457987 36.4081 0.436482C36.3049 0.432181 36.2018 0.436482 36.103 0.436482C35.5487 0.436482 34.9944 0.436482 34.4401 0.436482C33.5034 0.436482 32.571 0.436482 31.6342 0.436482C30.4096 0.436482 29.1893 0.436482 27.9647 0.436482C26.5424 0.436482 25.1202 0.436482 23.6979 0.436482C22.1854 0.436482 20.6686 0.436482 19.1561 0.436482C17.6393 0.436482 16.1225 0.436482 14.6057 0.436482C13.1749 0.436482 11.7397 0.436482 10.3089 0.436482C9.07135 0.436482 7.83385 0.436482 6.59206 0.436482C5.63385 0.436482 4.67995 0.436482 3.72174 0.436482C3.13737 0.436482 2.55729 0.436482 1.97292 0.436482C1.8526 0.436482 1.73659 0.436482 1.61628 0.436482C0.963151 0.449385 0.46901 0.926805 0.443229 1.58487C0.430339 1.97197 0.443229 2.35906 0.443229 2.74186C0.443229 3.65799 0.443229 4.56981 0.443229 5.48594C0.443229 6.75906 0.443229 8.03648 0.443229 9.3096C0.443229 10.7892 0.443229 12.2687 0.443229 13.744C0.443229 15.2752 0.443229 16.8021 0.443229 18.3333C0.443229 19.7397 0.443229 21.1462 0.443229 22.5526C0.443229 23.6838 0.443229 24.815 0.443229 25.9419C0.443229 26.6386 0.443229 27.3354 0.443229 28.0322C0.443229 28.1655 0.438932 28.2988 0.443229 28.4279C0.460417 29.0859 0.95026 29.5763 1.60768 29.5892C2.05885 29.5978 2.51003 29.5892 2.9612 29.5892C3.95378 29.5892 4.95065 29.5892 5.94323 29.5892C7.28385 29.5892 8.62877 29.5892 9.9694 29.5892C11.4776 29.5892 12.9858 29.5892 14.4983 29.5892C15.9979 29.5892 17.4932 29.5892 18.9928 29.5892C20.2776 29.5892 21.5667 29.5892 22.8514 29.5892C23.7495 29.5892 24.6475 29.5892 25.5456 29.5892C25.8678 29.5892 26.1944 29.5892 26.5167 29.5892C26.8518 29.5892 27.1784 29.2924 27.1612 28.944C27.1526 28.6042 26.8819 28.3074 26.521 28.3074Z" fill="black"/>
<path d="M1.09245 6.80635C1.41042 6.80635 1.72838 6.80635 2.04635 6.80635C2.91862 6.80635 3.79088 6.80635 4.65885 6.80635C5.94362 6.80635 7.22838 6.80635 8.50885 6.80635C10.0729 6.80635 11.6413 6.80635 13.2053 6.80635C14.9198 6.80635 16.6342 6.80635 18.353 6.80635C20.0932 6.80635 21.8292 6.80635 23.5694 6.80635C25.185 6.80635 26.7964 6.80635 28.412 6.80635C29.7784 6.80635 31.1405 6.80635 32.5069 6.80635C33.4866 6.80635 34.4706 6.80635 35.4503 6.80635C35.9143 6.80635 36.3827 6.81495 36.8467 6.80635C36.8682 6.80635 36.8854 6.80635 36.9069 6.80635C37.2421 6.80635 37.5686 6.50958 37.5514 6.16119C37.5342 5.8128 37.2678 5.51603 36.9069 5.51603C36.5889 5.51603 36.271 5.51603 35.953 5.51603C35.0807 5.51603 34.2085 5.51603 33.3405 5.51603C32.0557 5.51603 30.771 5.51603 29.4905 5.51603C27.9264 5.51603 26.3581 5.51603 24.794 5.51603C23.0796 5.51603 21.3651 5.51603 19.6464 5.51603C17.9061 5.51603 16.1702 5.51603 14.4299 5.51603C12.8143 5.51603 11.203 5.51603 9.58737 5.51603C8.22096 5.51603 6.85885 5.51603 5.49245 5.51603C4.51276 5.51603 3.52877 5.51603 2.54909 5.51603C2.08503 5.51603 1.61667 5.50743 1.1526 5.51603C1.13112 5.51603 1.11393 5.51603 1.09245 5.51603C0.75729 5.51603 0.430728 5.8128 0.447915 6.16119C0.460806 6.50958 0.731509 6.80635 1.09245 6.80635Z" fill="black"/>
<path d="M4.01823 4.31621C4.35338 4.31621 4.67995 4.01943 4.66276 3.67104C4.64557 3.32265 4.37917 3.02588 4.01823 3.02588C3.68307 3.02588 3.35651 3.32265 3.3737 3.67104C3.39088 4.01943 3.65729 4.31621 4.01823 4.31621Z" fill="black"/>
<path d="M6.20963 4.31621C6.54479 4.31621 6.87135 4.01943 6.85417 3.67104C6.83698 3.32265 6.57057 3.02588 6.20963 3.02588C5.87448 3.02588 5.54792 3.32265 5.5651 3.67104C5.57799 4.01943 5.8444 4.31621 6.20963 4.31621Z" fill="black"/>
<path d="M8.39713 4.31621C8.73229 4.31621 9.05885 4.01943 9.04167 3.67104C9.02448 3.32265 8.75807 3.02588 8.39713 3.02588C8.06198 3.02588 7.73542 3.32265 7.7526 3.67104C7.76979 4.01943 8.0362 4.31621 8.39713 4.31621Z" fill="black"/>
<path d="M12.6333 12.4023C11.3185 13.7873 10.0079 15.1765 8.69307 16.5615C8.5083 16.755 8.32354 16.9529 8.13877 17.1464C7.89385 17.4045 7.89385 17.8002 8.13877 18.0582C9.45361 19.4432 10.7642 20.8324 12.079 22.2174C12.2638 22.4109 12.4485 22.6088 12.6333 22.8023C12.8739 23.0561 13.3036 23.0432 13.5442 22.8023C13.7978 22.5486 13.7849 22.1443 13.5442 21.8905C12.2294 20.5055 10.9188 19.1163 9.604 17.7313C9.41924 17.5378 9.23447 17.3399 9.04971 17.1464C9.04971 17.4518 9.04971 17.7529 9.04971 18.0582C10.3646 16.6733 11.6751 15.284 12.9899 13.8991C13.1747 13.7055 13.3595 13.5077 13.5442 13.3141C13.7849 13.0604 13.7935 12.6518 13.5442 12.4023C13.3036 12.1615 12.8739 12.1485 12.6333 12.4023Z" fill="black"/>
<path d="M24.4588 13.3141C25.7736 14.6991 27.0842 16.0883 28.399 17.4733C28.5838 17.6668 28.7685 17.8647 28.9533 18.0582C28.9533 17.7529 28.9533 17.4518 28.9533 17.1464C27.6385 18.5313 26.3279 19.9206 25.0131 21.3055C24.8283 21.4991 24.6435 21.6969 24.4588 21.8905C24.2181 22.1443 24.2096 22.5529 24.4588 22.8023C24.6994 23.0432 25.1291 23.0561 25.3697 22.8023C26.6846 21.4174 27.9951 20.0281 29.31 18.6432C29.4947 18.4496 29.6795 18.2518 29.8642 18.0582C30.1092 17.8002 30.1092 17.4045 29.8642 17.1464C28.5494 15.7615 27.2389 14.3722 25.924 12.9873C25.7392 12.7937 25.5545 12.5959 25.3697 12.4023C25.1291 12.1485 24.6994 12.1615 24.4588 12.4023C24.2053 12.6561 24.2181 13.0604 24.4588 13.3141Z" fill="black"/>
<path d="M21.1161 10.8796C20.4974 12.3635 19.8786 13.8431 19.2599 15.3269C18.2802 17.671 17.3005 20.0194 16.3208 22.3635C16.0973 22.9054 15.8696 23.4431 15.6462 23.985C15.5173 24.299 15.788 24.7076 16.0973 24.7807C16.4755 24.8667 16.7505 24.6646 16.8923 24.3291C17.511 22.8452 18.1298 21.3656 18.7485 19.8818C19.7282 17.5377 20.7079 15.1893 21.6876 12.8452C21.911 12.3033 22.1388 11.7656 22.3622 11.2237C22.4911 10.9097 22.2204 10.5011 21.911 10.428C21.5329 10.342 21.2579 10.5441 21.1161 10.8796Z" fill="black"/>
</svg>
