<svg width="40" height="44" viewBox="0 0 40 44" fill="none" xmlns="http://www.w3.org/2000/svg">
<path d="M18.6353 3.85794C18.6338 3.34952 18.4398 2.86085 18.0928 2.49162C17.2744 1.62552 15.633 0.157308 13.9043 0.101729C11.6054 0.0229921 9.50429 1.09289 8.80544 2.70468C8.46521 3.48741 8.34567 4.63141 9.11808 6.09962C8.63869 5.90388 8.11697 5.83724 7.60425 5.90627C7.09153 5.9753 6.60549 6.17762 6.19395 6.49331C4.6767 7.68362 4.30889 10.2542 5.00774 11.6714C5.0859 11.8289 5.16866 11.9956 5.25602 12.167C4.6726 12.1946 4.10764 12.3816 3.62167 12.7079C3.13571 13.0343 2.74706 13.4877 2.49739 14.0196C2.21357 14.5246 2.03751 15.0836 1.98051 15.6611C1.92351 16.2385 1.98681 16.8215 2.16636 17.3729C0.460613 18.364 -0.132491 20.5501 0.814636 22.727C1.1412 23.4962 1.70989 24.1358 2.43303 24.5472C2.06955 24.6436 1.73796 24.8354 1.47211 25.103C0.92149 25.6932 0.507007 26.3986 0.258246 27.1688C0.0094852 27.939 -0.067418 28.755 0.0330264 29.5586C0.203141 31.2074 0.998544 32.6942 2.10659 33.4352C2.29753 33.5569 2.51318 33.6338 2.7376 33.6603C2.96202 33.6867 3.18947 33.662 3.40314 33.588C2.99254 34.2848 2.86256 35.1135 3.03992 35.9038C3.40314 37.335 4.97096 38.5253 7.83073 39.5396C8.90659 43.4348 11.8675 43.9628 13.1089 44.0045H13.5687C15.6652 43.9257 17.587 42.8188 18.056 41.3552C18.3181 40.5262 18.479 36.6958 18.5664 31.7493C18.5704 31.7139 18.5704 31.6782 18.5664 31.6428C18.7411 21.8238 18.6583 7.71605 18.6353 3.85794ZM17.1181 41.0403C16.8514 41.8693 15.6698 42.7169 14.1572 42.9485C14.3916 41.4849 14.5434 38.6643 14.2859 37.7657C13.9733 36.668 12.2353 35.1628 12.0376 34.9868C11.9887 34.9451 11.9321 34.9136 11.8711 34.8939C11.8101 34.8743 11.7459 34.867 11.682 34.8723C11.6182 34.8777 11.5561 34.8957 11.4991 34.9253C11.4422 34.9548 11.3916 34.9954 11.3503 35.0447C11.3089 35.0939 11.2776 35.1509 11.2581 35.2124C11.2386 35.2739 11.2313 35.3386 11.2366 35.4029C11.242 35.4672 11.2598 35.5298 11.2892 35.5871C11.3186 35.6445 11.3588 35.6954 11.4077 35.7371C12.0652 36.2975 13.1733 37.4137 13.348 38.0251C13.5687 38.8032 13.3756 41.8415 13.1595 42.9994C10.01 42.8883 9.02153 40.1788 8.72728 39.0209C8.70763 38.9408 8.66827 38.867 8.61282 38.8063C8.55737 38.7456 8.48763 38.6999 8.41004 38.6735C5.76636 37.7472 4.27211 36.7468 4.00084 35.6398C3.679 34.3661 4.97096 32.9443 6.11119 31.6891C6.46981 31.2908 6.81004 30.9203 7.09969 30.5544C7.18078 30.4524 7.21835 30.3222 7.20412 30.1923C7.18989 30.0625 7.12504 29.9436 7.02383 29.8619C6.92262 29.7803 6.79335 29.7424 6.66444 29.7568C6.53554 29.7711 6.41756 29.8364 6.33647 29.9384C6.21234 30.0958 6.0836 30.2487 5.95027 30.4015V30.4293C4.71808 31.8188 3.22383 32.972 2.6859 32.6108C1.78935 32.0411 1.14567 30.7998 1.00774 29.4567C0.921876 28.7967 0.981605 28.1258 1.18267 27.4917C1.38374 26.8576 1.72118 26.2761 2.17096 25.7885C2.63073 25.3253 3.49969 25.3253 4.85142 25.3485H5.44912C5.55394 25.3494 5.65625 25.3162 5.74088 25.2539C5.82551 25.1916 5.88794 25.1035 5.91891 25.0026C5.94988 24.9017 5.94774 24.7935 5.91281 24.6939C5.87787 24.5944 5.81201 24.5088 5.72498 24.4499C5.51211 24.3378 5.27554 24.279 5.03533 24.2786C4.11579 24.172 2.42843 23.9729 1.71119 22.324C1.0859 20.8883 1.21923 19.0819 2.58475 18.2436C3.08804 19.0142 3.76966 19.6499 4.57096 20.0963C4.62314 20.1494 4.6867 20.1899 4.75677 20.2146C4.82685 20.2393 4.90159 20.2475 4.9753 20.2386C5.04901 20.2298 5.11974 20.2041 5.18209 20.1635C5.24443 20.1229 5.29675 20.0685 5.33505 20.0044C5.37335 19.9404 5.39662 19.8683 5.40307 19.7938C5.40953 19.7193 5.39901 19.6443 5.37232 19.5746C5.34562 19.5048 5.30345 19.4421 5.24904 19.3912C5.19462 19.3404 5.12938 19.3027 5.05831 19.2811C2.63073 17.8407 2.61693 15.7982 3.34337 14.4874C3.87211 13.5287 4.91119 12.8247 5.8767 13.311C7.25601 15.687 9.19165 18.4428 10.5388 19.0449C10.4298 19.0875 10.341 19.1703 10.2905 19.2765C10.1664 19.5358 9.07211 21.8238 8.91119 22.7131C8.8899 22.8415 8.92008 22.9731 8.99509 23.079C9.07009 23.185 9.18379 23.2566 9.31119 23.2782H9.39395C9.50596 23.2732 9.61285 23.2295 9.6966 23.1544C9.78035 23.0793 9.83584 22.9774 9.85372 22.8659C10.1934 21.776 10.6225 20.7163 11.1365 19.6979C11.1768 19.6275 11.1981 19.5477 11.1981 19.4664C11.1981 19.3851 11.1768 19.3052 11.1365 19.2348C12.1306 19.4848 13.1781 19.4069 14.125 19.0125C14.2427 18.9578 14.3339 18.8583 14.3788 18.7358C14.4236 18.6133 14.4183 18.478 14.3641 18.3594C14.3098 18.2409 14.211 18.1489 14.0894 18.1037C13.9679 18.0586 13.8335 18.0639 13.7158 18.1186C12.8169 18.4882 11.81 18.4882 10.9112 18.1186C9.65142 17.5535 7.23303 14.0243 5.85372 11.2083C5.34337 10.1754 5.67441 8.09583 6.77326 7.24362C8.00544 6.28026 9.61923 7.24362 10.7549 8.23015C10.85 8.31859 10.9761 8.36535 11.1054 8.36014C11.2347 8.35493 11.3567 8.29817 11.4445 8.20236C11.5323 8.10655 11.5787 7.97953 11.5736 7.84924C11.5684 7.71895 11.512 7.59607 11.4169 7.50762C9.75257 5.82173 9.15027 4.26552 9.67441 3.06594C10.1985 1.86636 11.9733 0.990992 13.8445 1.05583C15.2882 1.10215 16.7825 2.53331 17.3572 3.14468C17.532 3.33309 17.629 3.58152 17.6284 3.83941C17.6284 6.94257 17.6652 10.5969 17.6698 14.3763C17.1815 13.8946 16.6033 13.5153 15.9687 13.26C15.0927 12.8922 14.1584 12.6851 13.21 12.6487C13.0808 12.6487 12.9568 12.7004 12.8654 12.7925C12.774 12.8845 12.7227 13.0094 12.7227 13.1396C12.7227 13.2698 12.774 13.3947 12.8654 13.4868C12.9568 13.5788 13.0808 13.6306 13.21 13.6306C14.1939 13.6306 17.0491 14.2142 17.5641 16.0946C17.5807 16.1536 17.6088 16.2087 17.6468 16.2567C17.6468 18.8643 17.6468 21.495 17.6192 24.0285C16.8284 24.2508 14.6123 23.6533 14.1434 23.3893C14.0314 23.3409 13.9055 23.3365 13.7905 23.377C13.6755 23.4175 13.5797 23.4999 13.522 23.608C13.4643 23.7161 13.4489 23.8421 13.4788 23.961C13.5087 24.08 13.5818 24.1834 13.6836 24.2508C14.7817 24.722 15.9536 24.9948 17.1457 25.0567C17.3088 25.056 17.4717 25.0437 17.633 25.0196C17.633 27.2196 17.5916 29.327 17.5595 31.2491C16.6077 31.4251 14.1893 31.5826 13.0353 30.9712H12.9939C11.8399 30.508 10.5802 28.1923 10.2031 27.0529C10.1535 26.942 10.0647 26.8537 9.954 26.805C9.84333 26.7563 9.71865 26.7507 9.60414 26.7894C9.48963 26.828 9.39344 26.9081 9.33422 27.0141C9.27499 27.1201 9.25696 27.2445 9.2836 27.3632C9.65602 28.4933 11.0123 31.1889 12.6077 31.8697C13.563 32.2777 14.5965 32.466 15.633 32.4209C16.287 32.4212 16.9401 32.3732 17.587 32.2773C17.4721 36.9367 17.3434 40.3409 17.1181 41.0403Z" fill="black" stroke="black" stroke-width="0.4"/>
<path d="M29.6417 9.43455C29.4706 9.34745 29.2817 9.30148 29.09 9.30023C28.8056 9.29719 28.5287 9.3919 28.3049 9.56871C28.0812 9.74553 27.9239 9.99391 27.8591 10.2729C27.7943 10.5518 27.8258 10.8447 27.9484 11.1032C28.0711 11.3617 28.2775 11.5703 28.5337 11.6948V16.0438C28.2742 16.1736 28.0673 16.3897 27.948 16.6556C27.8287 16.9215 27.8044 17.2208 27.8792 17.5027C27.9539 17.7846 28.1231 18.0317 28.3582 18.2023C28.5932 18.3728 28.8795 18.4563 29.1686 18.4384C29.4577 18.4205 29.7318 18.3025 29.9444 18.1043C30.157 17.9061 30.295 17.6399 30.335 17.351C30.375 17.062 30.3145 16.7679 30.1639 16.5187C30.0132 16.2695 29.7816 16.0804 29.5084 15.9836V11.755C29.8168 11.6504 30.0714 11.4268 30.2163 11.1333C30.3611 10.8397 30.3843 10.5003 30.2808 10.1895L32.713 8.04507C32.9701 8.18101 33.2672 8.21884 33.5498 8.1516L36.2026 11.2779C36.1139 11.4513 36.0667 11.6432 36.0647 11.8383C36.0647 12.0884 36.1383 12.3329 36.2763 12.5408C36.4142 12.7487 36.6102 12.9108 36.8396 13.0065C37.0689 13.1022 37.3213 13.1273 37.5648 13.0785C37.8082 13.0297 38.0319 12.9093 38.2074 12.7324C38.383 12.5556 38.5025 12.3303 38.5509 12.085C38.5994 11.8397 38.5745 11.5855 38.4795 11.3545C38.3845 11.1234 38.2236 10.9259 38.0172 10.787C37.8108 10.6481 37.5681 10.5739 37.3199 10.5739C37.1916 10.5758 37.0645 10.5977 36.9429 10.6388L34.3452 7.56802C34.4585 7.38728 34.5247 7.18062 34.5376 6.96722C34.5505 6.75382 34.5097 6.5406 34.4189 6.34735C34.3281 6.1541 34.1904 5.98708 34.0184 5.8618C33.8464 5.73652 33.6458 5.65704 33.4352 5.63074C33.2246 5.60443 33.0108 5.63215 32.8136 5.71133C32.6165 5.79051 32.4424 5.91858 32.3075 6.08365C32.1727 6.24871 32.0814 6.44543 32.0421 6.65554C32.0029 6.86565 32.017 7.08234 32.0831 7.2855L29.6417 9.43455Z" fill="black" stroke="black" stroke-width="0.4"/>
<path d="M28.557 27.5719L27.3432 26.0203C27.5102 25.7731 27.587 25.4751 27.5603 25.1772C27.5337 24.8794 27.4053 24.6 27.1971 24.3869C26.9889 24.1737 26.7137 24.0399 26.4185 24.0082C26.1232 23.9766 25.8263 24.0491 25.5782 24.2134C25.3301 24.3776 25.1462 24.6235 25.058 24.9091C24.9697 25.1946 24.9825 25.5022 25.0942 25.7793C25.2059 26.0564 25.4095 26.2859 25.6704 26.4287C25.9313 26.5714 26.2332 26.6186 26.5248 26.5622L28.0834 28.5538H31.1455V30.3416C30.8785 30.4549 30.6586 30.6578 30.5232 30.9158C30.3878 31.1738 30.3451 31.4711 30.4025 31.7572C30.4599 32.0433 30.6138 32.3006 30.838 32.4854C31.0623 32.6702 31.3431 32.7712 31.6328 32.7712C31.9226 32.7712 32.2034 32.6702 32.4276 32.4854C32.6519 32.3006 32.8058 32.0433 32.8631 31.7572C32.9205 31.4711 32.8779 31.1738 32.7425 30.9158C32.6071 30.6578 32.3872 30.4549 32.1202 30.3416V28.5538H34.0236L38.1892 31.606L36.7823 35.0195H32.0834C31.9873 34.7442 31.7996 34.5109 31.5522 34.3592C31.3048 34.2074 31.0129 34.1465 30.7261 34.1868C30.4392 34.2271 30.175 34.3661 29.9782 34.5802C29.7815 34.7944 29.6643 35.0705 29.6466 35.3617C29.6288 35.653 29.7116 35.9414 29.8809 36.1782C30.0502 36.4149 30.2956 36.5854 30.5755 36.6607C30.8553 36.736 31.1524 36.7115 31.4163 36.5913C31.6803 36.4711 31.8948 36.2627 32.0236 36.0014H37.4397L39.3846 31.2632L34.3271 27.558L28.557 27.5719Z" fill="black" stroke="black" stroke-width="0.4"/>
<path d="M34.0984 14.5063C34.1011 14.4585 34.1011 14.4105 34.0984 14.3627C34.1004 14.0738 34.0053 13.7926 33.8284 13.5652C33.6515 13.3377 33.4033 13.1773 33.1243 13.1102C32.8453 13.043 32.5519 13.0731 32.2921 13.1955C32.0322 13.3178 31.8212 13.5253 31.6934 13.7839C31.5656 14.0426 31.5286 14.3373 31.5883 14.6199C31.6481 14.9025 31.8012 15.1564 32.0226 15.3401C32.244 15.5239 32.5206 15.6266 32.8074 15.6316C33.0942 15.6367 33.3742 15.5436 33.6018 15.3678L38.8432 17.841V19.5593L34.8708 19.5315L32.6455 21.8705C32.5281 21.8324 32.4056 21.8121 32.2823 21.8103C32.0353 21.8158 31.7954 21.8945 31.5926 22.0368C31.3899 22.179 31.2333 22.3783 31.1425 22.6098C31.0517 22.8412 31.0308 23.0946 31.0823 23.338C31.1338 23.5814 31.2554 23.8041 31.432 23.9781C31.6086 24.1522 31.8323 24.2699 32.075 24.3165C32.3177 24.3631 32.5686 24.3364 32.7963 24.24C33.0241 24.1435 33.2185 23.9815 33.3553 23.7742C33.492 23.5669 33.565 23.3236 33.565 23.0747C33.5638 22.8745 33.515 22.6776 33.4225 22.5004L35.3076 20.5134L38.8662 20.5366V24.0844L37.588 25.4739C37.3216 25.3421 37.018 25.3075 36.729 25.376C36.4401 25.4445 36.1837 25.6118 36.0035 25.8494C35.8233 26.0871 35.7305 26.3803 35.7409 26.6791C35.7512 26.9779 35.8642 27.2639 36.0604 27.4882C36.2567 27.7126 36.5241 27.8614 36.8171 27.9094C37.1101 27.9573 37.4105 27.9014 37.6672 27.7512C37.9239 27.601 38.1209 27.3658 38.2246 27.0857C38.3284 26.8055 38.3325 26.4978 38.2363 26.2149L39.8409 24.492V17.2111L34.0984 14.5063Z" fill="black" stroke="black" stroke-width="0.4"/>
<path d="M33.9737 37.692C33.7469 37.6924 33.5244 37.7547 33.33 37.8722C33.1355 37.9898 32.9762 38.1582 32.8692 38.3597C32.7621 38.5611 32.7113 38.788 32.722 39.0162C32.7327 39.2444 32.8046 39.4655 32.9301 39.6558L30.5852 42.8979H27.1278V38.4424C27.3948 38.329 27.6146 38.1261 27.75 37.8681C27.8855 37.6101 27.9281 37.3128 27.8707 37.0267C27.8133 36.7406 27.6595 36.4833 27.4352 36.2985C27.211 36.1137 26.9301 36.0127 26.6404 36.0127C26.3507 36.0127 26.0698 36.1137 25.8456 36.2985C25.6214 36.4833 25.4675 36.7406 25.4101 37.0267C25.3527 37.3128 25.3953 37.6101 25.5308 37.8681C25.6662 38.1261 25.886 38.329 26.153 38.4424V42.8979H24.8289L21.4128 39.2621L21.4772 32.3935H23.9094C24.0219 32.6625 24.2233 32.884 24.4794 33.0204C24.7356 33.1568 25.0307 33.1997 25.3147 33.1419C25.5987 33.0841 25.8541 32.9291 26.0375 32.7032C26.221 32.4773 26.3212 32.1944 26.3212 31.9026C26.3212 31.6107 26.221 31.3278 26.0375 31.1019C25.8541 30.876 25.5987 30.721 25.3147 30.6632C25.0307 30.6054 24.7356 30.6483 24.4794 30.7847C24.2233 30.9212 24.0219 31.1426 23.9094 31.4116H21.491L21.5461 25.3396C21.8058 25.2108 22.0133 24.9955 22.1334 24.7302C22.2536 24.4649 22.279 24.166 22.2055 23.884C22.1319 23.602 21.9638 23.3542 21.7297 23.1827C21.4956 23.0112 21.2099 22.9265 20.9209 22.9429C20.6319 22.9593 20.3574 23.0758 20.1439 23.2727C19.9304 23.4696 19.7911 23.7348 19.7494 24.0234C19.7077 24.3119 19.7664 24.6061 19.9153 24.8561C20.0643 25.1061 20.2945 25.2965 20.5668 25.3952L20.4335 39.6512L24.4105 43.8845H31.0818L33.7439 40.207C33.9162 40.2406 34.0936 40.2375 34.2646 40.1978C34.4356 40.158 34.5965 40.0826 34.7368 39.9764C34.8771 39.8702 34.9937 39.7355 35.0791 39.581C35.1645 39.4266 35.2168 39.2558 35.2327 39.0797C35.2485 38.9036 35.2275 38.7262 35.171 38.5588C35.1145 38.3914 35.0238 38.2377 34.9048 38.1079C34.7857 37.978 34.6409 37.8747 34.4797 37.8046C34.3186 37.7346 34.1446 37.6994 33.9691 37.7013L33.9737 37.692Z" fill="black" stroke="black" stroke-width="0.4"/>
<path d="M20.4387 3.82568V20.9625H25.2617C25.3578 21.2378 25.5455 21.4711 25.7929 21.6228C26.0403 21.7746 26.3322 21.8355 26.6191 21.7952C26.9059 21.7549 27.1702 21.6159 27.3669 21.4017C27.5637 21.1876 27.6808 20.9115 27.6986 20.6203C27.7163 20.329 27.6335 20.0406 27.4642 19.8038C27.2949 19.5671 27.0495 19.3966 26.7697 19.3213C26.4898 19.246 26.1927 19.2705 25.9288 19.3907C25.6648 19.5108 25.4503 19.7193 25.3215 19.9806H21.418V13.9596H24.3468C24.4775 14.2195 24.6933 14.4259 24.9577 14.544C25.2221 14.6621 25.5188 14.6846 25.7978 14.6077C26.0767 14.5307 26.3208 14.3592 26.4886 14.1219C26.6564 13.8846 26.7378 13.5963 26.7189 13.3055C26.7 13.0148 26.5821 12.7396 26.385 12.5264C26.1879 12.3132 25.9237 12.1751 25.6372 12.1354C25.3507 12.0958 25.0594 12.157 24.8125 12.3088C24.5657 12.4606 24.3784 12.6936 24.2824 12.9684H21.418V3.88126C21.6621 3.79506 21.8736 3.63474 22.0235 3.42239C22.1734 3.21005 22.2542 2.95612 22.2548 2.69558C22.2548 2.69558 22.2548 2.65389 22.2548 2.63537L26.3927 1.17642L28.4111 4.09895C28.4084 4.14677 28.4084 4.19471 28.4111 4.24253C28.414 4.40167 28.4467 4.55883 28.5077 4.70568L26.2088 7.02147C26.0316 6.92762 25.8344 6.87835 25.6341 6.87789C25.3859 6.87789 25.1432 6.95205 24.9368 7.09099C24.7304 7.22992 24.5695 7.4274 24.4745 7.65844C24.3795 7.88948 24.3546 8.14372 24.4031 8.38899C24.4515 8.63426 24.571 8.85956 24.7466 9.0364C24.9221 9.21323 25.1458 9.33365 25.3893 9.38244C25.6327 9.43123 25.8851 9.40619 26.1145 9.31049C26.3438 9.21479 26.5398 9.05272 26.6778 8.84479C26.8157 8.63686 26.8893 8.39239 26.8893 8.14231C26.8879 8.02781 26.8709 7.91405 26.8387 7.80421L29.395 5.43284C29.5997 5.4849 29.814 5.48414 30.0183 5.43062C30.2226 5.37711 30.4102 5.27257 30.5637 5.12667C30.7172 4.98077 30.8317 4.79823 30.8967 4.59593C30.9616 4.39363 30.9749 4.17809 30.9352 3.96927C30.8955 3.76044 30.8042 3.56506 30.6697 3.4012C30.5352 3.23734 30.3619 3.11029 30.1657 3.0318C29.9696 2.95331 29.757 2.92592 29.5475 2.95215C29.3381 2.97839 29.1386 3.0574 28.9675 3.18189L26.7698 0L21.818 1.74611C21.6838 1.62983 21.5267 1.54357 21.3569 1.49304C21.1872 1.44251 21.0087 1.42886 20.8333 1.45298C20.658 1.4771 20.4897 1.53845 20.3396 1.63298C20.1895 1.7275 20.061 1.85305 19.9627 2.00131C19.8644 2.14957 19.7984 2.31717 19.7691 2.49302C19.7399 2.66888 19.748 2.84899 19.793 3.02144C19.838 3.19389 19.9189 3.35476 20.0302 3.4934C20.1415 3.63204 20.2807 3.7453 20.4387 3.82568Z" fill="black" stroke="black" stroke-width="0.4"/>
</svg>
