<svg width="44" height="44" viewBox="0 0 44 44" fill="none" xmlns="http://www.w3.org/2000/svg">
<path d="M5.5 33H6.875C6.875 30.3469 9.03444 28.1875 11.6875 28.1875V26.8125C8.27544 26.8125 5.5 29.5879 5.5 33Z" fill="black"/>
<path d="M24.75 35.0625H26.125C26.125 32.4094 23.9656 30.25 21.3125 30.25V31.625C23.2079 31.625 24.75 33.1671 24.75 35.0625Z" fill="black"/>
<path d="M6.1875 39.1875H4.8125V40.5625H6.1875V39.1875Z" fill="black"/>
<path d="M8.9375 39.1875H7.5625V40.5625H8.9375V39.1875Z" fill="black"/>
<path d="M11.6875 39.1875H10.3125V40.5625H11.6875V39.1875Z" fill="black"/>
<path d="M25.4375 6.1875C25.817 6.1875 26.125 6.49619 26.125 6.875H27.5C27.5 5.97988 26.9232 5.22363 26.125 4.939V3.4375H24.75V4.8125H23.375V6.875C23.375 8.01213 24.3004 8.9375 25.4375 8.9375C25.817 8.9375 26.125 9.24619 26.125 9.625V10.3125H25.4375C25.058 10.3125 24.75 10.0038 24.75 9.625H23.375C23.375 10.5201 23.9518 11.2764 24.75 11.561V13.0625H26.125V11.6875H27.5V9.625C27.5 8.48787 26.5746 7.5625 25.4375 7.5625C25.058 7.5625 24.75 7.25381 24.75 6.875V6.1875H25.4375Z" fill="black"/>
<path d="M29.5625 8.9375C29.9422 8.9375 30.25 8.6297 30.25 8.25C30.25 7.8703 29.9422 7.5625 29.5625 7.5625C29.1828 7.5625 28.875 7.8703 28.875 8.25C28.875 8.6297 29.1828 8.9375 29.5625 8.9375Z" fill="black"/>
<path d="M21.3125 8.9375C21.6922 8.9375 22 8.6297 22 8.25C22 7.8703 21.6922 7.5625 21.3125 7.5625C20.9328 7.5625 20.625 7.8703 20.625 8.25C20.625 8.6297 20.9328 8.9375 21.3125 8.9375Z" fill="black"/>
<path d="M32.3125 24.0625C31.1754 24.0625 30.25 24.9879 30.25 26.125C30.25 27.2621 31.1754 28.1875 32.3125 28.1875C33.4496 28.1875 34.375 27.2621 34.375 26.125C34.375 24.9879 33.4496 24.0625 32.3125 24.0625ZM32.3125 26.8125C31.933 26.8125 31.625 26.5045 31.625 26.125C31.625 25.7455 31.933 25.4375 32.3125 25.4375C32.692 25.4375 33 25.7455 33 26.125C33 26.5045 32.692 26.8125 32.3125 26.8125Z" fill="black"/>
<path d="M41.25 13.75C40.1129 13.75 39.1875 14.6754 39.1875 15.8125C39.1875 16.1576 39.281 16.478 39.4309 16.764L34.8865 22.066C34.1413 21.5916 33.2599 21.3125 32.3125 21.3125C31.9454 21.3125 31.5893 21.3572 31.2455 21.4356L28.7794 15.0232C31.2757 13.7871 33 11.2193 33 8.25C33 4.08031 29.6072 0.6875 25.4375 0.6875C21.2678 0.6875 17.875 4.08031 17.875 8.25C17.875 10.0877 18.5357 11.7734 19.6295 13.0859L15.4584 17.2569L14.1068 15.9053L12.6383 16.786L12.2244 15.125H7.02556L6.611 16.786L5.1425 15.9046L1.46713 19.5807L2.34781 21.0478L0.6875 21.4631V26.6619L2.34781 27.0765L1.46781 28.545L3.18381 30.261C2.90469 31.1245 2.75 32.0444 2.75 33C2.75 33.8236 2.86687 34.6445 3.09856 35.4475C1.64863 36.1082 0.6875 37.5574 0.6875 39.1875C0.6875 41.4624 2.53756 43.3125 4.8125 43.3125H28.1875C30.4624 43.3125 32.3125 41.4624 32.3125 39.1875C32.3125 37.1463 30.8213 35.4516 28.8716 35.1244C28.8722 35.1037 28.875 35.0831 28.875 35.0625C28.875 30.8928 25.4822 27.5 21.3125 27.5C20.5006 27.5 19.7189 27.632 18.9853 27.8706C18.7117 27.4808 18.4147 27.1157 18.0902 26.7802L18.5625 26.6619V21.4631L16.9015 21.0485L17.7822 19.5814L16.4306 18.2291L20.6016 14.058C21.9141 15.1518 23.5998 15.8125 25.4375 15.8125C26.1518 15.8125 26.8414 15.7059 27.4966 15.5203L29.9619 21.9299C28.4948 22.7549 27.5 24.3251 27.5 26.125C27.5 28.7781 29.6594 30.9375 32.3125 30.9375C34.9656 30.9375 37.125 28.7781 37.125 26.125C37.125 24.9136 36.6712 23.8081 35.9294 22.9611L40.4346 17.7052C40.6849 17.8138 40.9606 17.875 41.25 17.875C42.3871 17.875 43.3125 16.9496 43.3125 15.8125C43.3125 14.6754 42.3871 13.75 41.25 13.75ZM15.125 35.0625C15.125 31.6504 17.9004 28.875 21.3125 28.875C24.7246 28.875 27.5 31.6504 27.5 35.0625C27.5 35.9178 27.3288 36.7455 26.9919 37.5224L28.2528 38.0703C28.4742 37.5609 28.6323 37.0329 28.7354 36.4932C29.9901 36.7476 30.9375 37.8586 30.9375 39.1875C30.9375 40.7041 29.7041 41.9375 28.1875 41.9375H4.8125C3.29587 41.9375 2.0625 40.7041 2.0625 39.1875C2.0625 37.939 2.91294 36.8479 4.13119 36.5358L4.87094 36.3461L4.60488 35.6311C4.28656 34.7724 4.125 33.8876 4.125 33C4.125 28.8303 7.51781 25.4375 11.6875 25.4375C14.08 25.4375 16.2697 26.5451 17.6962 28.4226C15.3471 29.7076 13.75 32.2018 13.75 35.0625H15.125ZM6.1875 24.0625C6.1875 22.1671 7.72956 20.625 9.625 20.625C11.5204 20.625 13.0625 22.1671 13.0625 24.0625C13.0625 24.101 13.0577 24.1388 13.0563 24.1766C12.6074 24.1086 12.1523 24.0625 11.6875 24.0625C9.79275 24.0625 8.03756 24.6592 6.58969 25.6685C6.32844 25.1776 6.1875 24.6338 6.1875 24.0625ZM17.1875 22.5369V25.5881L16.8114 25.6822C16.0786 25.1673 15.2701 24.7734 14.4128 24.5004C14.4265 24.3547 14.4375 24.2089 14.4375 24.0625C14.4375 21.4088 12.2781 19.25 9.625 19.25C6.97194 19.25 4.8125 21.4088 4.8125 24.0625C4.8125 24.9425 5.06619 25.8019 5.51788 26.5492C4.81044 27.2257 4.21438 28.0156 3.75856 28.8915L3.19825 28.3312L4.08925 26.8469L3.74825 26.0088L2.0625 25.5881V22.5369L3.40244 22.2021L3.77025 22.0626L4.08925 21.2774L3.19825 19.7938L5.35631 17.6364L6.84062 18.5274L7.67938 18.1816L8.09944 16.5H11.1506L11.5706 18.1816L12.4094 18.5274L13.8937 17.6364L16.0518 19.7938L15.1608 21.2774L15.5017 22.1162L17.1875 22.5369ZM19.25 8.25C19.25 4.83862 22.0254 2.0625 25.4375 2.0625C28.8496 2.0625 31.625 4.83862 31.625 8.25C31.625 11.6614 28.8496 14.4375 25.4375 14.4375C22.0254 14.4375 19.25 11.6614 19.25 8.25ZM32.3125 29.5625C30.4171 29.5625 28.875 28.0204 28.875 26.125C28.875 24.2296 30.4171 22.6875 32.3125 22.6875C34.2079 22.6875 35.75 24.2296 35.75 26.125C35.75 28.0204 34.2079 29.5625 32.3125 29.5625ZM41.25 16.5C40.8705 16.5 40.5625 16.1913 40.5625 15.8125C40.5625 15.4337 40.8705 15.125 41.25 15.125C41.6295 15.125 41.9375 15.4337 41.9375 15.8125C41.9375 16.1913 41.6295 16.5 41.25 16.5Z" fill="black"/>
</svg>
