<svg width="44" height="38" viewBox="0 0 44 38" fill="none" xmlns="http://www.w3.org/2000/svg">
<path d="M0 0V38H44V0H0ZM41.7578 10.1902H18.2154L14.5 1.98733H41.7578V10.1902ZM2 35.772V1.98733H12.5L17 11.924H41.7578V35.772H2Z" fill="black"/>
<path d="M17.9858 26.7451C17.9858 28.0837 16.8899 29.1727 15.5427 29.1727C14.1956 29.1727 13.0996 28.0837 13.0996 26.7451V16.7891H10.5215V26.7451C10.5215 29.4963 12.774 31.7345 15.5427 31.7345C18.3115 31.7345 20.564 29.4963 20.564 26.7451V16.7891H17.9858V26.7451Z" fill="black"/>
<path d="M31.8305 16.7217L28.3208 21.9529L24.8111 16.7217L22.666 18.1427L26.7716 24.262L22.666 30.3813L24.8111 31.8023L28.3208 26.5711L31.8305 31.8023L33.9756 30.3813L29.8701 24.262L33.9756 18.1427L31.8305 16.7217Z" fill="black"/>
<path d="M36.2988 5.11426H38.877V7.67606H36.2988V5.11426Z" fill="black"/>
<path d="M31.1426 5.11426H33.7207V7.67606H31.1426V5.11426Z" fill="black"/>
<path d="M25.9863 5.11426H28.5645V7.67606H25.9863V5.11426Z" fill="black"/>
</svg>
