<svg width="112" height="28" viewBox="0 0 112 28" fill="none" xmlns="http://www.w3.org/2000/svg">
<path d="M0 0.0507812V5.87853H7.03405V27.8003H13.2443V5.87853H20.2784V0.0507812H0Z" fill="black"/>
<path d="M72.159 0.0507812L67.6693 17.0916H67.5942L63.5534 0.0507812H56.9682L52.8533 17.0916H52.7784L48.2886 0.0507812H41.6284L49.9351 27.8003H55.6591L60.2987 9.54862H60.3362L64.7886 27.8003H70.5124L78.8182 0.0507812H72.159Z" fill="black"/>
<path d="M86.4639 7.94609H86.5389L89.4569 17.2873H83.581L86.4639 7.94609ZM83.5078 0.0507812L73.7805 27.8003H80.3282L81.8623 22.8371H91.1783L92.7497 27.8003H99.2974L89.4939 0.0507812H83.5078Z" fill="black"/>
<path d="M96.1882 0.0507812L105.992 27.8003H111.569L101.767 0.0507812H96.1882Z" fill="#FFCD00"/>
<path d="M36.1362 19.163C36.1362 17.443 34.902 16.232 32.2078 16.232H28.6157V22.095H32.2078C34.5272 22.095 36.1362 21.116 36.1362 19.164V19.163ZM28.6157 11.1121H31.5706C33.4448 11.1121 34.9376 10.2134 34.9376 8.45417C34.9376 6.88783 33.8524 5.79629 31.3456 5.79629H28.6157V11.1121ZM42.6464 20.0627C42.6464 24.5179 39.8406 27.8014 34.1533 27.8014H22.4805V0.0507812H32.5077C38.419 0.0507812 41.2623 2.55202 41.2623 6.81245C41.2623 9.19626 40.2895 11.6974 37.4088 12.9486V13.0269C41.0008 14.0431 42.6474 16.6226 42.6474 20.0617" fill="black"/>
</svg>
