<svg width="112" height="21" viewBox="0 0 112 21" fill="none" xmlns="http://www.w3.org/2000/svg">
<path d="M53.4663 8.93901H50.486H49.2434H48.5159H44.1678V12.4931H47.9732C47.186 13.7195 45.813 14.5349 44.2525 14.5349C41.8149 14.5349 39.8317 12.5484 39.8317 10.1067C39.8317 7.66488 41.8149 5.67843 44.2525 5.67843C45.5944 5.67843 46.7981 6.28173 47.6094 7.23038H48.4995H49.9053H53.0869C51.8771 3.49115 48.3715 0.787977 44.236 0.787977C41.2463 0.787977 38.5866 2.20058 36.8844 4.39653V1.23461H32.1941L27.1358 8.54345L22.0765 1.23461H17.3862V4.39566C15.684 2.20058 13.0243 0.787109 10.0346 0.787109C4.89586 0.787109 0.730957 4.95914 0.730957 10.1067C0.730957 15.2534 4.89586 19.4262 10.0346 19.4262C13.0243 19.4262 15.684 18.0136 17.3862 15.8177V18.9788H22.2493V9.11646L27.1348 15.9925L32.0205 9.11646V18.9779H36.8835V15.8168C38.5858 18.0119 41.2454 19.4254 44.2352 19.4254C48.6637 19.4254 52.368 16.3266 53.3081 12.1754C53.4585 11.5098 53.5388 10.8173 53.5388 10.1058C53.5388 9.71111 53.5138 9.32163 53.4663 8.93901ZM14.2142 11.5453C14.2098 11.5582 14.2055 11.5712 14.2012 11.5842C14.1857 11.6283 14.1684 11.6725 14.152 11.7158C14.1407 11.7443 14.1304 11.7729 14.1183 11.8006C14.1071 11.8283 14.0941 11.856 14.082 11.8837C14.063 11.927 14.044 11.9702 14.024 12.0126C14.018 12.0248 14.012 12.0369 14.006 12.049C13.573 12.9327 12.8558 13.6511 11.9736 14.0848C11.9615 14.0909 11.9494 14.097 11.9373 14.103C11.895 14.1229 11.8517 14.142 11.8086 14.161C11.7809 14.1731 11.7533 14.1852 11.7256 14.1973C11.698 14.2086 11.6694 14.2198 11.6409 14.2311C11.5968 14.2484 11.5537 14.2648 11.5087 14.2804C11.4958 14.2848 11.4836 14.2891 11.4707 14.2935C10.5409 14.612 9.52654 14.612 8.59672 14.2935C8.58375 14.2891 8.5717 14.2848 8.55873 14.2804C8.51464 14.2648 8.47062 14.2475 8.42653 14.2302C8.39803 14.219 8.37038 14.2086 8.34182 14.1965C8.31417 14.1852 8.28653 14.1722 8.25803 14.1601C8.21479 14.1411 8.17162 14.122 8.13015 14.1021C8.11803 14.0961 8.10598 14.09 8.09386 14.0839C7.33261 13.71 6.69403 13.124 6.25507 12.4021C6.25334 12.3995 6.25161 12.3961 6.24988 12.3935C6.21532 12.3364 6.18162 12.2784 6.14965 12.2195C6.14274 12.2065 6.13669 12.1935 6.12977 12.1814C6.10299 12.1312 6.07706 12.0819 6.05287 12.0308C5.71156 11.3194 5.56985 10.5342 5.62947 9.76215L5.62774 9.76046C5.68131 9.07405 5.89042 8.43095 6.22223 7.86662C6.24815 7.82161 6.27581 7.77743 6.30346 7.73326C6.32419 7.70037 6.34493 7.66663 6.36653 7.63464C6.38295 7.60951 6.40196 7.58528 6.41925 7.56015C6.47714 7.47797 6.53676 7.39748 6.59984 7.31957C6.61193 7.30396 6.62403 7.28926 6.63699 7.27364C6.67761 7.2252 6.71822 7.1776 6.76056 7.13084C6.76401 7.12741 6.76661 7.12391 6.77007 7.12048C7.14335 6.71105 7.59184 6.37262 8.09386 6.12593C8.10598 6.11987 8.11803 6.11381 8.13015 6.10775C8.17247 6.08698 8.21571 6.0688 8.25888 6.04976C8.28653 6.03764 8.31417 6.02552 8.34182 6.01341C8.36946 6.00215 8.39803 5.9909 8.42653 5.97965C8.47062 5.96234 8.51379 5.94589 8.55788 5.93031C8.57085 5.92598 8.58375 5.92166 8.59587 5.91732C9.39774 5.64295 10.2635 5.60486 11.0836 5.80394C11.087 5.80481 11.0896 5.80567 11.0931 5.80654C11.1579 5.82212 11.2227 5.84029 11.2866 5.85847C11.3005 5.86279 11.3143 5.86713 11.3281 5.87145C11.3817 5.8879 11.4353 5.90435 11.4889 5.92339C12.2328 6.18479 12.887 6.63921 13.3898 7.22779H13.3924C14.4336 8.4474 14.7076 10.0998 14.2142 11.5453Z" fill="#26366A"/>
<path d="M62.7215 10.0115C61.942 10.0115 61.2093 9.8184 60.5223 9.43151C59.8354 9.04546 59.2841 8.51143 58.8676 7.83194C58.4511 7.15161 58.2429 6.39857 58.2429 5.57109C58.2429 4.78255 58.4356 4.04509 58.8218 3.35697C59.2073 2.66884 59.7438 2.11834 60.4307 1.7046C61.1177 1.29086 61.8816 1.08398 62.7224 1.08398C63.5397 1.08398 64.2924 1.2848 64.9794 1.68642C65.6663 2.08804 66.2081 2.63335 66.6056 3.32061C67.003 4.00874 67.2018 4.75832 67.2018 5.56935C67.2018 6.36568 67.0013 7.10401 66.6004 7.7835C66.1995 8.46383 65.6568 9.00479 64.9742 9.40638C64.2898 9.81063 63.5389 10.0115 62.7215 10.0115ZM65.6144 5.55983C65.6144 5.03443 65.4874 4.54193 65.2325 4.08145C64.9776 3.62183 64.6285 3.25483 64.1852 2.98045C63.7411 2.70606 63.2495 2.5693 62.7094 2.5693C62.1926 2.5693 61.7122 2.70433 61.2681 2.97525C60.8248 3.24617 60.4731 3.61144 60.2148 4.07106C59.9564 4.53067 59.8268 5.02751 59.8268 5.5607C59.8268 6.0861 59.9538 6.57688 60.2087 7.03303C60.4636 7.48915 60.8118 7.85273 61.256 8.12279C61.6993 8.39369 62.1874 8.52872 62.7197 8.52872C63.2598 8.52872 63.7498 8.3911 64.1896 8.1167C64.6294 7.8423 64.9767 7.47879 65.2308 7.02694C65.4874 6.57428 65.6144 6.08523 65.6144 5.55983Z" fill="#26366A"/>
<path d="M74.8614 4.59684C74.4602 4.59684 74.1362 4.7362 73.8888 5.01405C73.6422 5.2919 73.5181 5.72555 73.5181 6.3124V9.83701H71.9792V6.21978C71.9792 5.72555 71.8693 5.33084 71.6496 5.03742C71.4298 4.74399 71.1151 4.59684 70.7056 4.59684C70.2814 4.59684 69.9686 4.74746 69.7681 5.04867C69.5676 5.34989 69.4674 5.85278 69.4674 6.55562V9.8361H67.9285V3.40323H69.3404V3.94767H69.3638C69.5184 3.70012 69.7414 3.51142 70.0351 3.37986C70.328 3.24829 70.6633 3.18251 71.0421 3.18251C71.427 3.18251 71.7807 3.26906 72.1011 3.44304C72.4208 3.61703 72.6852 3.8663 72.8936 4.19089C73.1481 3.83515 73.4451 3.57894 73.7846 3.41968C74.1242 3.26127 74.5169 3.18164 74.9649 3.18164C75.4427 3.18164 75.8786 3.28032 76.272 3.4768C76.6655 3.67415 76.9795 3.98143 77.2155 4.39863C77.4509 4.81583 77.5693 5.33777 77.5693 5.96357V9.83526H76.0303V6.21978C76.0303 5.70217 75.9318 5.30228 75.7354 5.02011C75.5384 4.73793 75.247 4.59684 74.8614 4.59684Z" fill="#26366A"/>
<path d="M81.3878 4.59706C81.1957 4.59706 80.9986 4.64727 80.798 4.74767C80.5974 4.84808 80.4237 5.02812 80.277 5.28692C80.1296 5.54572 80.0573 5.89195 80.0573 6.32473V9.83718H78.5183V3.40344H79.9424V3.96001C80.2118 3.69774 80.4861 3.50212 80.764 3.37488C81.0426 3.24764 81.3587 3.18359 81.7131 3.18359C82.0605 3.18359 82.4248 3.26841 82.8069 3.43893C83.189 3.60859 83.5207 3.90634 83.8022 4.33134C84.0843 4.75633 84.2246 5.32414 84.2246 6.03563V9.83809H82.6857V6.60258C82.6843 5.26614 82.2519 4.59706 81.3878 4.59706Z" fill="#26366A"/>
<path d="M86.7008 1.25781V2.67215H85.1619V1.25781H86.7008ZM86.7008 3.40268V9.83647H85.1619V3.40268H86.7008Z" fill="#26366A"/>
<path d="M90.878 10.0447C90.2613 10.0447 89.6899 9.88806 89.1654 9.57558C88.6408 9.26226 88.2261 8.84156 87.9213 8.31187C87.6158 7.78211 87.4641 7.20825 87.4641 6.59024C87.4641 5.98002 87.6158 5.41393 87.9213 4.892C88.2261 4.37007 88.638 3.95459 89.159 3.64559C89.68 3.33658 90.2492 3.18164 90.8666 3.18164C91.5996 3.18164 92.2596 3.39024 92.8458 3.80745C93.4313 4.22465 93.8488 4.80025 94.0948 5.53512H92.3588C92.1816 5.22611 91.9725 4.99241 91.7343 4.834C91.4947 4.67561 91.2055 4.59598 90.8659 4.59598C90.5108 4.59598 90.1911 4.68513 89.9047 4.86257C89.6198 5.04088 89.3979 5.28237 89.2398 5.58705C89.0817 5.89259 89.0023 6.23449 89.0023 6.61275C89.0023 6.99187 89.0867 7.33376 89.2568 7.63847C89.4262 7.94402 89.658 8.18545 89.9515 8.3629C90.2443 8.54035 90.5732 8.62953 90.9347 8.62953C91.5138 8.62953 91.9881 8.33175 92.3581 7.7371H94.0941C93.8233 8.47112 93.4051 9.0398 92.8387 9.44139C92.2723 9.84389 91.6195 10.0447 90.878 10.0447Z" fill="#26366A"/>
<path d="M94.4429 6.62486C94.4429 6.01464 94.5946 5.44423 94.9001 4.9145C95.2042 4.38564 95.6175 3.96411 96.1385 3.65077C96.6595 3.33744 97.2358 3.18164 97.8681 3.18164C98.5004 3.18164 99.0781 3.33658 99.5977 3.64559C100.119 3.95459 100.528 4.37179 100.825 4.89719C101.122 5.42259 101.271 5.99127 101.271 6.6015C101.271 7.23506 101.124 7.81501 100.831 8.34043C100.537 8.86585 100.131 9.2813 99.6098 9.58685C99.0887 9.8924 98.5082 10.0447 97.8681 10.0447C97.25 10.0447 96.68 9.88981 96.1555 9.58076C95.6309 9.27178 95.2141 8.85458 94.9058 8.32916C94.5967 7.80374 94.4429 7.23597 94.4429 6.62486ZM99.7317 6.63698C99.7317 6.28902 99.6509 5.95665 99.4893 5.63985C99.3269 5.32305 99.1029 5.0703 98.818 4.88075C98.5316 4.69119 98.2119 4.59684 97.8568 4.59684C97.5172 4.59684 97.2046 4.68945 96.9196 4.87469C96.634 5.05992 96.4057 5.30921 96.237 5.62254C96.0662 5.93587 95.9818 6.26998 95.9818 6.62573C95.9818 6.98148 96.0633 7.31388 96.2242 7.62286C96.3873 7.93184 96.6127 8.17768 96.9019 8.35863C97.1918 8.54035 97.5129 8.63128 97.8681 8.63128C98.2225 8.63128 98.5415 8.54035 98.8229 8.35863C99.1043 8.17684 99.3269 7.93359 99.4886 7.62804C99.6509 7.32249 99.7317 6.99187 99.7317 6.63698Z" fill="#26366A"/>
<path d="M108.828 4.59684C108.427 4.59684 108.103 4.7362 107.856 5.01405C107.609 5.2919 107.485 5.72555 107.485 6.3124V9.83701H105.946V6.21978C105.946 5.72555 105.836 5.33084 105.617 5.03742C105.397 4.74399 105.082 4.59684 104.672 4.59684C104.248 4.59684 103.936 4.74746 103.735 5.04867C103.535 5.34989 103.435 5.85278 103.435 6.55562V9.8361H101.896V3.40323H103.307V3.94767H103.33C103.486 3.70012 103.708 3.51142 104.002 3.37986C104.295 3.24829 104.631 3.18251 105.009 3.18251C105.394 3.18251 105.748 3.26906 106.068 3.44304C106.388 3.61703 106.652 3.8663 106.861 4.19089C107.115 3.83515 107.412 3.57894 107.752 3.41968C108.091 3.26127 108.484 3.18164 108.932 3.18164C109.41 3.18164 109.846 3.28032 110.239 3.4768C110.632 3.67415 110.946 3.98143 111.183 4.39863C111.418 4.81583 111.536 5.33777 111.536 5.96357V9.83526H109.997V6.21978C109.997 5.70217 109.899 5.30228 109.702 5.02011C109.505 4.73793 109.213 4.59684 108.828 4.59684Z" fill="#26366A"/>
<path d="M65.4416 13.0016L62.991 18.8407H62.4336L60.0013 13.0016H59.9831V18.8407H59.3281V12.2832H60.3366L62.7162 17.8661L65.1046 12.2832H66.113V18.8407H65.458V13.0016H65.4416Z" fill="#26366A"/>
<path d="M69.4017 18.3989C69.7853 18.3989 70.1371 18.2959 70.4585 18.089C70.7799 17.8822 71.0058 17.6043 71.1348 17.2564H71.7898C71.6069 17.7705 71.2957 18.1825 70.8568 18.4924C70.417 18.8022 69.9357 18.9572 69.4103 18.9572C68.9558 18.9572 68.5359 18.8447 68.1496 18.6205C67.7634 18.3963 67.4566 18.089 67.2294 17.6986C67.0021 17.3091 66.8889 16.8833 66.8889 16.4228C66.8889 15.9623 67.0039 15.5365 67.2337 15.147C67.4635 14.7574 67.772 14.4467 68.1583 14.2165C68.5445 13.9862 68.9584 13.8711 69.4008 13.8711C69.8727 13.8711 70.3012 13.9923 70.6883 14.2347C71.0745 14.477 71.3793 14.7973 71.604 15.1963C71.828 15.5953 71.94 16.016 71.94 16.4591L71.9315 16.6453H67.5266C67.5448 16.9586 67.6433 17.2494 67.823 17.5177C68.0028 17.787 68.2343 18.0007 68.5177 18.16C68.8003 18.3192 69.095 18.3989 69.4017 18.3989ZM69.4017 14.4286C69.101 14.4286 68.8176 14.4978 68.5523 14.6372C68.287 14.7765 68.0624 14.9713 67.88 15.2222C67.6969 15.4733 67.5793 15.7615 67.5258 16.0861H71.3028C71.2149 15.5962 70.9944 15.1972 70.6434 14.8899C70.2934 14.5826 69.8795 14.4286 69.4017 14.4286Z" fill="#26366A"/>
<path d="M76.912 17.9918C76.7057 18.2991 76.4363 18.5371 76.1025 18.7051C75.7693 18.873 75.4113 18.9578 75.0278 18.9578C74.5501 18.9578 74.112 18.8453 73.7143 18.6211C73.3159 18.3969 73.0019 18.0914 72.7722 17.7036C72.5426 17.3167 72.4277 16.8839 72.4277 16.4053C72.4277 15.9326 72.5461 15.5033 72.7822 15.1156C73.0175 14.7286 73.3351 14.424 73.7335 14.2033C74.1318 13.9817 74.5628 13.8709 75.0293 13.8709C75.4071 13.8709 75.7636 13.9549 76.0996 14.1236C76.4363 14.2916 76.7071 14.527 76.9141 14.8282H76.9311V12.2852H77.5507V18.8427H76.9311V17.9918H76.912ZM76.9651 16.4234C76.9651 16.0694 76.8794 15.7379 76.7085 15.4306C76.537 15.1234 76.3031 14.8801 76.0046 14.6992C75.7069 14.5192 75.3787 14.4292 75.0179 14.4292C74.6465 14.4292 74.3105 14.5166 74.0099 14.6906C73.7094 14.8646 73.4733 15.1043 73.3018 15.4081C73.1309 15.7128 73.0451 16.0538 73.0451 16.4313C73.0451 16.7974 73.1309 17.1297 73.3018 17.4283C73.4733 17.727 73.7094 17.9633 74.0099 18.1373C74.3105 18.3112 74.6493 18.3987 75.0271 18.3987C75.3801 18.3987 75.7048 18.3104 75.9997 18.133C76.2946 17.9555 76.5285 17.7166 76.7029 17.4154C76.878 17.1142 76.9651 16.7835 76.9651 16.4234Z" fill="#26366A"/>
<path d="M79.1151 12.2852V13.4017H78.4956V12.2852H79.1151ZM79.1151 13.9955V18.8427H78.4956V13.9955H79.1151Z" fill="#26366A"/>
<path d="M84.3253 17.992C84.1247 18.2933 83.8596 18.5295 83.5293 18.701C83.1997 18.8723 82.8367 18.958 82.4419 18.958C81.9641 18.958 81.526 18.8455 81.1284 18.6213C80.73 18.3971 80.416 18.0915 80.1863 17.7038C79.9566 17.3169 79.8418 16.8841 79.8418 16.4054C79.8418 15.9329 79.9602 15.5035 80.1962 15.1158C80.4316 14.7288 80.7491 14.4242 81.1475 14.2035C81.5459 13.9818 81.9769 13.8711 82.4433 13.8711C82.8445 13.8711 83.2096 13.9568 83.5399 14.1281C83.8702 14.2995 84.1325 14.5384 84.3275 14.8457H84.3445V13.9949H84.964V18.842H84.3445V17.992H84.3253ZM84.3778 16.4236C84.3778 16.0696 84.2927 15.7381 84.1212 15.4308C83.9503 15.1235 83.7164 14.8803 83.418 14.6994C83.1203 14.5194 82.7914 14.4293 82.4313 14.4293C82.0655 14.4293 81.7323 14.5168 81.4318 14.6907C81.1312 14.8647 80.893 15.1045 80.7194 15.4083C80.5457 15.713 80.4585 16.054 80.4585 16.4314C80.4585 16.7975 80.5443 17.1316 80.7151 17.4329C80.8867 17.7341 81.1241 17.9704 81.4275 18.1418C81.7302 18.3132 82.0683 18.3988 82.4398 18.3988C82.7935 18.3988 83.1181 18.3106 83.413 18.1331C83.7079 17.9557 83.9418 17.7168 84.1162 17.4155C84.2906 17.1143 84.3778 16.7837 84.3778 16.4236Z" fill="#26366A"/>
<path d="M92.6133 15.8295C92.5658 16.4086 92.3836 16.9374 92.0646 17.4161C91.7471 17.8947 91.3303 18.2713 90.8177 18.5457C90.3045 18.8201 89.7509 18.9577 89.1548 18.9577C88.5593 18.9577 87.9901 18.8096 87.4471 18.5145C86.9048 18.2193 86.4682 17.8116 86.1378 17.2915C85.8082 16.7721 85.6431 16.1956 85.6431 15.5638C85.6431 14.9492 85.8004 14.3823 86.1166 13.8621C86.432 13.3428 86.8581 12.9308 87.3947 12.626C87.9313 12.3222 88.5154 12.1699 89.1463 12.1699C89.6177 12.1699 90.0664 12.2582 90.4903 12.4356C90.9156 12.6131 91.2813 12.8451 91.5869 13.1315C91.8938 13.418 92.1114 13.7176 92.2419 14.0309H91.4805C91.2572 13.6466 90.9305 13.3401 90.5037 13.109C90.0756 12.8788 89.6262 12.7637 89.1548 12.7637C88.6472 12.7637 88.1737 12.8892 87.7349 13.1402C87.2961 13.3912 86.946 13.7314 86.6865 14.159C86.4278 14.5874 86.2973 15.0583 86.2973 15.5724C86.2973 16.0866 86.4285 16.5575 86.6915 16.9859C86.9537 17.4144 87.3053 17.7511 87.7477 17.996C88.19 18.241 88.6685 18.3639 89.1803 18.3639C89.5751 18.3639 89.9572 18.2817 90.3265 18.1154C90.6944 17.9502 91.0113 17.7199 91.2778 17.4239C91.5429 17.1287 91.7265 16.7946 91.8265 16.4224H88.173V15.8287H92.6133V15.8295Z" fill="#26366A"/>
<path d="M93.9765 13.9949V14.6951H93.9949C94.1069 14.4354 94.2678 14.239 94.4769 14.1057C94.6861 13.9724 94.9795 13.8945 95.3574 13.8711V14.5272H95.3488C94.9122 14.5688 94.5748 14.7211 94.3359 14.9834C94.0977 15.2465 93.9772 15.5789 93.9772 15.9805V18.8429H93.3577V13.9958H93.9765V13.9949Z" fill="#26366A"/>
<path d="M95.5332 16.4496C95.5332 15.9831 95.648 15.552 95.8777 15.1556C96.1074 14.76 96.4157 14.4466 96.8021 14.2164C97.1884 13.9862 97.6059 13.8711 98.0546 13.8711C98.514 13.8711 98.9393 13.9879 99.3277 14.2207C99.7169 14.4545 100.025 14.766 100.253 15.1556C100.48 15.5451 100.593 15.9649 100.593 16.4141C100.593 16.8746 100.476 17.3005 100.244 17.6899C100.01 18.0794 99.6992 18.3885 99.3107 18.6161C98.9216 18.8438 98.5026 18.9572 98.0546 18.9572C97.6059 18.9572 97.1884 18.842 96.8021 18.6118C96.4157 18.3815 96.1074 18.0742 95.8777 17.6899C95.648 17.3065 95.5332 16.8928 95.5332 16.4496ZM99.9735 16.3882C99.9735 16.0393 99.8877 15.7164 99.7169 15.4178C99.5454 15.1192 99.3121 14.8803 99.018 14.7002C98.7231 14.5202 98.402 14.4302 98.0532 14.4302C97.7115 14.4302 97.394 14.522 97.1019 14.7046C96.8099 14.8881 96.5781 15.1331 96.4072 15.4404C96.2364 15.7476 96.1506 16.0817 96.1506 16.4418C96.1506 16.7906 96.2364 17.1152 96.4072 17.4165C96.5781 17.7177 96.8106 17.9565 97.1062 18.134C97.401 18.3114 97.72 18.3997 98.0617 18.3997C98.4161 18.3997 98.7387 18.3097 99.0307 18.1297C99.3228 17.9496 99.5524 17.7056 99.7211 17.3983C99.8899 17.091 99.9735 16.7543 99.9735 16.3882Z" fill="#26366A"/>
<path d="M104.918 18.0883C104.782 18.3661 104.58 18.5799 104.312 18.7306C104.044 18.8811 103.733 18.9564 103.38 18.9564C103.007 18.9564 102.664 18.8837 102.348 18.7392C102.033 18.5946 101.776 18.3592 101.579 18.0346C101.381 17.71 101.283 17.2876 101.283 16.7674V13.9941H101.902V16.6964C101.902 17.8304 102.395 18.3981 103.38 18.3981C103.664 18.3981 103.919 18.3315 104.15 18.199C104.38 18.0658 104.563 17.8684 104.699 17.6053C104.834 17.3422 104.903 17.0245 104.903 16.6523V13.9941H105.522V18.8413H104.938V18.0883H104.918Z" fill="#26366A"/>
<path d="M107.076 13.9949V14.8458H107.095C107.319 14.5264 107.592 14.2849 107.913 14.1195C108.235 13.9542 108.59 13.8711 108.98 13.8711C109.462 13.8711 109.902 13.9837 110.297 14.2078C110.692 14.432 111.005 14.7393 111.234 15.1296C111.464 15.5192 111.58 15.945 111.58 16.4055C111.58 16.8781 111.466 17.3083 111.239 17.6952C111.012 18.0821 110.701 18.3894 110.306 18.617C109.911 18.8447 109.469 18.9581 108.978 18.9581C108.595 18.9581 108.238 18.875 107.908 18.7096C107.577 18.5443 107.307 18.3054 107.094 17.9921H107.076V20.5438H106.456V13.9958H107.076V13.9949ZM108.97 14.4286C108.628 14.4286 108.308 14.5168 108.01 14.6943C107.711 14.8717 107.476 15.1141 107.302 15.4213C107.129 15.7286 107.041 16.0627 107.041 16.4228C107.041 16.7777 107.127 17.1066 107.297 17.4113C107.469 17.716 107.702 17.9566 107.997 18.1332C108.291 18.3106 108.619 18.3989 108.978 18.3989C109.356 18.3989 109.695 18.3115 109.995 18.1375C110.296 17.9635 110.532 17.7272 110.703 17.4286C110.874 17.1299 110.96 16.7985 110.96 16.4315C110.96 16.0593 110.876 15.7208 110.708 15.417C110.54 15.1132 110.303 14.8717 110 14.6951C109.696 14.5177 109.353 14.4286 108.97 14.4286Z" fill="#26366A"/>
</svg>
