<svg width="112" height="41" viewBox="0 0 112 41" fill="none" xmlns="http://www.w3.org/2000/svg">
<g clip-path="url(#clip0)">
<path d="M112 10.5863H107.3V4.28122H100.695V7.08755C100.695 9.09206 99.4785 10.6228 96.9666 10.6228H90.7264V8.98273C90.7264 6.57731 92.5498 6.06707 93.887 6.06707C95.0621 6.06707 95.6699 6.21285 96.0752 6.28574V0.891764C95.3863 0.600198 94.0896 0.417969 92.5904 0.417969C86.7148 0.417969 83.3921 3.80743 83.3921 8.8005V10.6593H74.5991L69.2908 22.1761L63.4153 10.5863H51.0968L47.0853 23.4518L42.3848 10.5863H34.5643L29.8233 23.4152L25.8118 10.5863H18.1533L25.7307 32.2351H33.1866L38.3328 18.24L43.5599 32.2351H50.8943L57.1344 14.1216L65.3198 29.3194L59.8494 40.5813H67.5888L79.6641 16.1625H83.3516V32.2351H90.7264V16.1625H100.046V25.6749C100.046 29.9755 103.085 32.6361 108.11 32.6361C110.419 32.6361 111.635 32.1622 111.919 32.0165V26.5496C111.473 26.6225 110.743 26.7683 109.974 26.7683C108.393 26.7683 107.3 26.2945 107.3 24.5087V16.199H112V10.5863Z" fill="#FF6D0F"/>
<path d="M12.2779 18.7879L9.0767 18.2049C8.02316 18.0226 7.17222 17.5123 7.17222 16.6012C7.17222 15.4713 8.38785 14.7425 9.80608 14.7425C12.0347 14.7425 13.2909 15.9452 13.4934 17.403L19.6122 16.3825C19.369 13.8677 16.6947 9.93164 9.72504 9.93164C4.33575 9.93164 0.486252 13.1388 0.486252 17.1114C0.486252 20.1729 2.5123 22.7605 7.65846 23.781L10.4139 24.3641C12.1968 24.7286 12.8046 25.3846 12.8046 26.15C12.8046 27.0976 11.8727 28.0087 10.0087 28.0087C7.49639 28.0087 6.32127 26.5873 6.24023 25.0931L0 26.1136C0.202605 28.519 2.63387 32.9289 10.1708 32.9289C16.6136 32.9289 19.7743 29.3207 19.7743 25.6033C19.6932 22.396 17.3024 19.6991 12.2779 18.7879Z" fill="#FF6D0F"/>
</g>
<defs>
<clipPath id="clip0">
<rect width="112" height="41" fill="white"/>
</clipPath>
</defs>
</svg>
