<svg width="112" height="21" viewBox="0 0 112 21" fill="none" xmlns="http://www.w3.org/2000/svg">
<path d="M105.243 15.6187C105.213 15.849 105.126 16.4547 104.339 16.5335H97.4214C96.6339 16.4547 96.4895 15.849 96.4601 15.6187V4.91985C96.4895 4.68903 96.5987 4.1984 97.3863 4.11972H104.342C105.13 4.1984 105.213 4.68903 105.243 4.91985V15.6187ZM107.638 0.0886564H94.065C92.0253 0.253488 90.303 1.28969 90.0732 3.60782V16.8537C90.303 19.1719 92.0253 20.3999 94.065 20.5648H107.638C109.677 20.3999 111.4 19.1719 111.63 16.8537V3.60782C111.4 1.28969 109.677 0.253488 107.638 0.0886564ZM52.7077 4.11972H46.6397V0.0886564H65.1629V4.11972H59.0949V20.5648H52.7077V4.11972ZM44.7238 4.11972V0.0886564H28.1168V20.5648L44.9446 20.5604L44.9506 16.5338H34.5202L34.5212 12.1482H44.7237V8.12702H34.5212V4.11972H44.7237L44.7238 4.11972ZM81.7694 7.29346C81.7694 7.73663 81.6596 8.12535 80.8655 8.12535H73.4664V4.10619H80.8756C81.7766 4.10619 81.7694 4.69704 81.7694 5.06591V7.29346ZM83.5392 12.6048C85.5315 12.445 87.5181 11.0863 87.5181 8.85485V3.79971C87.2869 1.49235 85.5588 0.246311 83.5105 0.0820312H67.0789L67.0794 20.5648H73.4664V12.6048H76.0086L80.1598 20.5648H87.5051L82.5613 12.6048H83.5392ZM14.8955 20.5648L19.1749 7.70325V20.5648H25.5621V0.0886564H16.9395L12.7878 10.327L8.63595 0.0886564H0.0134277V20.5648H6.40065V7.70325L10.7117 20.5648H14.8955Z" fill="#FBC51D"/>
</svg>
