<svg width="112" height="50" viewBox="0 0 112 50" fill="none" xmlns="http://www.w3.org/2000/svg">
<path d="M2.80933 22.858V11.3045H5.00938V22.858H2.80933ZM8.23761 15.5789H8.26865C8.79913 14.8362 9.81287 14.4072 10.734 14.4072C11.7157 14.4072 12.5579 14.8198 13.0269 15.5789C13.683 14.9193 14.6964 14.4239 15.6179 14.4072C17.3787 14.3905 18.3011 15.5302 18.3324 17.4273V22.8412H16.2563V17.8241C16.2563 16.867 15.9443 15.8768 14.9158 15.8768C13.9173 15.8768 13.2936 16.5032 13.2936 17.9386V22.8577H11.2177V17.8241C11.2177 16.6691 10.7342 15.8768 9.84474 15.8768C8.86128 15.8768 8.25385 16.5857 8.25385 17.9889V22.858H6.17801V14.6055H8.23761V15.5789ZM23.5508 15.7282C24.7353 15.7282 25.3285 17.1478 25.3285 18.5668C25.3285 20.0193 24.8613 21.7355 23.4736 21.7355C22.3496 21.7355 21.5539 20.5638 21.5539 18.8308C21.5536 16.9325 22.2402 15.7282 23.5508 15.7282ZM21.5536 14.6055H19.4795V26.985H21.5536V21.8345C22.1317 22.562 22.9413 23.0556 23.8926 23.0556C26.1243 23.0556 27.5283 20.7294 27.5283 18.5504C27.5283 16.7345 26.5306 14.4075 24.0812 14.4075C23.1451 14.4075 22.1313 14.903 21.5846 15.744H21.5536V14.6055ZM30.5016 17.7409C30.486 16.6371 31.0156 15.6289 32.2019 15.6289C33.231 15.6289 33.6527 16.487 33.5743 17.7409H30.5016ZM35.5265 18.9292C35.6806 16.4705 34.6666 14.4072 32.2333 14.4072C30.0022 14.4072 28.2552 16.0248 28.2552 18.5668C28.2552 21.2907 30.0173 23.0553 32.3737 23.0553C33.2626 23.0553 34.3704 22.7913 35.4313 22.1317L34.8382 20.9767C34.3242 21.3555 33.5117 21.6375 32.7481 21.6375C31.4532 21.6375 30.4242 20.4813 30.4715 18.9289L35.5265 18.9292ZM38.5866 16.0576H38.6176L39.0381 15.4142C39.2877 15.0668 39.7404 14.4072 40.3797 14.4072C40.8481 14.4072 41.3467 14.6718 41.7843 15.1495L41.0045 16.6691C40.6615 16.487 40.4427 16.3877 40.0216 16.3877C39.3042 16.3877 38.6014 16.9986 38.6014 18.7809V22.858H36.526V14.6055H38.5862L38.5866 16.0576ZM44.5235 14.6055V22.8583H42.4494V14.6055H44.5235ZM42.2468 12.1307C42.2468 11.5021 42.746 10.8596 43.448 10.8596C44.1653 10.8596 44.7272 11.4866 44.7272 12.1307C44.7272 12.8395 44.2425 13.5159 43.4779 13.5159C42.746 13.5159 42.2468 12.8395 42.2468 12.1307ZM50.1587 18.0717C50.3146 20.4971 49.2394 21.5873 48.4123 21.5873C47.9131 21.5873 47.4749 21.0924 47.4749 20.3655C47.4749 19.4252 47.9906 18.7985 49.0043 18.4673L50.1587 18.0717ZM50.1282 21.653C50.1282 22.0985 50.1744 22.5772 50.3299 22.858H52.5303C52.2801 22.28 52.2024 21.5044 52.2024 20.8443V17.4779C52.2024 14.9026 50.4402 14.4072 49.0046 14.4072C47.9285 14.4072 46.9775 14.688 46.0088 15.5302L46.6795 16.5698C47.2265 16.0744 47.8508 15.7282 48.7408 15.7282C49.4114 15.7282 50.0502 16.2068 50.1593 16.9657L48.318 17.543C46.5079 18.0872 45.4318 18.9788 45.4318 20.5477C45.4318 22.0648 46.4455 23.055 47.6624 23.055C48.3803 23.055 49.0838 22.544 49.6607 22.0648L50.1282 21.653ZM53.4976 22.858V10.7266H55.5713V22.8583L53.4976 22.858ZM69.2644 13.4005C68.7323 13.103 67.844 12.757 67.0007 12.757C64.7548 12.757 63.1334 14.4242 63.1334 17.0488C63.1334 19.7888 64.9274 21.4061 67.0637 21.4061C67.907 21.4061 68.6862 21.1582 69.2644 20.8281L69.8728 22.2645C69.2022 22.6771 68.0318 23.0562 66.9708 23.0562C63.1787 23.0562 60.792 20.4155 60.792 17.0166C60.792 13.8636 63.1642 11.1072 67.0007 11.1072C68.1403 11.1072 69.2022 11.5366 69.9495 11.9988L69.2644 13.4005Z" fill="#1A3E70"/>
<path d="M73.9884 21.8345C72.5062 21.8345 72.101 20.0854 72.101 18.6329C72.101 17.2632 72.5684 15.6289 73.9884 15.6289C75.4396 15.6289 75.8918 17.2632 75.8918 18.6329C75.8918 20.0854 75.5025 21.8345 73.9884 21.8345ZM73.9884 23.0556C76.4393 23.0556 78.0903 21.1917 78.0903 18.6332C78.0903 15.9593 76.095 14.4075 73.9884 14.4075C71.8978 14.4075 69.9018 15.9593 69.9018 18.6332C69.9018 21.1917 71.5556 23.0556 73.9884 23.0556ZM78.9856 22.858V10.7266H81.0617V22.8583L78.9856 22.858ZM82.3691 22.858V10.7266H84.4432V22.8583L82.3691 22.858ZM87.5536 17.741C87.5363 16.6371 88.0666 15.6289 89.2523 15.6289C90.2831 15.6289 90.7034 16.487 90.626 17.741H87.5536ZM92.5763 18.9292C92.7325 16.4705 91.719 14.4072 89.2847 14.4072C87.0537 14.4072 85.3046 16.0248 85.3046 18.5668C85.3046 21.2907 87.0676 23.0553 89.4251 23.0553C90.3135 23.0553 91.421 22.7913 92.4837 22.1317L91.8905 20.9767C91.3761 21.3555 90.5638 21.6375 89.7998 21.6375C88.5056 21.6375 87.4748 20.4813 87.5218 18.9289L92.5763 18.9292ZM104.497 17.741C104.482 16.6371 105.012 15.6289 106.198 15.6289C107.227 15.6289 107.65 16.487 107.572 17.741H104.497ZM109.521 18.9292C109.676 16.4705 108.664 14.4072 106.23 14.4072C103.998 14.4072 102.251 16.0248 102.251 18.5668C102.251 21.2907 104.013 23.0553 106.37 23.0553C107.26 23.0553 108.368 22.7913 109.428 22.1317L108.836 20.9767C108.321 21.3555 107.51 21.6375 106.745 21.6375C105.449 21.6375 104.421 20.4813 104.467 18.9289L109.521 18.9292ZM97.4262 15.7282C98.6748 15.7282 99.3136 17.0652 99.3136 18.5007C99.3136 20.1511 98.7204 21.7355 97.3315 21.7355C96.1306 21.7355 95.5388 20.1838 95.5388 18.5827C95.5381 16.9825 96.0842 15.7282 97.4262 15.7282ZM101.389 14.6055H99.3136V15.6125H99.2825C98.8455 14.8698 97.9087 14.4075 96.9574 14.4075C94.8357 14.4075 93.3382 16.4873 93.3382 18.6332C93.3382 21.2739 94.696 23.0556 96.7708 23.0556C97.9578 23.0556 98.7674 22.3628 99.2825 21.6692H99.3136V22.7587C99.3136 24.6732 98.253 25.5648 96.8793 25.5648C95.8188 25.5648 94.929 25.3501 94.1657 24.855L93.7592 26.2079C94.6801 26.7027 95.8665 26.985 97.0356 26.985C99.3606 26.985 101.389 25.7795 101.389 22.1156V14.6055ZM2.80933 27.8105H5.02535V37.811H9.68891V39.3628H2.80933V27.8105ZM21.8632 32.0841C22.6033 31.2917 23.6359 30.9117 24.6709 30.9117C26.5918 30.9117 27.5118 31.9686 27.5118 34.0479V39.3625H25.4267V34.2957C25.4267 33.1414 24.9175 32.3822 23.7844 32.3822C22.716 32.3822 21.8794 33.0908 21.8794 34.444V39.3625H19.7941V31.1109H21.8634L21.8632 32.0841ZM32.9113 32.2339C34.2255 32.2339 34.8982 33.571 34.8982 35.0055C34.8982 36.6572 34.2755 38.2404 32.8125 38.2404C31.549 38.2404 30.9251 36.6892 30.9251 35.0881C30.9251 33.4873 31.5002 32.2339 32.9113 32.2339ZM34.8982 39.3628H36.9838V27.2329H34.8982V32.0689H34.8651C34.3727 31.3414 33.4212 30.912 32.3539 30.912C30.1527 30.912 28.6097 32.9921 28.6097 35.1377C28.6097 37.7778 30.0376 39.5598 32.1892 39.5598C33.47 39.5598 34.3236 38.8673 34.8651 38.1734H34.8979L34.8982 39.3628ZM42.4023 38.3384C40.8436 38.3384 40.4149 36.5899 40.4149 35.1374C40.4149 33.768 40.907 32.134 42.4023 32.134C43.9303 32.134 44.4052 33.768 44.4052 35.1374C44.4052 36.5899 43.9959 38.3384 42.4023 38.3384ZM42.4023 39.5598C44.98 39.5598 46.7199 37.6947 46.7199 35.1377C46.7199 32.4653 44.6192 30.912 42.4023 30.912C40.202 30.912 38.1001 32.4653 38.1001 35.1377C38.1001 37.6947 39.8409 39.5598 42.4023 39.5598ZM49.9224 32.0841C50.6617 31.2917 51.6958 30.9117 52.7296 30.9117C54.6507 30.9117 55.5707 31.9686 55.5707 34.0479V39.3625H53.4857V34.2957C53.4857 33.1414 52.9765 32.3822 51.8427 32.3822C50.7765 32.3822 49.9384 33.0908 49.9384 34.444V39.3625H47.8531V31.1109H49.9221L49.9224 32.0841ZM14.3072 38.3384C12.746 38.3384 12.3201 36.5899 12.3201 35.1374C12.3201 33.768 12.8122 32.134 14.3072 32.134C15.8343 32.134 16.3104 33.768 16.3104 35.1374C16.3107 36.5899 15.899 38.3384 14.3072 38.3384ZM14.3072 39.5598C16.8846 39.5598 18.6252 37.6947 18.6252 35.1377C18.6252 32.4653 16.5233 30.912 14.3072 30.912C12.1067 30.912 10.0051 32.4653 10.0051 35.1377C10.0053 37.6947 11.745 39.5598 14.3072 39.5598Z" fill="#1A3E70"/>
</svg>
