<svg width="563" height="412" viewBox="0 0 563 412" fill="none" xmlns="http://www.w3.org/2000/svg">
<g clip-path="url(#clip0)">
<path d="M488.299 202.098H124.529C119.251 202.091 114.191 199.375 110.459 194.548C106.726 189.721 104.627 183.175 104.621 176.348V25.75C104.627 18.923 106.726 12.3779 110.459 7.55052C114.191 2.72313 119.251 0.00771172 124.529 0H488.299C493.577 0.00771172 498.637 2.72313 502.369 7.55052C506.102 12.3779 508.201 18.923 508.207 25.75V176.348C508.201 183.175 506.102 189.721 502.369 194.548C498.637 199.375 493.577 202.091 488.299 202.098Z" fill="#E6E6E6"/>
<path d="M125.132 10.1439C121.933 10.1486 118.867 11.7944 116.605 14.72C114.343 17.6457 113.071 21.6124 113.067 25.75V176.348C113.071 180.486 114.343 184.453 116.605 187.378C118.867 190.304 121.933 191.95 125.132 191.955H488.902C492.101 191.95 495.168 190.304 497.43 187.378C499.692 184.453 500.964 180.486 500.968 176.348V25.75C500.964 21.6124 499.692 17.6457 497.43 14.72C495.168 11.7943 492.101 10.1486 488.902 10.1439H125.132Z" fill="white"/>
<path d="M170.765 73.1448C168.151 73.1448 165.596 72.1422 163.423 70.2639C161.249 68.3856 159.556 65.716 158.555 62.5925C157.555 59.469 157.293 56.032 157.803 52.7161C158.313 49.4002 159.572 46.3543 161.42 43.9637C163.268 41.5731 165.623 39.9451 168.187 39.2855C170.75 38.6259 173.407 38.9644 175.822 40.2582C178.237 41.552 180.301 43.743 181.753 46.5541C183.205 49.3651 183.981 52.67 183.981 56.0509C183.977 60.5829 182.583 64.9279 180.105 68.1325C177.628 71.3372 174.269 73.1397 170.765 73.1448ZM170.765 41.2362C168.5 41.2362 166.285 42.1051 164.402 43.7329C162.518 45.3608 161.05 47.6745 160.183 50.3816C159.316 53.0886 159.09 56.0673 159.531 58.9411C159.973 61.8149 161.064 64.4546 162.666 66.5265C164.268 68.5984 166.309 70.0093 168.53 70.5809C170.752 71.1526 173.055 70.8592 175.148 69.7379C177.241 68.6166 179.03 66.7178 180.288 64.2815C181.547 61.8453 182.218 58.981 182.218 56.0509C182.215 52.1232 181.007 48.3576 178.86 45.5803C176.713 42.8029 173.802 41.2407 170.765 41.2362Z" fill="#CCCCCC"/>
<path d="M170.472 52.1714H170.448L169.053 53.1452L168.844 52.0757L170.596 50.8627H171.522V61.2391H170.472V52.1714Z" fill="#CCCCCC"/>
<path d="M152.724 100.741C153.035 100.755 153.342 100.647 153.605 100.432C153.869 100.217 154.076 99.9049 154.2 99.5355C154.324 99.1662 154.359 98.757 154.301 98.3613C154.243 97.9656 154.094 97.6017 153.874 97.3169C153.654 97.0321 153.373 96.8396 153.067 96.7645C152.761 96.6893 152.445 96.735 152.159 96.8956C151.873 97.0561 151.632 97.3241 151.466 97.6647C151.299 98.0052 151.216 98.4026 151.227 98.8052C151.241 99.313 151.403 99.7952 151.68 100.154C151.958 100.514 152.331 100.723 152.724 100.741Z" fill="#E6E6E6"/>
<path d="M152.724 113.276C153.035 113.29 153.342 113.183 153.605 112.968C153.869 112.753 154.076 112.44 154.2 112.071C154.324 111.702 154.359 111.293 154.301 110.897C154.243 110.501 154.094 110.137 153.874 109.852C153.654 109.568 153.373 109.375 153.067 109.3C152.761 109.225 152.445 109.271 152.159 109.431C151.873 109.592 151.632 109.86 151.466 110.2C151.299 110.541 151.216 110.938 151.227 111.341C151.241 111.848 151.403 112.331 151.68 112.69C151.958 113.049 152.331 113.259 152.724 113.276Z" fill="#E6E6E6"/>
<path d="M152.724 125.812C153.035 125.826 153.342 125.718 153.605 125.503C153.869 125.288 154.076 124.976 154.2 124.607C154.324 124.237 154.359 123.828 154.301 123.432C154.243 123.037 154.094 122.673 153.874 122.388C153.654 122.103 153.373 121.911 153.067 121.836C152.761 121.76 152.445 121.806 152.159 121.967C151.873 122.127 151.632 122.395 151.466 122.736C151.299 123.076 151.216 123.474 151.227 123.876C151.241 124.384 151.403 124.866 151.68 125.226C151.958 125.585 152.331 125.794 152.724 125.812Z" fill="#E6E6E6"/>
<path d="M189.422 99.8753H161.229C160.995 99.8753 160.771 99.7552 160.606 99.5415C160.44 99.3278 160.348 99.0379 160.348 98.7357C160.348 98.4334 160.44 98.1436 160.606 97.9299C160.771 97.7161 160.995 97.5961 161.229 97.5961H189.422C189.656 97.5961 189.88 97.7161 190.045 97.9299C190.21 98.1436 190.303 98.4334 190.303 98.7357C190.303 99.0379 190.21 99.3278 190.045 99.5415C189.88 99.7552 189.656 99.8753 189.422 99.8753H189.422Z" fill="#E6E6E6"/>
<path d="M189.422 112.411H161.229C160.995 112.411 160.771 112.291 160.605 112.078C160.44 111.864 160.347 111.575 160.347 111.272C160.346 110.97 160.439 110.68 160.604 110.466C160.769 110.252 160.993 110.132 161.227 110.132H189.422C189.656 110.131 189.88 110.251 190.045 110.465C190.211 110.678 190.304 110.968 190.304 111.27C190.304 111.572 190.212 111.862 190.046 112.076C189.881 112.29 189.657 112.41 189.424 112.411H189.422Z" fill="#E6E6E6"/>
<path d="M189.422 124.946H161.229C160.995 124.946 160.771 124.826 160.606 124.613C160.44 124.399 160.348 124.109 160.348 123.807C160.348 123.504 160.44 123.215 160.606 123.001C160.771 122.787 160.995 122.667 161.229 122.667H189.422C189.538 122.667 189.652 122.696 189.759 122.753C189.866 122.811 189.963 122.894 190.045 123C190.127 123.106 190.192 123.231 190.237 123.369C190.281 123.508 190.304 123.656 190.304 123.805C190.304 123.955 190.281 124.103 190.237 124.242C190.193 124.38 190.128 124.506 190.047 124.612C189.965 124.718 189.868 124.802 189.761 124.859C189.654 124.917 189.54 124.946 189.424 124.946H189.422Z" fill="#E6E6E6"/>
<path d="M252.623 70.804C250.009 70.804 247.454 69.8014 245.281 67.9231C243.108 66.0448 241.414 63.3751 240.414 60.2516C239.413 57.1281 239.152 53.6911 239.662 50.3752C240.172 47.0593 241.43 44.0135 243.278 41.6229C245.127 39.2323 247.482 37.6042 250.045 36.9447C252.609 36.2851 255.266 36.6236 257.681 37.9174C260.096 39.2112 262.16 41.4022 263.612 44.2132C265.064 47.0243 265.839 50.3292 265.839 53.7101C265.839 55.9549 265.497 58.1777 264.833 60.2516C264.169 62.3256 263.195 64.21 261.968 65.7973C260.741 67.3846 259.284 68.6437 257.681 69.5028C256.077 70.3618 254.359 70.804 252.623 70.804ZM252.623 38.8954C250.358 38.8954 248.144 39.7643 246.26 41.3921C244.377 43.02 242.908 45.3337 242.042 48.0407C241.175 50.7478 240.948 53.7265 241.39 56.6003C241.832 59.4741 242.923 62.1138 244.524 64.1857C246.126 66.2575 248.167 67.6685 250.389 68.2401C252.611 68.8118 254.913 68.5184 257.006 67.3971C259.099 66.2758 260.888 64.377 262.147 61.9407C263.405 59.5045 264.077 56.6402 264.077 53.7101V53.7101C264.073 49.7824 262.865 46.0168 260.718 43.2395C258.571 40.4622 255.66 38.8999 252.623 38.8954V38.8954Z" fill="#CCCCCC"/>
<path d="M250.286 58.9862V58.1237L251.137 57.0542C253.186 54.5324 254.112 53.1903 254.124 51.6267C254.146 51.3508 254.119 51.072 254.047 50.811C253.974 50.55 253.857 50.3135 253.704 50.1189C253.552 49.9243 253.367 49.7766 253.164 49.6869C252.961 49.5971 252.745 49.5674 252.532 49.6001C251.903 49.6301 251.301 49.9398 250.829 50.4771L250.483 49.4877C251.12 48.8015 251.925 48.4283 252.754 48.4338C253.073 48.3971 253.395 48.4487 253.697 48.5852C254 48.7216 254.276 48.9398 254.509 49.2252C254.741 49.5106 254.923 49.8566 255.044 50.2404C255.165 50.6241 255.222 51.0368 255.21 51.4509C255.21 53.3661 254.136 54.9153 252.445 57.0219L251.803 57.7887V57.8199H255.408V58.9862H250.286Z" fill="#CCCCCC"/>
<path d="M287.613 162.276H217.634C216.195 162.274 214.815 161.533 213.797 160.217C212.779 158.9 212.206 157.115 212.205 155.253V101.412C212.206 99.5504 212.779 97.7654 213.797 96.4488C214.814 95.1322 216.195 94.3917 217.634 94.3895H287.613C289.053 94.3917 290.433 95.1322 291.45 96.4488C292.468 97.7654 293.041 99.5504 293.042 101.412V155.253C293.041 157.115 292.468 158.9 291.45 160.217C290.433 161.533 289.053 162.274 287.613 162.276Z" fill="white"/>
<path d="M276.411 108.96H228.835C228.601 108.96 228.377 108.84 228.212 108.627C228.046 108.413 227.953 108.124 227.953 107.821C227.953 107.519 228.045 107.229 228.211 107.015C228.376 106.801 228.6 106.681 228.833 106.681H276.411C276.645 106.68 276.869 106.8 277.035 107.013C277.2 107.227 277.293 107.517 277.293 107.819C277.294 108.121 277.201 108.411 277.036 108.625C276.871 108.839 276.647 108.959 276.413 108.96H276.411Z" fill="#E6E6E6"/>
<path d="M276.411 119.216H228.835C228.601 119.216 228.377 119.097 228.212 118.883C228.046 118.67 227.953 118.38 227.953 118.078C227.953 117.775 228.045 117.485 228.211 117.271C228.376 117.057 228.6 116.937 228.833 116.937H276.411C276.645 116.937 276.869 117.057 277.034 117.271C277.199 117.484 277.292 117.774 277.292 118.076C277.292 118.379 277.199 118.668 277.034 118.882C276.869 119.096 276.645 119.216 276.411 119.216H276.411Z" fill="#E6E6E6"/>
<path d="M276.411 129.472H228.835C228.601 129.473 228.377 129.353 228.212 129.139C228.046 128.926 227.953 128.636 227.953 128.334C227.953 128.032 228.045 127.742 228.211 127.528C228.376 127.314 228.6 127.193 228.833 127.193H276.411C276.645 127.193 276.869 127.313 277.035 127.526C277.2 127.74 277.293 128.029 277.293 128.331C277.294 128.634 277.201 128.924 277.036 129.138C276.871 129.352 276.647 129.472 276.413 129.472H276.411Z" fill="#E6E6E6"/>
<path d="M276.412 139.729H228.835C228.602 139.728 228.378 139.608 228.214 139.395C228.049 139.181 227.956 138.892 227.956 138.59C227.955 138.288 228.048 137.999 228.212 137.785C228.377 137.571 228.6 137.451 228.834 137.449H276.412C276.645 137.45 276.868 137.571 277.033 137.784C277.198 137.998 277.29 138.287 277.29 138.589C277.29 138.891 277.198 139.18 277.033 139.394C276.868 139.607 276.645 139.728 276.412 139.729H276.412Z" fill="#E6E6E6"/>
<path d="M276.411 149.985H228.835C228.601 149.985 228.377 149.865 228.212 149.651C228.047 149.437 227.954 149.148 227.954 148.845C227.954 148.543 228.047 148.253 228.212 148.04C228.377 147.826 228.601 147.706 228.835 147.706H276.411C276.645 147.705 276.869 147.825 277.035 148.039C277.2 148.252 277.293 148.542 277.293 148.844C277.294 149.146 277.201 149.436 277.036 149.65C276.871 149.864 276.647 149.985 276.413 149.985H276.411Z" fill="#E6E6E6"/>
<path d="M287.613 162.276H217.634C216.195 162.274 214.815 161.533 213.797 160.217C212.779 158.9 212.206 157.115 212.205 155.253V101.412C212.206 99.5504 212.779 97.7654 213.797 96.4488C214.814 95.1322 216.195 94.3917 217.634 94.3895H287.613C289.053 94.3917 290.433 95.1322 291.45 96.4488C292.468 97.7654 293.041 99.5504 293.042 101.412V155.253C293.041 157.115 292.468 158.9 291.45 160.217C290.433 161.533 289.053 162.274 287.613 162.276ZM217.634 95.9501C216.514 95.9518 215.441 96.5277 214.649 97.5517C213.858 98.5757 213.412 99.9641 213.411 101.412V155.253C213.412 156.701 213.858 158.09 214.649 159.114C215.441 160.138 216.514 160.714 217.634 160.715H287.613C288.733 160.714 289.806 160.138 290.598 159.114C291.389 158.09 291.835 156.701 291.836 155.253V101.412C291.835 99.9641 291.389 98.5757 290.598 97.5517C289.806 96.5277 288.733 95.9518 287.613 95.9501H217.634Z" fill="#E6E6E6"/>
<path d="M341.166 70.804C338.552 70.804 335.997 69.8014 333.824 67.9231C331.65 66.0448 329.956 63.3751 328.956 60.2516C327.956 57.1281 327.694 53.6911 328.204 50.3752C328.714 47.0593 329.973 44.0135 331.821 41.6229C333.669 39.2323 336.024 37.6042 338.588 36.9447C341.151 36.2851 343.808 36.6236 346.223 37.9174C348.638 39.2112 350.702 41.4022 352.154 44.2132C353.606 47.0243 354.381 50.3292 354.381 53.7101C354.381 58.2437 352.989 62.5916 350.511 65.7973C348.032 69.003 344.671 70.804 341.166 70.804ZM341.166 38.8954C338.9 38.8954 336.686 39.7643 334.803 41.3921C332.919 43.02 331.451 45.3337 330.584 48.0407C329.717 50.7478 329.49 53.7265 329.932 56.6003C330.374 59.4741 331.465 62.1138 333.067 64.1857C334.669 66.2575 336.709 67.6685 338.931 68.2401C341.153 68.8118 343.456 68.5184 345.549 67.3971C347.642 66.2758 349.43 64.377 350.689 61.9407C351.948 59.5045 352.619 56.6402 352.619 53.7101V53.7101C352.616 49.7824 351.408 46.0169 349.261 43.2396C347.114 40.4622 344.202 38.9 341.166 38.8954V38.8954Z" fill="#CCCCCC"/>
<path d="M338.957 57.2855C339.496 57.6978 340.108 57.9232 340.734 57.9399C342.129 57.9399 342.561 56.7903 342.548 55.9289C342.536 54.4755 341.524 53.8534 340.476 53.8534H339.87V52.7995H340.476C341.265 52.7995 342.265 52.2731 342.265 51.0434C342.265 50.2131 341.857 49.4787 340.858 49.4787C340.283 49.4996 339.725 49.7388 339.254 50.1664L338.97 49.1448C339.594 48.6189 340.323 48.3411 341.068 48.3458C342.647 48.3458 343.363 49.5588 343.363 50.8208C343.355 51.3807 343.206 51.9219 342.938 52.3625C342.671 52.8031 342.3 53.119 341.882 53.2625V53.2948C342.377 53.3876 342.831 53.7078 343.159 54.1971C343.488 54.6864 343.67 55.3121 343.671 55.9601C343.671 57.6205 342.671 59.0739 340.747 59.0739C340.015 59.0862 339.295 58.8432 338.661 58.3706L338.957 57.2855Z" fill="#CCCCCC"/>
<path d="M321.639 147.237C321.95 147.251 322.257 147.144 322.52 146.929C322.784 146.714 322.991 146.401 323.115 146.032C323.239 145.662 323.274 145.253 323.216 144.858C323.158 144.462 323.009 144.098 322.789 143.813C322.569 143.528 322.288 143.336 321.982 143.261C321.676 143.186 321.36 143.231 321.074 143.392C320.788 143.552 320.547 143.82 320.381 144.161C320.214 144.502 320.131 144.899 320.142 145.301C320.156 145.809 320.318 146.292 320.595 146.651C320.873 147.01 321.246 147.22 321.639 147.237Z" fill="#E6E6E6"/>
<path d="M358.337 146.372H330.144C329.91 146.372 329.686 146.252 329.521 146.038C329.356 145.824 329.263 145.534 329.263 145.232C329.263 144.93 329.356 144.64 329.521 144.426C329.686 144.213 329.91 144.093 330.144 144.093H358.337C358.453 144.092 358.567 144.122 358.674 144.179C358.781 144.236 358.878 144.32 358.96 144.425C359.042 144.531 359.107 144.657 359.152 144.795C359.196 144.933 359.219 145.081 359.219 145.231C359.219 145.381 359.196 145.529 359.152 145.667C359.108 145.805 359.043 145.931 358.962 146.037C358.88 146.143 358.783 146.227 358.676 146.285C358.569 146.342 358.455 146.372 358.339 146.372H358.337Z" fill="#E6E6E6"/>
<path d="M365.9 131.064H316.432C315.312 131.062 314.239 130.486 313.447 129.462C312.656 128.438 312.21 127.05 312.209 125.602V99.8516C312.21 98.4035 312.656 97.0151 313.447 95.9911C314.239 94.9671 315.312 94.3911 316.432 94.3895H365.9C367.019 94.3911 368.093 94.9671 368.884 95.9911C369.676 97.0151 370.121 98.4035 370.123 99.8516V125.602C370.121 127.05 369.676 128.438 368.884 129.462C368.093 130.486 367.019 131.062 365.9 131.064ZM316.432 95.9501C315.632 95.9513 314.865 96.3628 314.3 97.0942C313.735 97.8256 313.416 98.8173 313.416 99.8516V125.602C313.416 126.636 313.735 127.628 314.3 128.359C314.865 129.091 315.632 129.502 316.432 129.503H365.9C366.699 129.502 367.466 129.091 368.032 128.359C368.597 127.628 368.915 126.636 368.916 125.602V99.8516C368.915 98.8173 368.597 97.8256 368.032 97.0942C367.466 96.3628 366.699 95.9513 365.9 95.9501H316.432Z" fill="#E6E6E6"/>
<path d="M368.39 96.0798L313.525 128.065L314.021 129.488L368.886 97.5024L368.39 96.0798Z" fill="#E6E6E6"/>
<path d="M314.251 95.6834L313.748 97.1016L368.308 129.484L368.811 128.066L314.251 95.6834Z" fill="#E6E6E6"/>
<path d="M406.543 113.78C406.509 113.689 406.466 113.605 406.415 113.529V113.529L399.807 104.982C399.725 104.876 399.628 104.792 399.521 104.735C399.414 104.677 399.3 104.648 399.184 104.647C399.068 104.647 398.953 104.677 398.846 104.734C398.739 104.791 398.642 104.875 398.56 104.981C398.478 105.087 398.413 105.213 398.369 105.351C398.325 105.49 398.302 105.638 398.302 105.788C398.302 105.937 398.325 106.086 398.37 106.224C398.414 106.362 398.479 106.488 398.561 106.594L403.665 113.195H381.123C380.889 113.195 380.665 113.315 380.5 113.529C380.335 113.743 380.242 114.033 380.242 114.335C380.242 114.637 380.335 114.927 380.5 115.141C380.665 115.354 380.889 115.475 381.123 115.475H403.665L399.002 121.506C398.919 121.612 398.854 121.738 398.81 121.876C398.765 122.014 398.742 122.163 398.742 122.313C398.742 122.462 398.765 122.611 398.809 122.749C398.853 122.888 398.918 123.014 399 123.12C399.082 123.226 399.179 123.31 399.286 123.367C399.394 123.424 399.508 123.454 399.624 123.453C399.74 123.453 399.855 123.424 399.962 123.366C400.069 123.308 400.166 123.224 400.247 123.118L406.414 115.142L406.415 115.141C406.549 114.964 406.635 114.735 406.658 114.488C406.681 114.242 406.641 113.993 406.543 113.78Z" fill="#CCCCCC"/>
<path d="M462.808 91.3807H462.395V76.7501C462.395 75.6381 462.226 74.537 461.897 73.5097C461.568 72.4823 461.086 71.5488 460.478 70.7625C459.87 69.9762 459.148 69.3525 458.354 68.9269C457.56 68.5014 456.708 68.2823 455.849 68.2823H431.885C431.025 68.2823 430.174 68.5014 429.379 68.9269C428.585 69.3525 427.863 69.9762 427.255 70.7625C426.647 71.5488 426.165 72.4823 425.836 73.5096C425.507 74.537 425.338 75.6381 425.338 76.7501V157.015C425.338 159.26 426.028 161.414 427.255 163.002C428.483 164.59 430.148 165.482 431.884 165.482H455.849C456.708 165.482 457.56 165.263 458.354 164.838C459.148 164.412 459.87 163.788 460.478 163.002C461.086 162.216 461.568 161.282 461.897 160.255C462.226 159.228 462.395 158.127 462.395 157.015V101.795H462.808V91.3807Z" fill="#3F3D56"/>
<path d="M461.002 76.8093V156.956C461.002 158.633 460.487 160.241 459.57 161.427C458.653 162.613 457.41 163.279 456.113 163.279H432.034C430.737 163.279 429.493 162.613 428.577 161.427C427.66 160.241 427.145 158.633 427.145 156.956V76.8093C427.145 75.1321 427.66 73.5236 428.577 72.3376C429.493 71.1517 430.737 70.4854 432.034 70.4854H434.955C434.811 70.9416 434.757 71.4365 434.796 71.9264C434.835 72.4164 434.966 72.8864 435.179 73.2952C435.391 73.704 435.678 74.039 436.014 74.2708C436.35 74.5025 436.725 74.6239 437.106 74.6243H450.834C451.215 74.6239 451.59 74.5025 451.926 74.2708C452.262 74.039 452.549 73.704 452.761 73.2952C452.974 72.8864 453.105 72.4164 453.144 71.9264C453.183 71.4364 453.129 70.9416 452.985 70.4854H456.113C457.41 70.4854 458.653 71.1517 459.57 72.3376C460.487 73.5236 461.002 75.1321 461.002 76.8093Z" fill="white"/>
<path d="M145.405 169.404C145.156 168.995 144.981 168.518 144.895 168.009C144.81 167.499 144.815 166.971 144.91 166.465C147.197 154.075 147.197 141.162 144.91 128.772C144.815 128.266 144.809 127.738 144.895 127.229C144.981 126.719 145.156 126.242 145.405 125.833C145.65 125.43 145.962 125.104 146.319 124.881C146.675 124.658 147.067 124.542 147.463 124.544H171.912C172.536 124.545 173.14 124.834 173.616 125.357C174.092 125.881 174.409 126.606 174.51 127.404C176.105 140.801 176.105 154.436 174.51 167.833C174.409 168.631 174.092 169.356 173.616 169.88C173.14 170.403 172.536 170.692 171.912 170.693H147.463C147.067 170.695 146.675 170.579 146.319 170.356C145.962 170.133 145.65 169.807 145.405 169.404Z" fill="#35B5AC"/>
<path d="M167.194 141.572H154.314C153.834 141.571 153.374 141.324 153.035 140.885C152.696 140.446 152.505 139.851 152.504 139.231V138.237C152.505 137.616 152.696 137.021 153.035 136.582C153.374 136.143 153.834 135.896 154.314 135.896H167.194C167.673 135.896 168.133 136.143 168.473 136.582C168.812 137.021 169.003 137.616 169.003 138.237V139.231C169.003 139.851 168.812 140.446 168.473 140.885C168.133 141.324 167.673 141.571 167.194 141.572Z" fill="white"/>
<path d="M167.194 151.362H154.314C153.834 151.362 153.374 151.115 153.035 150.676C152.696 150.237 152.505 149.642 152.504 149.021V148.027C152.505 147.407 152.696 146.812 153.035 146.373C153.374 145.934 153.834 145.687 154.314 145.687H167.194C167.673 145.687 168.133 145.934 168.473 146.373C168.812 146.812 169.003 147.407 169.003 148.027V149.021C169.003 149.642 168.812 150.237 168.473 150.676C168.133 151.115 167.673 151.362 167.194 151.362Z" fill="white"/>
<path d="M371.526 198.221C369.957 185.04 369.957 171.626 371.526 158.445C371.626 157.66 371.937 156.947 372.405 156.432C372.873 155.916 373.468 155.633 374.082 155.631H398.136C398.526 155.63 398.911 155.743 399.262 155.963C399.612 156.183 399.92 156.504 400.16 156.9C400.406 157.303 400.578 157.772 400.662 158.273C400.746 158.774 400.741 159.293 400.647 159.791C398.397 171.981 398.397 184.685 400.647 196.875C400.741 197.373 400.746 197.892 400.662 198.393C400.578 198.894 400.406 199.364 400.16 199.766C399.92 200.162 399.612 200.483 399.262 200.703C398.911 200.923 398.526 201.036 398.136 201.035H374.082C373.468 201.033 372.873 200.75 372.405 200.234C371.937 199.719 371.626 199.006 371.526 198.221Z" fill="#35B5AC"/>
<path d="M391.173 175.85H378.551C378.071 175.849 377.611 175.603 377.271 175.164C376.932 174.725 376.741 174.13 376.741 173.509V172.594C376.741 171.974 376.932 171.379 377.271 170.94C377.611 170.501 378.071 170.254 378.551 170.253H391.173C391.653 170.254 392.113 170.501 392.452 170.94C392.791 171.379 392.982 171.974 392.983 172.594V173.509C392.982 174.13 392.791 174.725 392.452 175.164C392.113 175.603 391.653 175.849 391.173 175.85Z" fill="white"/>
<path d="M22.2457 284.839C27.2974 273.213 33.6949 262.655 41.2161 253.533C41.6686 252.995 42.2541 252.682 42.8682 252.65C43.4823 252.618 44.0853 252.869 44.5698 253.358L63.5013 272.551C63.8088 272.861 64.0577 273.258 64.2289 273.711C64.4001 274.164 64.4891 274.661 64.4892 275.165C64.4908 275.678 64.402 276.184 64.2296 276.646C64.0571 277.107 63.8055 277.512 63.4939 277.829C55.9092 285.628 49.8502 295.626 45.8073 307.016C45.6439 307.483 45.4003 307.896 45.095 308.223C44.7897 308.549 44.4307 308.782 44.0454 308.902C43.6669 309.023 43.2721 309.03 42.8912 308.923C42.5102 308.816 42.1531 308.598 41.8471 308.286L22.9156 289.093C22.4326 288.601 22.1002 287.904 21.9775 287.125C21.8548 286.346 21.9499 285.536 22.2457 284.839Z" fill="#CCCCCC"/>
<path d="M48.4918 281.8L38.5573 271.728C38.18 271.345 37.9356 270.783 37.8779 270.167C37.8202 269.551 37.9538 268.93 38.2494 268.442L38.6855 267.722C38.9819 267.234 39.4159 266.918 39.8922 266.843C40.3686 266.768 40.8483 266.941 41.2263 267.323L51.1609 277.395C51.5382 277.779 51.7825 278.34 51.8403 278.956C51.898 279.572 51.7644 280.193 51.4688 280.682L51.0327 281.402C50.7363 281.89 50.3023 282.206 49.826 282.28C49.3496 282.355 48.8698 282.182 48.4918 281.8Z" fill="white"/>
<path d="M43.8981 289.381L33.9635 279.309C33.5862 278.926 33.3419 278.364 33.2842 277.748C33.2264 277.132 33.36 276.512 33.6556 276.023L34.0919 275.303C34.3883 274.815 34.8223 274.499 35.2986 274.424C35.775 274.349 36.2548 274.522 36.6328 274.904L46.5673 284.976C46.9446 285.36 47.189 285.921 47.2467 286.537C47.3044 287.153 47.1709 287.774 46.8753 288.263L46.439 288.983C46.1426 289.471 45.7086 289.787 45.2322 289.862C44.7559 289.936 44.2761 289.763 43.8981 289.381Z" fill="white"/>
<path d="M533.805 294.979C532.236 281.798 532.236 268.384 533.805 255.202C533.905 254.418 534.216 253.705 534.684 253.189C535.152 252.674 535.746 252.39 536.361 252.389H560.415C560.805 252.387 561.19 252.501 561.54 252.721C561.891 252.941 562.198 253.261 562.439 253.658C562.685 254.06 562.856 254.529 562.941 255.03C563.025 255.531 563.02 256.051 562.926 256.549C560.676 268.739 560.676 281.443 562.926 293.633C563.02 294.131 563.025 294.65 562.941 295.151C562.856 295.652 562.685 296.121 562.439 296.523C562.198 296.92 561.891 297.241 561.54 297.46C561.19 297.68 560.805 297.794 560.415 297.792H536.361C535.746 297.791 535.152 297.507 534.684 296.992C534.216 296.477 533.905 295.763 533.805 294.979Z" fill="#CCCCCC"/>
<path d="M553.452 272.608H540.829C540.35 272.607 539.889 272.36 539.55 271.921C539.211 271.482 539.02 270.887 539.02 270.267V269.352C539.02 268.731 539.211 268.136 539.55 267.697C539.889 267.259 540.35 267.012 540.829 267.011H553.452C553.932 267.012 554.392 267.259 554.731 267.697C555.07 268.136 555.261 268.731 555.262 269.352V270.267C555.261 270.887 555.07 271.482 554.731 271.921C554.392 272.36 553.932 272.607 553.452 272.608Z" fill="white"/>
<path d="M540.87 258.592C541.587 256.715 541.732 254.558 541.276 252.55C540.819 250.541 539.794 248.829 538.406 247.753C538.125 247.551 537.832 247.382 537.529 247.245L537.034 218.912L528.285 227.245L530.096 252.873C529.772 254.593 529.884 256.401 530.414 258.033C530.944 259.665 531.865 261.034 533.042 261.938C533.719 262.425 534.467 262.725 535.238 262.82C536.009 262.914 536.788 262.8 537.523 262.486C538.259 262.172 538.936 261.663 539.512 260.993C540.088 260.323 540.551 259.505 540.87 258.592Z" fill="#A0616A"/>
<path d="M537.184 246.012L530.912 246.501C530.243 246.523 529.592 246.218 529.089 245.647C528.586 245.076 528.267 244.282 528.197 243.421L522.989 192.742L514.573 161.83C513.863 159.254 513.941 156.425 514.791 153.921C515.186 152.715 515.767 151.626 516.5 150.721C517.232 149.816 518.099 149.114 519.048 148.659C522.881 146.857 527.077 149.71 528.402 155.017L536.96 190.46L539.6 242.219C539.653 243.157 539.426 244.086 538.966 244.815C538.679 245.274 538.301 245.624 537.872 245.829C537.651 245.932 537.419 245.994 537.184 246.012Z" fill="#3F3D56"/>
<path d="M500.621 401.778L493.225 401.777L489.707 364.878L500.622 364.879L500.621 401.778Z" fill="#A0616A"/>
<path d="M502.507 411.051L478.659 411.05V410.66C478.659 409.083 478.899 407.522 479.366 406.065C479.832 404.609 480.516 403.285 481.378 402.17C482.24 401.055 483.263 400.171 484.389 399.568C485.515 398.964 486.722 398.654 487.941 398.654H487.942L502.507 398.655L502.507 411.051Z" fill="#2F2E41"/>
<path d="M522.339 401.778L514.943 401.777L511.424 364.878L522.34 364.879L522.339 401.778Z" fill="#A0616A"/>
<path d="M524.224 411.051L500.377 411.05V410.66C500.377 409.083 500.617 407.522 501.083 406.065C501.55 404.609 502.234 403.285 503.096 402.17C503.958 401.055 504.981 400.171 506.107 399.568C507.233 398.964 508.44 398.654 509.659 398.654H509.66L524.225 398.655L524.224 411.051Z" fill="#2F2E41"/>
<path d="M527.302 252.656L525.536 388.19C525.53 388.619 525.456 389.042 525.319 389.433C525.181 389.823 524.982 390.173 524.735 390.46C524.488 390.746 524.198 390.964 523.883 391.099C523.568 391.235 523.235 391.284 522.905 391.246L514.25 390.228C513.682 390.161 513.151 389.837 512.751 389.312C512.351 388.787 512.107 388.096 512.063 387.361L506.996 302.819C506.984 302.62 506.914 302.435 506.8 302.301C506.686 302.167 506.537 302.095 506.383 302.099C506.229 302.103 506.082 302.183 505.972 302.322C505.862 302.462 505.797 302.65 505.792 302.849L503.259 389.327C503.236 390.134 502.971 390.897 502.522 391.457C502.072 392.017 501.472 392.33 500.848 392.33H491.566C490.952 392.33 490.36 392.027 489.913 391.482C489.465 390.938 489.195 390.193 489.158 389.399L482.66 251.876L521.269 239.391L527.302 252.656Z" fill="#2F2E41"/>
<path d="M499.297 125.391C507.481 125.391 514.114 116.811 514.114 106.226C514.114 95.6416 507.481 87.0612 499.297 87.0612C491.114 87.0612 484.48 95.6416 484.48 106.226C484.48 116.811 491.114 125.391 499.297 125.391Z" fill="#A0616A"/>
<path d="M481.338 256.688C481.081 256.367 480.876 255.984 480.735 255.56C480.594 255.136 480.519 254.68 480.515 254.218L479.516 161.797C479.455 157.096 480.549 152.491 482.639 148.643C484.729 144.796 487.708 141.905 491.148 140.385C492.536 132.239 499.924 131.218 504.231 131.34C505.306 131.37 506.36 131.735 507.302 132.404C508.245 133.072 509.049 134.025 509.647 135.181L512.734 141.172L519.539 146.331C522.689 148.709 525.173 152.319 526.633 156.641C528.094 160.963 528.455 165.773 527.665 170.377L526.618 176.541C522.929 198.358 523.28 220.994 527.642 242.602L529.75 252.999C529.86 253.54 529.868 254.108 529.774 254.654C529.68 255.201 529.486 255.71 529.208 256.14C528.931 256.569 528.578 256.907 528.18 257.125C527.781 257.342 527.348 257.433 526.916 257.39L524.468 257.146C523.832 257.084 523.234 256.734 522.778 256.158C522.322 255.582 522.037 254.816 521.975 253.996L521.569 248.754C521.562 248.658 521.527 248.569 521.472 248.504C521.416 248.439 521.344 248.403 521.269 248.403C521.194 248.403 521.122 248.439 521.067 248.504C521.011 248.569 520.977 248.658 520.969 248.754L520.577 253.829C520.511 254.686 520.203 255.482 519.713 256.065C519.222 256.648 518.583 256.977 517.917 256.99L483.271 257.68C483.257 257.68 483.242 257.681 483.228 257.681C482.522 257.682 481.843 257.326 481.338 256.688Z" fill="#3F3D56"/>
<path d="M500.456 117.273C500.517 119.983 501.971 121.55 503.757 122.969C505.542 124.388 507.629 125.003 509.673 125.597C509.948 125.786 510.255 125.879 510.566 125.87C510.877 125.86 511.181 125.746 511.448 125.541C511.715 125.335 511.937 125.043 512.091 124.694C512.246 124.346 512.328 123.951 512.331 123.549L514.206 114.323C514.869 111.376 515.352 108.366 515.65 105.321C516.101 99.4614 515.028 93.1582 511.866 88.9217C508.704 84.6852 503.221 83.1803 499.432 86.4444C494.935 79.0161 474.382 95.4281 479.452 100.594C480.354 101.512 481.733 100.35 482.878 100.237C484.022 100.124 485.305 100.385 486.033 101.534C486.983 103.035 486.569 105.272 486.96 107.145C487.122 107.804 487.384 108.415 487.729 108.943C488.074 109.471 488.497 109.905 488.973 110.22C489.449 110.536 489.968 110.726 490.501 110.781C491.034 110.835 491.57 110.753 492.078 110.538C493.025 109.935 493.915 109.194 494.733 108.331C495.611 107.574 496.72 107.015 497.709 107.492C499.012 108.121 499.475 110.185 499.593 111.977C499.791 113.765 500.08 115.534 500.456 117.273Z" fill="#2F2E41"/>
<path opacity="0.2" d="M496.996 168.638L494.583 206.872L481.914 246.668L500.615 207.653L496.996 168.638Z" fill="black"/>
<path d="M478.952 261.487C479.643 260.769 480.205 259.864 480.597 258.835C480.988 257.805 481.201 256.678 481.219 255.531C481.237 254.384 481.061 253.246 480.702 252.197C480.344 251.147 479.812 250.213 479.144 249.458L487.214 223.602L476.234 226.47L470.253 250.584C469.347 252.12 468.909 254.032 469.02 255.958C469.132 257.883 469.786 259.69 470.858 261.034C471.931 262.378 473.347 263.166 474.838 263.25C476.33 263.333 477.794 262.706 478.952 261.488V261.487Z" fill="#A0616A"/>
<path d="M478.716 250.084L472.5 247.187C471.86 246.883 471.331 246.281 471.016 245.499C470.702 244.716 470.626 243.809 470.802 242.958L481.056 194.408L482.619 150.529C482.666 149.205 482.917 147.906 483.355 146.708C483.794 145.509 484.413 144.436 485.175 143.55C485.937 142.663 486.828 141.982 487.796 141.545C488.764 141.108 489.789 140.925 490.812 141.005C491.835 141.085 492.836 141.428 493.756 142.012C494.676 142.597 495.497 143.413 496.171 144.412C496.845 145.411 497.358 146.573 497.682 147.831C498.006 149.089 498.133 150.418 498.056 151.74L495.264 199.786L482.198 247.944C482 248.672 481.623 249.295 481.124 249.718C480.625 250.141 480.032 250.34 479.438 250.285C479.191 250.261 478.948 250.193 478.716 250.084Z" fill="#3F3D56"/>
<path d="M30.9824 390.698L37.6238 394.908L53.3401 363.78L43.5388 357.565L30.9824 390.698Z" fill="#FFB8B8"/>
<path d="M30.3516 386.819L43.43 395.111L43.4306 395.112C44.5251 395.806 45.5032 396.772 46.3091 397.955C47.1149 399.138 47.7328 400.514 48.1273 402.006C48.5218 403.498 48.6853 405.076 48.6085 406.649C48.5316 408.223 48.2158 409.761 47.6793 411.177L47.5465 411.527L26.1333 397.95L30.3516 386.819Z" fill="#2F2E41"/>
<path d="M96.7956 405.375L104.192 405.374L107.71 368.475L96.7944 368.476L96.7956 405.375Z" fill="#FFB8B8"/>
<path d="M94.9087 399.131L109.474 399.13H109.474C110.693 399.13 111.9 399.441 113.027 400.044C114.153 400.647 115.176 401.532 116.038 402.646C116.9 403.761 117.584 405.085 118.05 406.541C118.517 407.998 118.757 409.559 118.757 411.136V411.526L94.9091 411.527L94.9087 399.131Z" fill="#2F2E41"/>
<path d="M80.9087 150.72C89.0918 150.72 95.7255 142.14 95.7255 131.555C95.7255 120.971 89.0918 112.39 80.9087 112.39C72.7255 112.39 66.0918 120.971 66.0918 131.555C66.0918 142.14 72.7255 150.72 80.9087 150.72Z" fill="#FFB8B8"/>
<path d="M95.6634 393.205C94.9644 393.204 94.2927 392.854 93.7881 392.228C93.2835 391.603 92.9849 390.75 92.9544 389.846L87.2272 291.246C87.2205 290.988 87.148 290.74 87.0209 290.54C86.8937 290.341 86.7192 290.201 86.5244 290.144C86.3296 290.086 86.1255 290.113 85.944 290.222C85.7625 290.33 85.6137 290.512 85.5209 290.741L48.8836 381.212C48.551 382.023 47.987 382.635 47.3113 382.917C46.6355 383.199 45.9014 383.13 45.2647 382.723L35.0514 376.117C34.4107 375.701 33.9231 374.974 33.6946 374.095C33.466 373.216 33.5152 372.256 33.8312 371.423L55.6929 314.124L70.1729 271.203C75.762 256.964 81.697 249.625 88.317 248.769C95.1087 247.892 102.362 253.932 110.494 267.237L110.56 267.345L110.559 267.484L109.353 387.929C109.355 388.804 109.103 389.648 108.647 390.294C108.191 390.941 107.565 391.342 106.891 391.42L95.929 393.188C95.8399 393.199 95.7514 393.205 95.6634 393.205Z" fill="#2F2E41"/>
<path d="M65.2705 278.135C66.0768 277.492 66.7643 276.627 67.2844 275.603C67.8045 274.579 68.1446 273.419 68.2809 272.207C68.4171 270.994 68.3461 269.757 68.0729 268.584C67.7996 267.41 67.3308 266.329 66.6994 265.415L68.9337 189.058L58.0749 190.809L57.1592 265.093C56.0428 266.566 55.3831 268.519 55.3052 270.579C55.2272 272.64 55.7364 274.666 56.7362 276.274C57.736 277.882 59.157 278.959 60.73 279.302C62.3029 279.645 63.9185 279.23 65.2705 278.135Z" fill="#FFB8B8"/>
<path d="M72.1395 202.558L57.5572 200.415C57.1423 200.354 56.7424 200.178 56.3848 199.899C56.0272 199.62 55.7203 199.245 55.485 198.798C55.2496 198.352 55.0914 197.846 55.021 197.313C54.9507 196.781 54.9699 196.235 55.0773 195.713L58.842 177.425C59.0952 174.681 60.1793 172.178 61.8567 170.467C63.534 168.755 65.6678 167.973 67.79 168.293C69.9122 168.614 71.8496 170.009 73.1775 172.174C74.5054 174.339 75.1154 177.097 74.8736 179.843L75.3718 198.696C75.3859 199.236 75.3099 199.773 75.149 200.272C74.9881 200.77 74.746 201.218 74.4393 201.584C74.1326 201.951 73.7684 202.227 73.3715 202.395C72.9746 202.564 72.5544 202.619 72.1395 202.558L72.1395 202.558Z" fill="#2F2E41"/>
<path d="M134.956 154.491C134.881 154.912 134.833 155.34 134.811 155.771L108.896 175.109L102.597 170.418L95.8823 181.789L106.41 191.494C107.26 192.278 108.284 192.684 109.328 192.651C110.372 192.618 111.38 192.148 112.2 191.312L138.922 164.043C140.128 164.621 141.442 164.709 142.688 164.298C143.934 163.886 145.053 162.994 145.898 161.739C146.742 160.484 147.271 158.927 147.414 157.274C147.557 155.621 147.308 153.951 146.699 152.486C146.091 151.02 145.152 149.829 144.007 149.071C142.863 148.313 141.567 148.024 140.292 148.241C139.017 148.459 137.824 149.174 136.87 150.29C135.917 151.407 135.249 152.872 134.956 154.491V154.491Z" fill="#FFB8B8"/>
<path d="M108.03 176.024L99.6546 190.065C99.4162 190.465 99.1142 190.793 98.7689 191.028C98.4236 191.263 98.0433 191.399 97.6538 191.426C97.2642 191.454 96.8747 191.373 96.5116 191.188C96.1486 191.003 95.8206 190.719 95.55 190.356L86.0682 177.62C84.4941 176.032 83.4712 173.701 83.224 171.139C82.9769 168.576 83.5256 165.992 84.7498 163.952C85.974 161.912 87.7738 160.583 89.7543 160.258C91.7348 159.932 93.7343 160.635 95.3143 162.214L107.207 170.815C107.547 171.062 107.842 171.4 108.073 171.807C108.303 172.215 108.462 172.681 108.541 173.176C108.619 173.67 108.614 174.181 108.526 174.672C108.437 175.164 108.269 175.625 108.03 176.024H108.03Z" fill="#2F2E41"/>
<path d="M114.862 273.208L98.783 171.902C98.0188 167.087 95.8413 162.842 92.7083 160.06C89.5752 157.279 85.7305 156.176 81.982 156.984L76.6194 158.14C74.7565 158.541 72.973 159.414 71.3708 160.707C69.7685 162 68.3788 163.689 67.2811 165.676C65.537 168.835 64.3621 172.458 63.8429 176.281C63.3237 180.104 63.4734 184.029 64.281 187.767L73.1565 228.854L66.5698 272.872C66.4962 273.36 66.514 273.864 66.6216 274.342C66.7293 274.819 66.9237 275.256 67.1886 275.617C67.4535 275.977 67.7813 276.251 68.1445 276.414C68.5077 276.577 68.8959 276.626 69.2765 276.555C72.5742 275.945 78.0098 275.074 84.2528 274.599L87.6349 257.725L89.0106 274.332C96.6795 274.054 105.005 274.54 111.872 276.848C112.27 276.985 112.687 276.989 113.086 276.859C113.485 276.729 113.851 276.469 114.151 276.105C114.45 275.74 114.673 275.283 114.797 274.776C114.922 274.269 114.944 273.729 114.862 273.208Z" fill="#35B5AC"/>
<path d="M97.9726 115.375C97.0883 108.722 92.9591 103.206 88.0402 100.95C83.1213 98.693 77.5746 99.4269 72.7576 102.026C67.6162 104.73 63.36 109.658 60.7161 115.971C60.0895 115.608 59.487 115.179 58.9149 114.688C56.0623 112.232 53.7476 108.735 50.6615 106.81C45.2203 103.416 38.6421 105.672 33.3467 109.432C28.0513 113.192 23.3572 118.386 17.7634 121.336C12.1699 124.287 5.03233 124.433 0.796786 118.862C-0.245568 122.768 -0.330806 126.995 0.552694 130.966C1.43619 134.937 3.2454 138.458 5.73347 141.05C8.22154 143.642 11.2673 145.178 14.4551 145.448C17.643 145.719 20.8176 144.71 23.546 142.561C29.6747 137.732 33.0601 127.607 39.9344 124.942C43.7381 123.467 47.8228 124.655 51.6674 125.941C53.9322 126.784 56.2432 127.402 58.5806 127.791C58.608 133.247 60.1968 138.497 63.0406 142.528C67.7845 148.988 75.2299 150.709 82.1174 150.605L82.2615 150.415C80.1527 146.332 78.4884 140.671 80.8102 136.786C83.1022 132.952 87.6225 133.517 91.1326 131.82C96.0214 129.457 98.8569 122.028 97.9726 115.375Z" fill="#2F2E41"/>
<path d="M124.222 412H21.6667C21.5067 412 21.3533 411.918 21.2402 411.771C21.127 411.625 21.0635 411.427 21.0635 411.22C21.0635 411.013 21.127 410.814 21.2402 410.668C21.3533 410.522 21.5067 410.439 21.6667 410.439H124.222C124.382 410.439 124.536 410.522 124.649 410.668C124.762 410.814 124.825 411.013 124.825 411.22C124.825 411.427 124.762 411.625 124.649 411.771C124.536 411.918 124.382 412 124.222 412Z" fill="#CCCCCC"/>
<path d="M548.319 412H445.764C445.604 412 445.45 411.918 445.337 411.771C445.224 411.625 445.161 411.427 445.161 411.22C445.161 411.013 445.224 410.814 445.337 410.668C445.45 410.522 445.604 410.439 445.764 410.439H548.319C548.479 410.439 548.633 410.522 548.746 410.668C548.859 410.814 548.923 411.013 548.923 411.22C548.923 411.427 548.859 411.625 548.746 411.771C548.633 411.918 548.479 412 548.319 412Z" fill="#CCCCCC"/>
</g>
<defs>
<clipPath id="clip0">
<rect width="563" height="412" fill="white"/>
</clipPath>
</defs>
</svg>
