<svg width="50" height="56" viewBox="0 0 50 56" fill="none" xmlns="http://www.w3.org/2000/svg">
<path d="M49.2051 26.5485L46.9782 25.5909V24.0682C47.0094 14.7225 41.1126 6.38404 32.2905 3.29994V1.15394C32.2905 0.516948 31.7735 0 31.1369 0H18.7912C18.1546 0 17.6376 0.516948 17.6376 1.15394V3.31128C8.81549 6.39538 2.91869 14.7338 2.94997 24.0795V25.614L0.746099 26.5485C0.319089 26.7288 0.0422363 27.1476 0.0422363 27.6102V33.6677C0.0422363 34.3043 0.559184 34.8213 1.19618 34.8213H2.69619V37.1292C2.69619 37.7658 3.21275 38.2827 3.84974 38.2827H7.99198C8.38536 39.7272 8.96331 41.1165 9.71096 42.4132L6.78055 45.344C6.33281 45.7937 6.33281 46.5206 6.78055 46.9707L11.6841 51.8743C12.1338 52.322 12.8608 52.322 13.3108 51.8743L16.2412 48.9439C17.5348 49.6915 18.9194 50.2683 20.3604 50.6629V54.8051C20.3604 55.4417 20.8774 55.9587 21.5144 55.9587H28.4368C29.0738 55.9587 29.5908 55.4417 29.5908 54.8051V50.6629C31.0353 50.2695 32.4242 49.6927 33.7213 48.9439L36.6521 51.8743C37.1018 52.322 37.8287 52.322 38.2788 51.8743L43.1824 46.9707C43.6301 46.5206 43.6301 45.7937 43.1824 45.344L40.2516 42.4132C40.9992 41.1165 41.5776 39.7272 41.971 38.2827H46.1128C46.7498 38.2827 47.2667 37.7658 47.2667 37.1292V34.8213H48.7667C49.4037 34.8213 49.9203 34.3043 49.9203 33.6677V27.6102C49.918 27.1441 49.6356 26.7253 49.2051 26.5485ZM19.9221 2.31923H29.983V21.5988H19.9451L19.9221 2.31923ZM44.9706 35.9752H41.1287C40.575 35.9623 40.0912 36.3455 39.9747 36.8863C39.586 38.6933 38.8708 40.4135 37.8635 41.9631C37.5667 42.4191 37.6305 43.0201 38.0133 43.4053L40.7709 46.1628L37.4709 49.4397L34.7133 46.6821C34.3282 46.2993 33.7272 46.2356 33.2712 46.5324C31.7215 47.5393 30.0014 48.2549 28.1944 48.6436C27.6532 48.7601 27.2704 49.2438 27.2829 49.7975V53.6856H22.6679V49.7627C22.6808 49.209 22.2976 48.7257 21.7564 48.6092C19.9498 48.2213 18.2293 47.5061 16.68 46.4976C16.224 46.2012 15.623 46.2645 15.2375 46.6477L12.4799 49.4053L9.21474 46.1398L11.9723 43.3822C12.3555 42.997 12.4189 42.396 12.1225 41.9401C11.1058 40.3998 10.3789 38.6874 9.97648 36.8863C9.85956 36.3455 9.37624 35.9623 8.82253 35.9752H4.98062V34.8213H15.526C16.1583 40.0342 20.8969 43.747 26.1098 43.1136C30.4526 42.5864 33.8757 39.1641 34.4021 34.8213H44.9592L44.9706 35.9752ZM17.8797 34.8213H32.0829C31.4482 38.7465 27.7514 41.4141 23.8265 40.7795C20.7643 40.2844 18.3634 37.8835 17.8683 34.8213H17.8797ZM47.6245 32.5138H2.33839V28.3715L4.56495 27.4139C4.99196 27.234 5.26881 26.8152 5.26881 26.3522V24.0447C5.24339 15.9867 10.1493 8.73416 17.6376 5.75721V22.7528C17.6376 23.3894 18.1542 23.9063 18.7912 23.9063H31.1596C31.7966 23.9063 32.3136 23.3894 32.3136 22.7528V5.75721C39.8144 8.73298 44.7262 15.9996 44.6937 24.0678V26.3757C44.6937 26.8383 44.9706 27.2571 45.3976 27.437L47.6241 28.3946V32.5138H47.6245Z" fill="#35B5AC"/>
</svg>
