<svg width="34" height="52" viewBox="0 0 34 52" fill="none" xmlns="http://www.w3.org/2000/svg">
<path d="M13.3034 28.6721C14.7426 28.6721 15.9141 27.4995 15.9141 26.0586V8.94555C15.9141 7.50467 14.7426 6.33203 13.3034 6.33203C11.9723 6.33203 10.8707 7.33219 10.7106 8.62019C8.71418 8.91083 7.14898 10.55 6.97314 12.5811C4.91738 13.3242 3.52466 15.2764 3.52466 17.5012C3.52466 19.7267 4.91794 21.6783 6.97314 22.422C7.14842 24.4531 8.71362 26.0928 10.7106 26.3828C10.8713 27.6714 11.9728 28.6721 13.3034 28.6721ZM11.3445 25.0293C9.69754 25.0293 8.3569 23.6887 8.3597 22.0087C8.36026 22.0031 8.36418 21.9504 8.36474 21.9443C8.3849 21.6072 8.16202 21.3042 7.83498 21.223C6.12138 20.7968 4.92522 19.2669 4.92522 17.5018C4.92522 15.7367 6.12194 14.2068 7.83498 13.7806C8.16202 13.6994 8.3849 13.3959 8.36474 13.0593C8.36418 13.0537 8.35746 12.968 8.3569 12.9624C8.3569 11.316 9.69642 9.97595 11.3383 9.97595C11.3389 9.97595 11.3395 9.97595 11.34 9.97595C11.5607 10.0012 11.7746 9.92331 11.9263 9.76595C12.0781 9.60803 12.1475 9.38795 12.1128 9.17123C12.1011 9.09675 12.0904 9.02227 12.0904 8.94555C12.0904 8.27635 12.6347 7.73203 13.3034 7.73203C13.9709 7.73203 14.5141 8.27635 14.5141 8.94555V16.9418H13.8231C13.8068 16.9418 13.7911 16.9373 13.7749 16.9368C13.7547 16.9345 13.7374 16.925 13.7161 16.925H13.6579C12.6851 16.8505 11.8866 16.1438 11.6923 15.2086C12.3351 14.9628 12.7949 14.3445 12.7949 13.616C12.7949 12.674 12.0288 11.9074 11.0863 11.9074C10.1439 11.9074 9.37778 12.674 9.37778 13.616C9.37778 14.3748 9.87786 15.012 10.5639 15.2344C10.6675 15.9545 11.0007 16.6019 11.4918 17.0936C11.3927 17.1944 11.3311 17.3321 11.3311 17.4844C11.3311 17.7936 11.5814 18.0444 11.8911 18.0444H13.4932C13.6013 18.0551 13.7111 18.0612 13.8225 18.0612H14.5135V26.0575C14.5135 26.7267 13.9703 27.271 13.3028 27.271C12.6342 27.271 12.0899 26.7267 12.0899 26.0575C12.0899 25.9808 12.1011 25.9063 12.1123 25.8318C12.1464 25.6168 12.077 25.3989 11.9269 25.241C11.7942 25.1016 11.6099 25.0243 11.419 25.0243C11.3943 25.0248 11.3697 25.0265 11.3445 25.0293ZM11.0863 14.2056C10.7621 14.2056 10.4978 13.9413 10.4978 13.6171C10.4978 13.2928 10.7621 13.0285 11.0863 13.0285C11.4106 13.0285 11.6749 13.2923 11.6749 13.6171C11.6749 13.9419 11.4111 14.2056 11.0863 14.2056Z" fill="#35B5AC"/>
<path d="M20.6941 28.672C22.0252 28.672 23.1273 27.6718 23.2875 26.3838C25.2833 26.0932 26.8485 24.4535 27.0243 22.4229C29.0795 21.6798 30.4728 19.7276 30.4728 17.5022C30.4728 15.2768 29.0801 13.3252 27.0243 12.582C26.8491 10.5515 25.2844 8.91125 23.2875 8.62117C23.1273 7.33317 22.0252 6.33301 20.6941 6.33301C19.2549 6.33301 18.0834 7.50509 18.0834 8.94653V26.0596C18.0834 27.4993 19.2543 28.672 20.6941 28.672ZM20.6941 7.73189C21.3633 7.73189 21.9076 8.27621 21.9076 8.94541C21.9076 9.02213 21.8959 9.09661 21.8847 9.17109C21.8499 9.38781 21.9171 9.60677 22.0689 9.76525C22.2212 9.92373 22.4368 10.0016 22.653 9.97525C24.2999 9.97525 25.6406 11.3153 25.6378 12.9959C25.6372 13.0015 25.6333 13.0541 25.6327 13.0597C25.6126 13.3968 25.8355 13.6998 26.1625 13.781C27.8761 14.2072 29.0723 15.7371 29.0723 17.5022C29.0723 19.2673 27.8755 20.7972 26.1625 21.2234C25.8355 21.3046 25.6126 21.6081 25.6327 21.9447C25.6333 21.9503 25.64 22.036 25.6406 22.0416C25.6406 23.688 24.3022 25.0275 22.6535 25.0275C22.6524 25.0275 22.6513 25.0275 22.6502 25.0275C22.429 25.0045 22.2184 25.0835 22.0683 25.2414C21.9183 25.3993 21.8505 25.6177 21.8847 25.8333C21.8964 25.9078 21.9076 25.9823 21.9076 26.059C21.9076 26.7282 21.3633 27.2725 20.6941 27.2725C20.0266 27.2725 19.4834 26.7282 19.4834 26.059V18.0616H20.1744C20.7389 18.0616 21.2743 18.2767 21.6814 18.6681C21.79 18.7723 21.9295 18.8238 22.0689 18.8238C22.2162 18.8238 22.3629 18.7661 22.4732 18.6513C22.6289 18.4889 22.6642 18.2582 22.588 18.0616H23.9124C23.9544 18.0616 23.9914 18.0465 24.0311 18.0376C24.2574 18.7163 24.8913 19.2102 25.6451 19.2102C26.5875 19.2102 27.3536 18.4436 27.3536 17.5016C27.3536 16.5597 26.5875 15.7931 25.6451 15.7931C24.8913 15.7931 24.2574 16.287 24.0311 16.9657C23.9919 16.9568 23.9544 16.9416 23.9124 16.9416H20.7619C20.6947 16.9416 20.6325 16.9584 20.5731 16.9797C20.441 16.9635 20.3094 16.9416 20.1744 16.9416H19.4834V8.94541C19.4834 8.27621 20.026 7.73189 20.6941 7.73189ZM25.0565 17.5016C25.0565 17.1768 25.3208 16.9131 25.6451 16.9131C25.9693 16.9131 26.2336 17.1768 26.2336 17.5016C26.2336 17.8264 25.9693 18.0902 25.6451 18.0902C25.3208 18.0902 25.0565 17.8264 25.0565 17.5016Z" fill="#35B5AC"/>
<path d="M23.5354 44.3883V38.6992C24.8547 37.507 25.6258 35.8169 25.6258 34.0008C25.6258 33.2992 25.7871 32.5975 26.0918 31.9736C26.4082 31.3308 26.8517 30.7758 27.4094 30.3256C31.344 27.1537 33.6014 22.443 33.6014 17.4013C33.6014 12.834 31.689 8.42059 28.3553 5.29299C24.9729 2.12115 20.5511 0.536911 15.9087 0.834831C7.6168 1.36571 0.963444 8.02131 0.432564 16.3172C0.0898438 21.7357 2.41104 26.9908 6.64408 30.3748C7.74224 31.2473 8.37168 32.5689 8.37168 34.0008C8.37168 35.6982 9.03417 37.2948 10.2354 38.496C10.3076 38.5682 10.3871 38.632 10.4622 38.7004V44.3883C10.4622 47.0152 12.4283 49.1869 14.9657 49.5218C14.9646 49.5436 14.9573 49.5644 14.9573 49.5862C14.9573 50.4777 15.8712 51.2001 16.9985 51.2001C18.1258 51.2001 19.0397 50.4777 19.0397 49.5862C19.0397 49.5644 19.0324 49.5436 19.0313 49.5218C21.5692 49.1869 23.5354 47.0152 23.5354 44.3883ZM12.1422 42.4983L14.4096 41.9909C14.7114 41.9232 14.9013 41.6236 14.8335 41.3217C14.7663 41.0199 14.4712 40.8317 14.1649 40.8978L12.1427 41.3508V39.4608H20.5802L15.9703 40.4935C15.6685 40.5612 15.4786 40.8603 15.5464 41.1621C15.6046 41.4225 15.8359 41.5995 16.0924 41.5995C16.1327 41.5995 16.1742 41.595 16.2156 41.586L21.8559 40.3227V41.7501L12.1427 43.9291V42.4983H12.1422ZM10.0517 34.0008C10.0517 32.0537 9.19096 30.2528 7.69128 29.0611C3.88776 26.0203 1.80064 21.2961 2.1092 16.4241C2.58688 8.96939 8.56488 2.98859 16.0157 2.51147C20.1916 2.24379 24.1665 3.66731 27.205 6.51827C30.2464 9.37091 31.9208 13.236 31.9208 17.4013C31.9208 21.9323 29.8919 26.1659 26.3538 29.0185C25.6046 29.6244 25.0098 30.3687 24.5837 31.2344C24.1665 32.0884 23.9458 33.0455 23.9458 34.0008C23.9458 35.5128 23.2206 36.905 22.0043 37.7808H11.9882C11.7899 37.6386 11.599 37.4846 11.4237 37.3088C10.5389 36.424 10.0517 35.2491 10.0517 34.0008ZM18.3514 47.8916H15.6461C14.9293 47.8916 14.2629 47.6744 13.7074 47.3042L18.1 46.3175C18.4018 46.2497 18.5917 45.9501 18.5239 45.6483C18.4562 45.347 18.1543 45.1572 17.8553 45.2249L12.7593 46.3696C12.4927 45.9826 12.3023 45.5396 12.2088 45.062L21.8554 42.8981V44.3272L19.57 44.8402C19.2682 44.908 19.0783 45.2076 19.1461 45.5094C19.2043 45.7698 19.4356 45.9468 19.6921 45.9468C19.7324 45.9468 19.7738 45.9423 19.8153 45.9333L21.6655 45.5178C21.194 46.896 19.8881 47.8916 18.3514 47.8916Z" fill="#35B5AC"/>
<path d="M23.434 19.7686C23.4172 19.6521 23.3976 19.5357 23.3685 19.4214C23.2917 19.1218 22.986 18.9404 22.6875 19.0171C22.3879 19.0938 22.207 19.3985 22.2832 19.6981C22.2916 19.73 22.2949 19.763 22.3017 19.7949C21.6605 20.0413 21.2024 20.6596 21.2024 21.3859C21.2024 22.3278 21.9685 23.0945 22.9109 23.0945C23.8534 23.0945 24.6195 22.3278 24.6195 21.3859C24.6189 20.6282 24.1194 19.9915 23.434 19.7686ZM22.9109 21.975C22.5867 21.975 22.3224 21.7113 22.3224 21.3865C22.3224 21.0617 22.5867 20.7979 22.9109 20.7979C23.2352 20.7979 23.4995 21.0617 23.4995 21.3865C23.4995 21.7113 23.2352 21.975 22.9109 21.975Z" fill="#35B5AC"/>
<path d="M10.4209 16.9248H10.2081C9.97793 16.2948 9.37817 15.8418 8.66977 15.8418C7.76425 15.8418 7.02673 16.5788 7.02673 17.4848C7.02673 18.3909 7.76369 19.1279 8.66977 19.1279C9.37817 19.1279 9.97793 18.6748 10.2081 18.0448H10.4209C10.7306 18.0448 10.9809 17.794 10.9809 17.4848C10.9809 17.1757 10.7306 16.9248 10.4209 16.9248ZM8.66921 18.0084C8.38081 18.0084 8.14617 17.7738 8.14617 17.4854C8.14617 17.197 8.38081 16.9624 8.66921 16.9624C8.95817 16.9624 9.19281 17.197 9.19281 17.4854C9.19281 17.7738 8.95817 18.0084 8.66921 18.0084Z" fill="#35B5AC"/>
</svg>
