<svg width="48" height="48" viewBox="0 0 48 48" fill="none" xmlns="http://www.w3.org/2000/svg">
<path d="M43.3024 36.4068H35.4845L21.715 21.6214H13.9216C13.9404 24.7277 13.9586 27.8342 13.9764 30.941H21.8842V36.4068H7.85668L7.85668 16.6054H26.7565C27.1659 16.5944 27.5602 16.4486 27.8783 16.1906C28.2468 15.914 28.4314 15.5275 28.432 15.0311C28.432 14.672 28.3375 14.3847 28.1627 14.1711C27.9754 13.9524 27.7305 13.7907 27.4558 13.7043C27.1599 13.6064 26.85 13.5573 26.5383 13.5588H7.85668V8.68826H30.6754C31.7123 8.69499 32.7046 9.1109 33.4364 9.84552C34.1682 10.5801 34.5803 11.574 34.583 12.6109V17.8311C34.583 18.754 34.3956 19.4706 34.0207 19.9809C33.6872 20.4589 33.2191 20.827 32.676 21.0384C32.0962 21.2465 31.4933 21.3836 30.8805 21.4466C30.2039 21.5247 29.807 21.583 29.6898 21.6214L43.3024 36.4068Z" fill="#35B5AC"/>
<path fill-rule="evenodd" clip-rule="evenodd" d="M24 0C10.7452 0 0 10.7452 0 24C0 37.2548 10.7452 48 24 48C37.2548 48 48 37.2548 48 24C48 10.7452 37.2548 0 24 0ZM0.755995 24C0.755995 11.1627 11.1627 0.755995 24 0.755995C36.8373 0.755995 47.244 11.1627 47.244 24C47.244 36.8373 36.8373 47.244 24 47.244C11.1627 47.244 0.755995 36.8373 0.755995 24Z" fill="#35B5AC"/>
</svg>
