<svg id="Layer_1" data-name="Layer 1" xmlns="http://www.w3.org/2000/svg" viewBox="0 0 3137.11 3975.95"><defs><style>.cls-1{fill: #4AB5AC;}.cls-2{fill:none;stroke:#4AB5AC;stroke-miterlimit:10;stroke-width:61px;}</style></defs><title>ROOT LEVEL</title><path class="cls-1" d="M3720.5,2763.6H3217.86L2332.59,1813h-501l3.87,664.21H1441.58V1490.56h1215q36.52,0,72.13-26.72t35.6-74.53q0-34.66-17.32-55.31t-45.44-30a185.67,185.67,0,0,0-59-9.38h-1201V981.53h1467.1q103.11,0,177.18,74t74,178.12v335.6q0,89.07-36.18,138.27t-86.45,68q-50.27,18.76-115.58,26.25T2845.12,1813Z" transform="translate(-930.28 -416.72)"/><rect class="cls-1" x="511.3" y="1995.46" width="901.84" height="351.42"/><circle class="cls-2" cx="1549.2" cy="1549.2" r="1518.7"/><path class="cls-1" d="M1264.13,4127.7a117.6,117.6,0,0,1-19.84,66.44,121.59,121.59,0,0,1-52.21,44.51l72.05,138.88H1212.7l-66.57-128.44c-.52,0-1.17.05-2,.13a16.45,16.45,0,0,1-1.69.13H1037.79v127.92H986.36V4197.92h156.12q29.24,0,49.73-20.49t20.49-49.73q0-29.23-20.49-49.73t-49.73-20.5H986.36v-51.16h156.12a121.16,121.16,0,0,1,121.65,121.39Z" transform="translate(-930.28 -416.72)"/><path class="cls-1" d="M1417.76,4010.22a223.07,223.07,0,0,1,164.21,0q39,15.68,67.35,42.29a199.31,199.31,0,0,1,45,63.31,185.34,185.34,0,0,1,0,153.77,199.15,199.15,0,0,1-45,63.3q-28.32,26.64-67.35,42.29a222.93,222.93,0,0,1-164.21,0q-39-15.66-67.22-42.29a200.18,200.18,0,0,1-44.9-63.3,185.23,185.23,0,0,1,0-153.77,200.34,200.34,0,0,1,44.9-63.31Q1378.74,4025.89,1417.76,4010.22Zm21.15,318.24a164.14,164.14,0,0,0,121.92,0q29.1-11.76,50.25-31.46a146.13,146.13,0,0,0,33.55-47,138.61,138.61,0,0,0,0-114.61,146.24,146.24,0,0,0-33.55-47A164.54,164.54,0,0,0,1438.91,4057q-29.12,11.75-50.25,31.46a146.09,146.09,0,0,0-33.55,47,138.61,138.61,0,0,0,0,114.61,146,146,0,0,0,33.55,47Q1409.8,4316.71,1438.91,4328.46Z" transform="translate(-930.28 -416.72)"/><path class="cls-1" d="M1874.1,4010.22a223,223,0,0,1,164.2,0q39,15.68,67.36,42.29a199.44,199.44,0,0,1,45,63.31,185.23,185.23,0,0,1,0,153.77,199.28,199.28,0,0,1-45,63.3q-28.34,26.64-67.36,42.29a222.91,222.91,0,0,1-164.2,0q-39-15.66-67.23-42.29a200.34,200.34,0,0,1-44.9-63.3,185.23,185.23,0,0,1,0-153.77,200.49,200.49,0,0,1,44.9-63.31Q1835.07,4025.89,1874.1,4010.22Zm21.14,318.24a164.14,164.14,0,0,0,121.92,0q29.1-11.76,50.25-31.46a146.13,146.13,0,0,0,33.55-47,138.61,138.61,0,0,0,0-114.61,146.24,146.24,0,0,0-33.55-47,164.91,164.91,0,0,0-222.42,0,146.24,146.24,0,0,0-33.55,47,138.61,138.61,0,0,0,0,114.61,146.13,146.13,0,0,0,33.55,47Q1866.14,4316.71,1895.24,4328.46Z" transform="translate(-930.28 -416.72)"/><path class="cls-1" d="M2277.83,4057.47H2187.5v-51.16h90.33Zm28.19-51.16H2476v51.16H2357.45v320.06H2306Z" transform="translate(-930.28 -416.72)"/><path class="cls-1" d="M2737.55,4327.93H2859v50.39H2687.17v-372h50.38Z" transform="translate(-930.28 -416.72)"/><path class="cls-1" d="M2880.61,4006.31h288.47v51.16H2907.5Zm26.89,321.62h261.58v50.39H2880.61Zm0-110.43v-51.16h261.58v51.16Z" transform="translate(-930.28 -416.72)"/><path class="cls-1" d="M3487.58,4006.31h52.21L3365.4,4392.68l-176.21-386.37h53L3365.4,4276l60.31-132.36,18.79-42,14.36-32.37Z" transform="translate(-930.28 -416.72)"/><path class="cls-1" d="M3558.06,4006.31h288.48v51.16H3585ZM3585,4327.93h261.59v50.39H3558.06Zm0-110.43v-51.16h261.59v51.16Z" transform="translate(-930.28 -416.72)"/><path class="cls-1" d="M3946,4327.93h121.39v50.39H3895.61v-372H3946Z" transform="translate(-930.28 -416.72)"/></svg>