<svg width="54" height="54" viewBox="0 0 54 54" fill="none" xmlns="http://www.w3.org/2000/svg">
<path d="M36.4635 19.1959H47.7195C48.6715 19.1959 49.3995 18.4687 49.3995 17.5177C49.3995 16.5667 48.6715 15.8395 47.7195 15.8395H40.5515L53.0955 3.25269C53.7675 2.5814 53.7675 1.51851 53.0955 0.847221C52.4235 0.175926 51.3595 0.175926 50.6875 0.847221L38.1995 13.434V6.27351C38.1995 5.32252 37.4715 4.59528 36.5195 4.59528C35.5675 4.59528 34.8395 5.32252 34.8395 6.27351V17.4618C34.7835 18.4128 35.5675 19.1959 36.4635 19.1959Z" fill="#35B5AC"/>
<path d="M17.4801 34.748H6.28015C5.32815 34.748 4.60015 35.4753 4.60015 36.4263C4.60015 37.3773 5.32815 38.1045 6.28015 38.1045H13.4481L0.904146 50.6913C0.232147 51.3626 0.232147 52.4255 0.904146 53.0968C1.24015 53.4324 1.68815 53.6002 2.08015 53.6002C2.47215 53.6002 2.92015 53.4324 3.25615 53.0968L15.8001 40.51V47.6705C15.8001 48.6215 16.5281 49.3487 17.4801 49.3487C18.4321 49.3487 19.1601 48.6215 19.1601 47.6705V36.4822C19.2161 35.5312 18.4321 34.748 17.4801 34.748Z" fill="#35B5AC"/>
<path d="M40.5519 38.1602H47.7199C48.6719 38.1602 49.3999 37.4329 49.3999 36.4819C49.3999 35.5309 48.6719 34.8037 47.7199 34.8037H36.4639C35.5119 34.8037 34.7839 35.5309 34.7839 36.4819V47.6702C34.7839 48.6212 35.5119 49.3484 36.4639 49.3484C37.4159 49.3484 38.1439 48.6212 38.1439 47.6702V40.5097L50.6879 53.0405C51.0239 53.3762 51.4719 53.544 51.8639 53.544C52.3119 53.544 52.7039 53.3762 53.0399 53.0405C53.7119 52.3692 53.7119 51.3064 53.0399 50.6351L40.5519 38.1602Z" fill="#35B5AC"/>
<path d="M17.48 4.595C16.528 4.595 15.8 5.32224 15.8 6.27324V13.4337L3.25599 0.902885C2.58399 0.231591 1.51999 0.231591 0.847994 0.902885C0.175994 1.57418 0.175994 2.63706 0.847994 3.30836L13.448 15.7832H6.27999C5.32799 15.7832 4.59999 16.5105 4.59999 17.4615C4.59999 18.4125 5.32799 19.1397 6.27999 19.1397H17.48C18.432 19.1397 19.16 18.4125 19.16 17.4615V6.27324C19.216 5.32224 18.432 4.595 17.48 4.595Z" fill="#35B5AC"/>
<path d="M27.0004 19.8672C23.0804 19.8672 19.8884 23.0558 19.8884 26.9717C19.8884 30.8876 23.0804 34.0763 27.0004 34.0763C30.9204 34.0763 34.1124 30.8876 34.1124 26.9717C34.1124 23.0558 30.9204 19.8672 27.0004 19.8672ZM27.0004 30.7198C24.9284 30.7198 23.2484 29.0415 23.2484 26.9717C23.2484 24.9019 24.9284 23.2237 27.0004 23.2237C29.0724 23.2237 30.7524 24.9019 30.7524 26.9717C30.7524 29.0415 29.0724 30.7198 27.0004 30.7198Z" fill="#35B5AC"/>
</svg>
