<svg width="1752" height="2429" viewBox="0 0 1752 2429" fill="none" xmlns="http://www.w3.org/2000/svg">
<path d="M1538.62 2213.81C1540.01 2190.87 1542.07 2167.95 1547.54 2145.67C1554.36 2117.89 1566.85 2090.84 1587.45 2070.99C1561.24 2082.82 1542.69 2107.69 1532.45 2134.56C1523.32 2158.56 1520.09 2184.37 1517.9 2210.06L1517.32 2209.96C1517.64 2188.43 1517.42 2166.81 1513.04 2145.77C1508.7 2124.93 1499.85 2104.46 1485.28 2089.15C1488.66 2094.01 1490.64 2100.15 1492.12 2105.96C1500.37 2138.9 1501.78 2173.19 1496.29 2206.7C1390.29 2191.33 1212.82 2180.06 1003.38 2176.33C1016.66 2145.07 1034.02 2115.71 1055 2089C1059.41 2083.39 1064.27 2077.76 1070.07 2073.74C1026.59 2096.44 990.39 2132.67 967 2175.74C929.2 2175.23 890.47 2174.97 851 2174.97C644.14 2174.97 456.83 2182.2 321.08 2193.89C332.79 2163.36 341.14 2113.32 318.83 2072.63C318.83 2072.63 304.83 2157.63 286.56 2197.07C275.56 2198.15 264.98 2199.27 254.82 2200.42C254.17 2198.87 253.52 2197.24 252.88 2195.42C189.2 2018.03 100.51 2077.16 100.51 2077.16C100.51 2077.16 162.34 2057.97 230.26 2203.33C148.39 2213.71 100.51 2226.26 100.51 2239.76C100.51 2275.56 436.51 2304.58 851 2304.58C1265.49 2304.58 1601.49 2275.58 1601.49 2239.76C1601.49 2230.56 1579 2221.77 1538.62 2213.81Z" fill="#E9F2FD"/>
<path d="M1070 2073.73C1072.94 2072.2 1075.91 2070.73 1078.92 2069.29C1075.73 2070.29 1072.72 2071.79 1070 2073.73Z" fill="#E9F2FD"/>
<path d="M1478.21 2082.48C1480.7 2084.57 1483.07 2086.79 1485.31 2089.15C1483.48 2086.41 1481.05 2084.13 1478.21 2082.48Z" fill="#E9F2FD"/>
<path d="M1509.07 1253.58C1478.8 1295.91 1442.13 1332.19 1405.28 1357.26C1383.68 1371.94 1361.35 1385.5 1338.36 1397.88C1324.71 1405.21 1311.36 1411.88 1298.43 1417.88C1289.43 1421.99 1280.43 1425.97 1271.36 1429.75C1249.46 1438.88 1227.1 1447.07 1204.44 1454.33C1182.44 1461.4 1160.11 1467.63 1137.44 1473.04C1115.3 1478.37 1092.94 1482.91 1070.52 1486.69C1048.26 1490.52 1025.93 1493.64 1003.52 1496.04C981.113 1498.44 958.78 1500.24 936.52 1501.43C922.973 1502.14 909.483 1502.63 896.05 1502.9C887.223 1503.09 878.397 1503.16 869.57 1503.11C824.354 1503.06 779.192 1500.01 734.38 1493.98C646.99 1482.1 561.62 1457.98 483.01 1418.37C463.797 1408.67 445.06 1398.08 426.8 1386.6C199.46 1243.67 104.65 987.73 135 739.77C149.546 620.837 192.382 507.121 259.92 408.15C366.66 252.15 534 141.21 718.45 101.31C724.67 99.9766 730.917 98.7066 737.19 97.4999C850.31 76.0599 1000.46 70.4099 1098.49 141.05C1125.97 160.732 1148.63 186.397 1164.75 216.11C1204.09 288.26 1194.53 374.96 1202.75 451.8C1216.4 579.87 1266.52 659.38 1362.5 741.18C1374.7 751.59 1387.17 762.26 1399.68 773.24C1462.05 827.94 1531.35 891.44 1565.18 970.47C1604.12 1061.65 1569.2 1169.52 1509.07 1253.58Z" fill="#E9F2FD"/>
<path d="M1509.15 1263.75C1478.88 1306.08 1442.21 1342.36 1405.36 1367.43C1383.76 1382.11 1361.43 1395.67 1338.44 1408.05C1324.79 1415.38 1311.44 1422.05 1298.51 1428.05C1289.51 1432.16 1280.51 1436.14 1271.44 1439.92C1249.54 1449.05 1227.18 1457.24 1204.52 1464.5C1182.52 1471.57 1160.19 1477.8 1137.52 1483.21C1115.38 1488.54 1093.02 1493.08 1070.6 1496.86C1048.34 1500.69 1026.01 1503.81 1003.6 1506.21C981.193 1508.61 958.86 1510.41 936.6 1511.6C923.053 1512.31 909.563 1512.8 896.13 1513.07C887.303 1513.26 878.476 1513.33 869.65 1513.28C824.434 1513.23 779.272 1510.18 734.46 1504.15C647.07 1492.27 561.7 1468.15 483.09 1428.54C463.877 1418.84 445.14 1408.25 426.88 1396.77C199.54 1253.84 104.73 997.9 135.08 749.94C149.626 631.007 192.462 517.292 260 418.32C366.74 262.32 534.08 151.38 718.53 111.48C724.75 110.147 730.997 108.877 737.27 107.67C850.39 86.2301 1000.54 80.58 1098.57 151.22C1126.05 170.902 1148.71 196.567 1164.83 226.28C1204.17 298.43 1194.61 385.13 1202.83 461.97C1216.48 590.04 1266.6 669.55 1362.58 751.35C1374.78 761.76 1387.25 772.43 1399.76 783.41C1462.13 838.11 1531.43 901.61 1565.26 980.64C1604.2 1071.82 1569.28 1179.69 1509.15 1263.75Z" stroke="#E9F2FD" stroke-width="3" stroke-miterlimit="10"/>
<path d="M936.66 983.49V1511.57C923.113 1512.28 909.623 1512.77 896.19 1513.04C887.363 1513.23 878.537 1513.3 869.71 1513.25V983.49H936.66Z" fill="#A2C8F5"/>
<path opacity="0.8" d="M1070.63 1223.86V1496.86C1048.37 1500.69 1026.04 1503.81 1003.63 1506.21V1223.86H1070.63Z" fill="white"/>
<path d="M1204.52 1123.42V1464.42C1182.52 1471.49 1160.14 1477.72 1137.6 1483.11V1123.42H1204.52Z" fill="#7CABD9"/>
<path d="M1338.44 827.55V1408.05C1324.79 1415.38 1311.44 1422.05 1298.51 1428.05C1289.51 1432.16 1280.51 1436.14 1271.51 1439.92V827.55H1338.44Z" fill="#A2C8F5"/>
<path d="M1472.31 1050.89V1314.51C1471.31 1315.7 1470.37 1316.86 1469.42 1318.01C1469.42 1318.01 1469.42 1318.01 1469.35 1318.01C1449.07 1335.78 1427.69 1352.26 1405.35 1367.36V1050.89H1472.31Z" fill="#BAD9F5"/>
<path d="M1183.16 607.43C1054.59 614.64 924.6 614.88 798.63 611.85C725.79 481.48 727 288 718.48 111.48C724.7 110.147 730.947 108.877 737.22 107.67C850.34 86.2301 1000.49 80.58 1098.52 151.22C1097 257.36 1105.28 464.5 1183.16 607.43Z" fill="white"/>
<path d="M893.73 199.4C897.08 198.14 900.65 197.8 904.12 197.25C907.59 196.7 911.12 196.42 914.62 196.04C921.62 195.41 928.62 194.89 935.62 194.58C942.62 194.27 949.62 194.08 956.62 193.87C963.62 193.66 970.62 193.79 977.62 193.76L998.62 194.21C1005.62 194.55 1012.62 194.72 1019.62 195.21C1033.62 196.06 1047.62 197.21 1061.55 199.38C1047.55 201 1033.55 201.76 1019.55 202.23C1012.55 202.55 1005.55 202.54 998.55 202.71H977.55C963.55 202.5 949.55 202.23 935.62 201.53C928.62 201.24 921.62 200.8 914.62 200.39L904.14 199.69L898.9 199.37C897.18 199.21 895.448 199.22 893.73 199.4Z" fill="#BAD9F5"/>
<path d="M893.73 232.37C897.08 231.11 900.65 230.77 904.12 230.22C907.59 229.67 911.12 229.39 914.62 229.01C921.62 228.38 928.62 227.86 935.62 227.55C942.62 227.24 949.62 227.05 956.62 226.84C963.62 226.63 970.62 226.76 977.62 226.74L998.62 227.19C1005.62 227.52 1012.62 227.69 1019.62 228.19C1033.62 229.04 1047.62 230.19 1061.55 232.36C1047.55 233.98 1033.55 234.74 1019.55 235.21C1012.55 235.53 1005.55 235.52 998.55 235.69H977.55C963.55 235.48 949.55 235.21 935.62 234.51C928.62 234.22 921.62 233.78 914.62 233.37L904.14 232.67L898.9 232.35C897.18 232.186 895.448 232.193 893.73 232.37Z" fill="#BAD9F5"/>
<path d="M893.73 265.34C897.08 264.08 900.65 263.74 904.12 263.19C907.59 262.64 911.12 262.36 914.62 261.98C921.62 261.35 928.62 260.84 935.62 260.52C942.62 260.2 949.62 260.02 956.62 259.81C963.62 259.6 970.62 259.73 977.62 259.71L998.62 260.16C1005.62 260.49 1012.62 260.66 1019.62 261.16C1033.62 262.01 1047.62 263.21 1061.55 265.33C1047.55 266.95 1033.55 267.71 1019.55 268.18C1012.55 268.5 1005.55 268.49 998.55 268.66H977.55C963.55 268.45 949.55 268.18 935.62 267.48C928.62 267.2 921.62 266.75 914.62 266.34L904.14 265.64L898.9 265.32C897.18 265.156 895.448 265.163 893.73 265.34Z" fill="#BAD9F5"/>
<path d="M815.8 370.37C820.93 369.03 826.23 368.7 831.46 368.14C836.69 367.58 841.96 367.29 847.2 366.9C857.7 366.27 868.2 365.75 878.7 365.43C889.2 365.11 899.7 364.93 910.2 364.72L941.7 364.63L973.18 365.1C983.68 365.44 994.18 365.62 1004.66 366.1C1025.66 366.97 1046.66 368.18 1067.58 370.33C1046.58 371.93 1025.58 372.67 1004.58 373.12C994.09 373.43 983.58 373.41 973.1 373.58H941.63C920.63 373.36 899.68 373.08 878.7 372.38C868.22 372.1 857.7 371.65 847.25 371.25L831.51 370.57L823.65 370.28C821.035 370.115 818.411 370.145 815.8 370.37Z" fill="#BAD9F5"/>
<path d="M824.79 412.33C829.92 410.99 835.22 410.66 840.45 410.1C845.68 409.54 850.95 409.25 856.2 408.87C866.7 408.23 877.2 407.71 887.7 407.39C898.2 407.07 908.7 406.89 919.2 406.69L950.69 406.6L982.17 407.06C992.67 407.4 1003.17 407.58 1013.65 408.06C1034.65 408.93 1055.65 410.15 1076.57 412.29C1055.57 413.89 1034.57 414.63 1013.57 415.08C1003.08 415.39 992.57 415.37 982.09 415.54H950.62C929.62 415.32 908.62 415.04 887.7 414.34C877.21 414.06 866.7 413.62 856.24 413.22L840.51 412.54L832.64 412.24C830.024 412.08 827.401 412.111 824.79 412.33Z" fill="#BAD9F5"/>
<path d="M908.72 507.74C916.87 505.96 925.18 505.49 933.41 504.74C941.64 503.99 949.9 503.64 958.16 503.32C974.65 502.59 991.16 502.45 1007.65 502.45L1032.38 502.84C1040.63 503.14 1048.87 503.29 1057.11 503.77C1073.6 504.57 1090.11 505.7 1106.55 507.77C1090.04 509.46 1073.55 510.29 1057.06 510.77C1048.81 511.12 1040.57 511.14 1032.32 511.33L1007.6 511.42L982.88 511.07C974.64 510.79 966.4 510.71 958.16 510.29C949.92 509.87 941.69 509.54 933.45 509.11C925.21 508.68 917 507.93 908.72 507.74Z" fill="#BAD9F5"/>
<path d="M980.66 549.72C986.51 547.92 992.6 547.46 998.58 546.72C1004.58 546.12 1010.58 545.62 1016.58 545.3C1028.58 544.58 1040.58 544.44 1052.58 544.44C1064.58 544.44 1076.58 544.97 1088.58 545.77C1100.62 546.479 1112.61 547.814 1124.51 549.77C1112.51 551.46 1100.51 552.28 1088.51 552.77C1076.51 553.26 1064.51 553.53 1052.51 553.41L1034.51 553.06C1028.51 552.79 1022.51 552.7 1016.51 552.28C1010.51 551.86 1004.51 551.53 998.51 551.1C992.51 550.67 986.68 549.9 980.66 549.72Z" fill="#BAD9F5"/>
<path d="M853.37 455.07C854.93 459.02 856.42 462.99 857.93 466.95L862.36 478.87L871 502.8C873.82 510.8 876.597 518.8 879.33 526.8C882.063 534.8 884.767 542.823 887.44 550.87L878.75 551.76C880.34 528.98 885.3 506.56 892.11 484.93C898.92 463.3 907.6 442.38 916.77 421.87C925.94 401.36 935.71 381.21 945.02 360.87C949.64 350.7 954.22 340.51 958.53 330.2L961.7 322.44L964.8 314.64C965.8 312.02 966.8 309.4 967.8 306.79L970.69 298.88L968.95 307.13C968.31 309.87 967.64 312.6 966.95 315.33L964.76 323.49L962.37 331.58C959.083 342.347 955.437 352.997 951.43 363.53C943.52 384.6 934.65 405.24 926.06 425.86C917.47 446.48 909.17 467.12 902.32 488.17C895.47 509.22 890.18 530.68 887.62 552.56L885 575L878.93 553.47C876.63 545.33 874.37 537.17 872.15 528.99C869.93 520.81 867.743 512.63 865.59 504.45L859.3 479.82L856.3 467.46C855.28 463.34 854.29 459.22 853.37 455.07Z" fill="#7CABD9"/>
<path d="M920 425.49C909.691 421.346 898.417 420.216 887.49 422.23C876.671 424.136 866.47 428.619 857.75 435.3C849.118 441.977 841.947 450.352 836.68 459.91C831.448 469.485 827.737 479.815 825.68 490.53C823.481 501.172 822.888 512.083 823.92 522.9C825.08 533.55 828.49 544.04 835.02 552.24C841.55 560.44 850.74 566.39 860.78 569.78C870.97 573.1 881.768 574.124 892.4 572.78C903.169 571.445 913.706 568.649 923.72 564.47C933.867 560.421 943.61 555.426 952.82 549.55C961.82 543.61 970.16 536.42 976.27 527.65C982.48 518.928 986.19 508.676 987 498C987.289 492.708 986.611 487.409 985 482.36C983.355 477.273 980.889 472.49 977.7 468.2C971.35 459.48 962.54 452.62 952.86 447.68C943.065 442.681 932.368 439.692 921.4 438.89C910.333 438.103 899.22 439.496 888.69 442.99C909.35 434.56 933.63 435.48 954.18 444.99C964.578 449.764 973.702 456.925 980.81 465.89C984.38 470.451 987.181 475.565 989.1 481.03C991.002 486.558 991.879 492.387 991.69 498.23C991.145 509.886 987.307 521.148 980.62 530.71C974.12 540.32 965.36 548.04 955.95 554.4C946.497 560.56 936.466 565.785 926 570C915.53 574.23 904.53 577.57 893.1 578.84C881.581 580.255 869.892 579.104 858.87 575.47C847.95 571.7 837.59 565.24 830.45 555.79C826.882 551.126 824.099 545.91 822.21 540.35C820.319 534.885 819.104 529.21 818.59 523.45C817.615 512.086 818.456 500.64 821.08 489.54C823.521 478.443 827.67 467.793 833.38 457.97C839.112 448.123 846.829 439.576 856.04 432.87C865.324 426.333 876.047 422.131 887.3 420.62C892.871 419.86 898.519 419.86 904.09 420.62C909.61 421.423 914.976 423.066 920 425.49Z" fill="#7CABD9"/>
<path d="M318.02 877.11H253.54C240.506 877.11 229.94 887.676 229.94 900.71V988.7C229.94 1001.73 240.506 1012.3 253.54 1012.3H318.02C331.054 1012.3 341.62 1001.73 341.62 988.7V900.71C341.62 887.676 331.054 877.11 318.02 877.11Z" fill="white"/>
<path d="M392.55 943.72C420.64 942.1 448.72 941.25 476.8 940.72C490.8 940.36 504.88 940.28 518.92 940.06L561.05 939.85L603.17 940.05C617.17 940.27 631.25 940.34 645.29 940.71C673.38 941.28 701.46 942.13 729.54 943.71C701.46 945.34 673.38 946.2 645.29 946.77C631.29 947.14 617.21 947.21 603.17 947.42L561.05 947.63L518.92 947.41C504.92 947.2 490.84 947.12 476.8 946.76C448.72 946.19 420.64 945.34 392.55 943.72Z" fill="#BAD9F5"/>
<path d="M392.55 988.79C428.47 987.16 464.39 986.32 500.31 985.79C518.31 985.43 536.23 985.35 554.19 985.14L608.07 984.92L661.95 985.13C679.95 985.34 697.87 985.41 715.83 985.78C751.75 986.35 787.67 987.2 823.58 988.84C787.67 990.47 751.75 991.32 715.83 991.84C697.83 992.21 679.91 992.28 661.95 992.5L608.07 992.7L554.19 992.49C536.19 992.27 518.27 992.19 500.31 991.83C464.39 991.26 428.47 990.41 392.55 988.79Z" fill="white"/>
<path d="M252.47 950.61C255.37 953.06 258.19 955.61 260.99 958.14C263.79 960.67 266.56 963.25 269.27 965.88C271.98 968.51 274.74 971.1 277.4 973.77C280.06 976.44 282.8 979.05 285.4 981.77L280.27 982.97C282.46 974.74 284.68 966.52 287.11 958.36C289.54 950.2 291.98 942.05 294.66 933.97C297.34 925.89 300.02 917.8 302.93 909.79C305.84 901.78 308.93 893.79 312.28 885.93C310.82 894.37 309.04 902.72 307.08 911.02C305.12 919.32 303.08 927.58 300.79 935.79C298.5 944 296.23 952.19 293.79 960.35C291.35 968.51 288.79 976.6 286.08 984.69L284.41 989.77L280.95 985.89C278.44 983.07 276.05 980.15 273.6 977.28C271.15 974.41 268.76 971.48 266.37 968.56C263.98 965.64 261.65 962.66 259.29 959.7C256.93 956.74 254.69 953.7 252.47 950.61Z" fill="#BAD9F5"/>
<path d="M318.02 710.58H253.54C240.506 710.58 229.94 721.146 229.94 734.18V822.17C229.94 835.204 240.506 845.77 253.54 845.77H318.02C331.054 845.77 341.62 835.204 341.62 822.17V734.18C341.62 721.146 331.054 710.58 318.02 710.58Z" fill="white"/>
<path d="M392.55 777.19C420.64 775.57 448.72 774.72 476.8 774.19C490.8 773.83 504.88 773.75 518.92 773.54L561.05 773.32L603.17 773.53C617.17 773.75 631.25 773.82 645.29 774.18C673.38 774.76 701.46 775.61 729.54 777.24C701.46 778.87 673.38 779.72 645.29 780.3C631.29 780.66 617.21 780.73 603.17 780.95L561.05 781.16L518.92 780.94C504.92 780.73 490.84 780.65 476.8 780.29C448.72 779.66 420.64 778.81 392.55 777.19Z" fill="white"/>
<path d="M392.55 822.25C428.47 820.63 464.39 819.78 500.31 819.25C518.31 818.88 536.23 818.8 554.19 818.59L608.07 818.38L661.95 818.58C679.95 818.8 697.87 818.87 715.83 819.23C751.75 819.81 787.67 820.66 823.58 822.29C787.67 823.92 751.75 824.78 715.83 825.35C697.83 825.71 679.91 825.78 661.95 826L608.07 826.21L554.19 825.99C536.19 825.78 518.27 825.7 500.31 825.34C464.39 824.72 428.47 823.87 392.55 822.25Z" fill="#BAD9F5"/>
<path d="M318.02 544.04H253.54C240.506 544.04 229.94 554.606 229.94 567.64V655.63C229.94 668.664 240.506 679.23 253.54 679.23H318.02C331.054 679.23 341.62 668.664 341.62 655.63V567.64C341.62 554.606 331.054 544.04 318.02 544.04Z" fill="white"/>
<path d="M392.55 610.66C420.64 609.03 448.72 608.19 476.8 607.66C490.8 607.3 504.88 607.22 518.92 607.01L561.05 606.79L603.17 606.99C617.17 607.21 631.25 607.28 645.29 607.65C673.38 608.22 701.46 609.07 729.54 610.71C701.46 612.34 673.38 613.19 645.29 613.76C631.29 614.13 617.21 614.2 603.17 614.42L561.05 614.62L518.92 614.4C504.92 614.19 490.84 614.11 476.8 613.75C448.72 613.12 420.64 612.28 392.55 610.66Z" fill="white"/>
<path d="M392.55 655.72C428.47 654.1 464.39 653.25 500.31 652.67C518.31 652.31 536.23 652.23 554.19 652.02L608.07 651.8L661.95 652.01C679.95 652.23 697.87 652.29 715.83 652.66C751.75 653.23 787.67 654.09 823.58 655.72C787.67 657.35 751.75 658.2 715.83 658.72C697.83 659.09 679.91 659.16 661.95 659.38L608.07 659.58L554.19 659.37C536.19 659.15 518.27 659.07 500.31 658.71C464.39 658.19 428.47 657.34 392.55 655.72Z" fill="#BAD9F5"/>
<path d="M252.47 617.54C255.37 619.99 258.19 622.54 260.99 625.07C263.79 627.6 266.56 630.19 269.27 632.82C271.98 635.45 274.74 638.03 277.4 640.7C280.06 643.37 282.8 645.98 285.4 648.7L280.27 649.9C282.46 641.67 284.68 633.45 287.11 625.29C289.54 617.13 291.98 608.98 294.66 600.9C297.34 592.82 300.02 584.73 302.93 576.72C305.84 568.71 308.93 560.72 312.28 552.86C310.82 561.3 309.04 569.65 307.08 577.95C305.12 586.25 303.08 594.51 300.79 602.72C298.5 610.93 296.23 619.12 293.79 627.28C291.35 635.44 288.79 643.54 286.08 651.62L284.41 656.7L280.95 652.82C278.44 650 276.05 647.08 273.6 644.21C271.15 641.34 268.76 638.41 266.37 635.49C263.98 632.57 261.65 629.59 259.29 626.63C256.93 623.67 254.69 620.63 252.47 617.54Z" fill="#BAD9F5"/>
<path d="M286.39 781.69C291.14 776.43 295.8 771.08 300.28 765.56C305.966 758.634 311.26 751.396 316.14 743.88C309.03 749.333 302.229 755.179 295.77 761.39C290.89 766.02 286.18 770.81 281.55 775.67C281.02 775.02 280.55 774.35 279.98 773.67C274.42 767.003 268.65 760.49 262.67 754.13C256.69 747.73 250.346 741.68 243.67 736.01C248.016 743.606 252.787 750.951 257.96 758.01C263.067 765.07 268.4 771.943 273.96 778.63C274.7 779.52 275.47 780.37 276.21 781.25C270.47 787.49 264.89 793.89 259.53 800.49C253.842 807.414 248.547 814.652 243.67 822.17C250.793 816.728 257.601 810.886 264.06 804.67C270 799.03 275.73 793.19 281.31 787.21C284.56 790.92 287.86 794.59 291.31 798.21C297.286 804.611 303.63 810.658 310.31 816.32C305.973 808.721 301.205 801.375 296.03 794.32C292.88 790 289.66 785.84 286.39 781.69Z" fill="#BAD9F5"/>
<path d="M1297.42 585.83C1320.76 629.42 1358.66 662.71 1400.76 676.61C1434.35 687.71 1476.01 682.94 1492.71 648.93C1499.15 635.84 1500.94 620.06 1500.38 604.64C1499.61 583.626 1494.76 562.962 1486.1 543.8C1473.9 517 1454.76 494.93 1441.95 468.49C1430.82 445.49 1424.78 419.95 1414.54 396.49C1404.3 373.03 1388.14 350.49 1366.4 343.96C1342.1 336.67 1317.07 351.8 1302.22 373.96C1262.36 433.48 1261.86 519.43 1297.42 585.83Z" fill="#E9F2FD"/>
<path d="M1297.42 585.83C1320.76 629.42 1358.66 662.71 1400.76 676.61C1434.35 687.71 1476.01 682.94 1492.71 648.93C1499.15 635.84 1500.94 620.06 1500.38 604.64C1499.61 583.626 1494.76 562.962 1486.1 543.8C1473.9 517 1454.76 494.93 1441.95 468.49C1430.82 445.49 1424.78 419.95 1414.54 396.49C1404.3 373.03 1388.14 350.49 1366.4 343.96C1342.1 336.67 1317.07 351.8 1302.22 373.96C1262.36 433.48 1261.86 519.43 1297.42 585.83Z" stroke="#E9F2FD" stroke-width="3" stroke-miterlimit="10"/>
<path d="M1041 829.68C1041 829.68 1156.91 950.33 1133.26 1026.03H1076.48L1041 865.17V829.68Z" fill="#771930"/>
<path d="M1021.48 857.83L1025.74 865.26L1063.66 931.66C1063.66 931.66 1073.5 910.21 1082.75 891.24C1089.39 877.63 1095.75 865.31 1097.91 863.11C1103.07 857.95 1112.41 855.56 1118.91 852.58C1123.5 850.48 1128.25 848.73 1132.96 846.95C1136.32 845.7 1144.86 843.88 1146.21 840.64C1147.3 838.01 1144.77 833.21 1144.58 830.39C1144.34 827.01 1145.15 823.39 1145.41 820.01C1146.8 802.01 1146.94 783.86 1146.64 765.81C1146.65 765.557 1146.65 765.303 1146.64 765.05C1146.29 744.35 1145.01 727.58 1142.81 728.67C1141.89 729.14 1139.38 730.85 1135.81 733.4C1130.27 737.4 1122.18 743.4 1113.45 749.96C1096.09 762.96 1076.22 778.25 1069 784.03C1060.13 791.12 1053.65 807.73 1050.36 817.85C1048.95 822.19 1046.93 826.307 1044.36 830.08C1043.44 831.43 1042.47 832.73 1041.43 833.99L1027.43 850.78L1021.48 857.83Z" fill="#FB928E"/>
<g opacity="0.7">
<path opacity="0.7" d="M1076.05 816.67C1076.5 818.85 1078.3 820.46 1080.05 821.88C1084.9 825.88 1091.21 831.79 1097.25 833.79C1101.89 835.33 1106.73 834.16 1111.39 836.56C1115 838.42 1117.75 841.56 1121.12 843.86C1126.76 847.64 1132.27 846.22 1137.37 842.46C1139.58 840.992 1141.42 839.043 1142.76 836.76C1145.81 830.65 1147.09 794.65 1146.62 765.76C1146.64 765.507 1146.64 765.253 1146.62 765C1146.27 744.3 1144.99 727.53 1142.79 728.62C1141.87 729.09 1139.36 730.8 1135.79 733.35C1130.25 737.35 1122.16 743.35 1113.43 749.91C1110.17 757.863 1106.9 765.813 1103.61 773.76C1099.9 782.76 1096.02 792.04 1089.07 798.83C1087.79 800.11 1086.39 801.29 1085 802.5C1084.62 802.81 1084.26 803.11 1083.91 803.42C1080.81 806.12 1077.91 808.93 1076.55 812.72C1076.02 813.966 1075.85 815.332 1076.05 816.67Z" fill="#F15E64"/>
</g>
<path d="M1165.07 660.89C1154.26 683.43 1110.5 774.47 1096.45 801.31C1096.08 801.997 1095.88 802.762 1095.85 803.542C1095.83 804.322 1095.99 805.096 1096.33 805.803C1096.66 806.509 1097.15 807.129 1097.76 807.611C1098.38 808.093 1099.1 808.425 1099.86 808.58C1101.1 808.84 1102.43 809.14 1103.78 809.48C1108.09 810.56 1112.71 811.94 1115.94 812.95C1117.12 813.316 1118.39 813.24 1119.51 812.735C1120.64 812.231 1121.54 811.333 1122.05 810.21L1184.62 671.66C1185.12 670.546 1185.2 669.288 1184.85 668.119C1184.49 666.95 1183.73 665.949 1182.69 665.3L1177.69 662.17L1172.3 658.8C1171.7 658.415 1171.03 658.163 1170.32 658.06C1169.61 657.957 1168.9 658.007 1168.21 658.205C1167.53 658.402 1166.89 658.744 1166.35 659.208C1165.81 659.671 1165.37 660.244 1165.07 660.89Z" fill="#133C52"/>
<path d="M1165.07 660.89C1154.26 683.43 1110.5 774.47 1096.45 801.31C1096.08 801.997 1095.88 802.762 1095.85 803.542C1095.83 804.322 1095.99 805.096 1096.33 805.803C1096.66 806.509 1097.15 807.129 1097.76 807.611C1098.38 808.093 1099.1 808.425 1099.86 808.58H1100C1101.09 808.824 1102.22 808.698 1103.23 808.221C1104.24 807.745 1105.06 806.945 1105.56 805.95C1123.01 771.47 1160.97 696.33 1175.69 666.23C1176.25 665.111 1176.36 663.825 1176.02 662.624C1175.68 661.422 1174.89 660.394 1173.83 659.74L1172.29 658.74C1171.69 658.359 1171.01 658.111 1170.3 658.013C1169.6 657.916 1168.88 657.971 1168.19 658.174C1167.51 658.378 1166.88 658.726 1166.34 659.194C1165.8 659.663 1165.37 660.241 1165.07 660.89Z" fill="#3A7091"/>
<path d="M1064.65 2033.17L1098.55 2100.26L1145.03 2192.28L1249.12 2142.6L1185.7 2023.99L1155.75 1967.97L1121.38 1903.68L1080.43 1997.16L1064.65 2033.17Z" fill="#FB928E"/>
<path d="M676 1727.77C676 1727.77 715.53 1746.22 731.36 1743.57C747.19 1740.92 852.62 1806.85 868.42 1783.12C869.614 1781.13 870.584 1779.01 871.31 1776.81C888.04 1730.28 918.2 1496.91 913.25 1472.04L836.25 1430.2L699.76 1356.06L676 1727.77Z" fill="#96293B"/>
<path d="M737.89 1694.81C746.31 1699 837.22 1716.7 864 1753.22C869.23 1760.34 872 1768.22 871.26 1776.81C887.99 1730.28 918.15 1496.91 913.2 1472.04L836.2 1430.2L824.94 1468.09C824.94 1468.09 823.34 1471.76 820.52 1478.19C801.55 1521.56 728.68 1690.23 737.89 1694.81Z" fill="#CF3547"/>
<g opacity="0.7">
<path opacity="0.7" d="M1025.74 865.26L1063.66 931.66C1063.66 931.66 1073.5 910.21 1082.75 891.24C1066.99 873.24 1055.33 851.64 1044.28 830.08C1043.36 831.43 1042.39 832.73 1041.35 833.99L1027.35 850.78C1026.55 855.574 1026.02 860.408 1025.74 865.26Z" fill="#F15E64"/>
</g>
<path d="M761.61 677.27C761.61 677.27 823.61 1128.03 916.49 1120.13C922.41 1119.64 928.49 1118.81 934.54 1117.7C970.76 1111.22 1009.98 1094.99 1043.93 1077.93C1074.84 1062.33 1104.69 1044.73 1133.3 1025.22C1099.52 1009.42 1040.38 832.81 1040.38 832.81L990 874.2L947.42 909.2C947.42 909.2 944.74 897.35 940.01 879.32C926.01 825.69 893.86 717.42 860.13 703.6C815.12 685.17 761.61 677.27 761.61 677.27Z" fill="#CF3547"/>
<path opacity="0.3" d="M737.89 1694.81C746.31 1699 837.22 1716.7 864 1753.22C864.26 1735.1 862.27 1716.65 859.62 1698.93C854.987 1667.85 848.837 1637.04 841.17 1606.51C831.92 1569.58 820.99 1528.18 840.29 1495.35C835.68 1489.74 828.23 1482.48 820.47 1478.19C801.55 1521.56 728.68 1690.23 737.89 1694.81Z" fill="#771930"/>
<g opacity="0.7">
<path opacity="0.7" d="M1064.65 2033.17L1098.55 2100.26C1113.43 2093.21 1126.23 2085.5 1139.21 2072.46C1155.06 2056.59 1170.28 2040.24 1185.7 2023.99L1155.75 1967.99C1152.42 1967.75 1149.07 1967.79 1145.75 1968.11C1133.19 1969.32 1121.26 1974.21 1109.88 1979.68C1099.49 1984.51 1089.62 1990.37 1080.41 1997.19L1064.65 2033.17Z" fill="#F15E64"/>
</g>
<path d="M818.25 1538.12C858.06 1609.27 900.19 1677.88 918.25 1706.95C924.02 1716.27 927.36 1721.52 927.36 1721.52C967 1885 1071.7 2074 1071.7 2074C1071.7 2074 1204.48 2019.05 1178.13 1995.32C1151.78 1971.59 1070 1642.08 1048.94 1592C1036.1 1561.51 985.07 1381.13 947.1 1244.71C942.21 1227.06 937.5 1210.12 933.15 1194.37C928.22 1176.51 923.71 1160.14 919.76 1145.87C915.99 1132.2 912.76 1120.44 910.22 1111.14C906.11 1096.14 903.74 1087.54 903.74 1087.54C903.74 1087.54 901.99 1089.54 898.82 1093.35C890.97 1102.68 874.48 1122.43 854.72 1147.05C806.44 1207.33 738.72 1296.8 730.93 1333.65C725.07 1361.45 769.94 1451.68 818.25 1538.12Z" fill="#17465B"/>
<g opacity="0.4">
<path opacity="0.4" d="M818.25 1538.12C858.06 1609.27 900.19 1677.88 918.25 1706.95C910.3 1659.54 904.41 1611.88 904.86 1563.88C905.86 1456.55 938.62 1351.28 947.06 1244.71C942.17 1227.06 937.46 1210.12 933.11 1194.37C928.18 1176.51 923.67 1160.14 919.72 1145.87C908.38 1141.38 896.223 1139.34 884.04 1139.87C873.91 1140.57 863.977 1143.02 854.68 1147.1C806.4 1207.38 738.68 1296.85 730.89 1333.7C725.07 1361.45 769.94 1451.68 818.25 1538.12Z" fill="#092630"/>
</g>
<path d="M818.25 1538.12C820.25 1465.44 850.06 1410.25 883.99 1345.32C908.68 1298.08 932.22 1246.67 933.15 1194.32C933.372 1183.73 932.595 1173.15 930.83 1162.71C928.58 1149.58 919.83 1128.41 910.22 1111.09C906.828 1104.91 903.019 1098.96 898.82 1093.3C871.82 1125.43 741.88 1281.68 730.93 1333.6C725.07 1361.45 769.94 1451.68 818.25 1538.12Z" fill="#092630"/>
<path d="M1422.2 2095.11L1420.46 2109.6L1376.9 2144L1312.58 2174L1228.7 2195.72L1228.52 2195.77L1228.3 2195.85L1227.2 2196.2L1226.9 2196.29H1226.84L1226.13 2196.51L1225.64 2196.66L1224.85 2196.9C1224.79 2196.93 1224.73 2196.95 1224.67 2196.96C1207.2 2202.37 1138.23 2222.96 1126.62 2214.07C1124.67 2212.5 1123.02 2210.59 1121.77 2208.42C1119.64 2204.81 1117.96 2200.95 1116.77 2196.93C1116.61 2196.43 1116.45 2195.93 1116.3 2195.4C1111.59 2179.55 1109.83 2158.64 1107.41 2146.97C1106.54 2142.81 1103.41 2134.2 1099.17 2123.44C1125.33 2114.23 1193.31 2089.69 1240.04 2067.26C1247.68 2071.31 1258.68 2076.1 1275.15 2082.09C1286.94 2086.32 1299.26 2088.9 1311.76 2089.78C1325 2090.67 1338.3 2090.16 1351.44 2088.27C1353.44 2088 1355.44 2087.71 1357.33 2087.39L1358.77 2087.16C1360.38 2086.89 1361.96 2086.62 1363.5 2086.33C1363.77 2086.27 1364.04 2086.22 1364.32 2086.18C1365.23 2086.02 1366.12 2085.84 1367 2085.67C1367.58 2085.54 1368.16 2085.44 1368.74 2085.33L1372.07 2084.65L1373.68 2084.29C1374.21 2084.19 1374.74 2084.07 1375.25 2083.96L1376.79 2083.62L1379.13 2083.1C1383.54 2082.1 1387.41 2081.2 1390.61 2080.54L1391.68 2080.33C1392.35 2080.19 1393 2080.06 1393.6 2079.97L1394.28 2079.85L1395.54 2079.65C1400.7 2078.96 1405.95 2080.1 1410.36 2082.87C1411.52 2083.58 1412.62 2084.36 1413.67 2085.22C1413.88 2085.39 1414.09 2085.56 1414.28 2085.73C1414.88 2086.24 1415.47 2086.73 1416.01 2087.3C1416.17 2087.45 1416.32 2087.61 1416.47 2087.76C1416.81 2088.11 1417.14 2088.45 1417.47 2088.76C1418.32 2089.69 1419.06 2090.59 1419.69 2091.39C1419.86 2091.61 1420.02 2091.84 1420.18 2092.04C1420.34 2092.24 1420.63 2092.66 1420.82 2092.95C1420.89 2093.05 1420.95 2093.13 1421.01 2093.23L1421.53 2094.01C1421.59 2094.1 1421.64 2094.19 1421.7 2094.27C1421.76 2094.35 1421.81 2094.45 1421.85 2094.52L1421.94 2094.67C1421.96 2094.71 1421.98 2094.74 1422 2094.77L1422.11 2094.97C1422.12 2094.99 1422.12 2095.01 1422.11 2095.03L1422.2 2095.11Z" fill="#3A7091"/>
<g style="mix-blend-mode:multiply">
<path d="M1126.62 2214.05C1122.05 2210.56 1118.79 2203.66 1116.34 2195.38C1129.44 2195.94 1146.93 2194 1166.27 2186.59C1190.67 2177.24 1216.32 2172.71 1241.51 2166.29C1271.18 2158.72 1301.51 2153.6 1330.61 2143.77C1361.48 2133.33 1379.91 2115.99 1405.61 2097.66C1417.94 2088.86 1431.19 2101.13 1420.49 2109.59L1376.93 2144.05L1312.57 2174L1228.7 2195.72C1228.7 2195.72 1139.94 2224.2 1126.62 2214.05Z" fill="#C9C9C9"/>
</g>
<path d="M1127.73 2245.89C1153.62 2251.89 1184.02 2240.97 1208.39 2231.82C1218.01 2228.21 1228.58 2224.95 1236.26 2218.26C1250.1 2206.26 1271.89 2201.62 1289.73 2195.26C1331.73 2180.2 1377.39 2169.26 1409.86 2135.68C1412.31 2133.15 1434.86 2106.92 1429.67 2102.03L1421.27 2094.12C1423.43 2096.12 1389.03 2126.25 1386.74 2128.12C1346.49 2160.38 1295.17 2172.74 1246.74 2186.92C1211.39 2197.25 1167.81 2213.03 1131.51 2210.3C1127.67 2210.01 1123.6 2209.63 1120.4 2207.76L1127.73 2245.89Z" fill="#133C52"/>
<path d="M350.56 2145.99L462.01 2175.7L486.61 2063.02L501.54 1994.7L519.82 1911.01L392.62 1972.75L387.82 1992.48L379.94 2025.01L350.56 2145.99Z" fill="#FB928E"/>
<path d="M630.957 2230.57L621.331 2241.54L565.953 2245.29L495.937 2233.68L414.466 2204.19L414.289 2204.13L414.063 2204.07L412.957 2203.73L412.659 2203.64L412.61 2203.61L411.899 2203.39L411.41 2203.23L410.623 2202.98C410.56 2202.97 410.499 2202.96 410.441 2202.93C392.971 2197.52 324.439 2175.52 319.887 2161.62C319.161 2159.23 318.887 2156.72 319.08 2154.22C319.367 2150.04 320.163 2145.9 321.45 2141.91C321.601 2141.41 321.751 2140.91 321.927 2140.39C327.001 2124.65 337.369 2106.41 341.969 2095.41C343.603 2091.49 345.888 2082.62 348.473 2071.34C375.258 2078.53 445.207 2096.72 496.434 2104.63C500.447 2112.29 506.813 2122.46 517.014 2136.71C524.355 2146.86 533.054 2155.96 542.867 2163.75C553.29 2171.96 564.547 2179.06 576.453 2184.93C578.255 2185.84 580.069 2186.73 581.809 2187.53L583.127 2188.16C584.608 2188.85 586.064 2189.52 587.498 2190.15C587.755 2190.25 588.006 2190.36 588.259 2190.49C589.101 2190.87 589.936 2191.22 590.758 2191.58C591.31 2191.8 591.845 2192.05 592.386 2192.28L595.517 2193.61L597.049 2194.22C597.542 2194.44 598.048 2194.64 598.53 2194.83L599.993 2195.42L602.217 2196.32C606.42 2197.99 610.122 2199.43 613.134 2200.7L614.136 2201.13C614.767 2201.39 615.377 2201.65 615.923 2201.92L616.552 2202.2L617.704 2202.75C622.357 2205.09 626.039 2209 628.109 2213.78C628.663 2215.02 629.132 2216.29 629.511 2217.59C629.588 2217.85 629.666 2218.11 629.726 2218.36C629.933 2219.12 630.143 2219.85 630.266 2220.63C630.313 2220.84 630.346 2221.06 630.385 2221.27C630.468 2221.75 630.548 2222.22 630.645 2222.66C630.82 2223.91 630.922 2225.07 630.99 2226.08C631.005 2226.36 631.007 2226.64 631.026 2226.9C631.045 2227.15 631.047 2227.66 631.04 2228.01C631.041 2228.13 631.045 2228.23 631.038 2228.35L631.026 2229.28C631.025 2229.39 631.015 2229.5 631.02 2229.6C631.024 2229.7 631.009 2229.81 631.002 2229.89L630.992 2230.06C630.985 2230.1 630.983 2230.14 630.985 2230.18V2230.18L630.962 2230.4C630.957 2230.42 630.945 2230.44 630.928 2230.45C630.928 2230.45 630.957 2230.57 630.957 2230.57Z" fill="#3A7091"/>
<path d="M1099.65 2131.86C1099.65 2131.86 1107.03 2129.69 1118.52 2126.16C1160.03 2113.43 1255.06 2083.16 1248.1 2074.79C1245.1 2071.22 1229.15 2060.11 1226.58 2059.79C1222.82 2059.39 1219.01 2059.73 1215.38 2060.79C1211.18 2062.06 1207.1 2063.68 1203.18 2065.63C1180.93 2076.1 1158.45 2087.31 1135.26 2095.39C1134.05 2095.82 1132.84 2096.2 1131.62 2096.58C1121.93 2099.51 1111.7 2101.01 1101.92 2103.39C1100.57 2103.72 1099.32 2103.97 1098.18 2104.22C1095.18 2104.89 1093.03 2105.66 1092.1 2108.32C1091.68 2109.75 1091.52 2111.24 1091.63 2112.73C1091.69 2114.42 1099.49 2131.93 1099.65 2131.86Z" fill="#133C52"/>
<g opacity="0.7">
<path opacity="0.7" d="M379.94 2025C392.94 2031.79 409.82 2036.21 415.62 2038.79C439.06 2049.25 461.62 2058.42 486.62 2063.01L501.55 1994.69C488.186 1987.09 473.151 1982.9 457.78 1982.51C441.74 1982.16 425.728 1984 410.19 1988C406.85 1988.83 397.29 1990.44 387.83 1992.47L379.94 2025Z" fill="#F15E64"/>
</g>
<g style="mix-blend-mode:multiply">
<path d="M323.09 2151.17C317.6 2142.65 326.09 2137.43 326.09 2129.95C340.66 2141.62 352.43 2148.95 370.26 2156.09C392.76 2165.09 417.42 2178.96 440.26 2188.93C467.26 2200.68 496.89 2213.6 524.68 2219.69C554.14 2226.16 584.38 2219.38 611.6 2219.44C624.67 2219.44 636.17 2233.23 615.01 2237.31C614.58 2237.39 576.73 2242.59 561.4 2242.2C546.07 2241.81 514.88 2240.6 491.86 2235.07C468.84 2229.54 437.6 2214.97 411.6 2204.07C385.6 2193.17 339.07 2176 323.09 2151.17Z" fill="#C9C9C9"/>
</g>
<path d="M630.1 2237.23C630.36 2242.65 600.65 2252.79 596.91 2253.36C547.47 2260.84 507.77 2253.29 461.83 2240.75C442.31 2235.43 424.53 2227.55 404.35 2226.61C395.59 2226.2 388.07 2223.98 380.24 2221.1C378.06 2220.29 375.86 2219.42 373.62 2218.54C347.41 2208.2 321.74 2197.27 302.41 2176.08C308.78 2164.72 315.16 2153.41 321.41 2142.08C321.48 2142.22 321.55 2142.36 321.64 2142.51C321.83 2142.88 322.02 2143.26 322.23 2143.59C323.765 2146.49 325.855 2149.05 328.38 2151.14C355.97 2174.25 387.29 2190.62 420.29 2203.94C424.123 2205.5 427.98 2207.01 431.86 2208.48C482.86 2227.88 524.52 2238.67 582.03 2234.13C585.1 2233.89 617.3 2231.95 625.6 2225.96C626.138 2225.59 626.612 2225.14 627 2224.62C627.19 2225.28 627.37 2225.85 627.54 2226.32C629 2230.49 629.74 2229.37 630.1 2237.23Z" fill="#133C52"/>
<path d="M355.34 2069.73C360.59 2074.06 367.34 2075.65 372.98 2078.4C393.4 2088.4 483.77 2129.64 499.47 2118.72C506.14 2114.08 495.11 2098.5 493.95 2095.32C492.22 2090.61 488.2 2090.82 484.83 2088.86C481.46 2086.9 476.76 2086.21 472.77 2085.26C449.77 2079.8 427 2074.4 404.86 2065.85C403.71 2065.4 402.58 2064.94 401.46 2064.42C392.57 2060.26 384.06 2055.11 375.46 2050.56C374.28 2049.94 373.25 2049.26 372.2 2048.8C369.44 2047.59 367.72 2046.64 364.77 2048.16C363.56 2048.78 362.77 2049.7 361.39 2051.47C360.01 2053.24 355.15 2069.58 355.34 2069.73Z" fill="#133C52"/>
<path d="M646.09 408C646.25 411.89 646.45 415.84 647.84 419.47C649.77 424.47 653.84 428.47 658.1 431.71L658.34 431.88C665.733 437.408 674.18 441.363 683.16 443.5C681.94 442.56 680.68 441.88 681.66 440.69C693.351 426.677 708.934 416.446 726.44 411.29C730.07 410.22 733.81 409.37 737.17 407.63C742.3 404.98 743.17 400.09 746.72 395.57C752.18 388.68 753.26 379.09 750.72 370.57C750.038 368.254 749.074 366.031 747.85 363.95C742.18 354.29 731.85 347.95 720.93 345.4C710.01 342.85 698.59 343.58 687.57 345.55C677.14 347.42 666.43 350.55 658.79 357.96C646 370.29 645.36 390.27 646.09 408Z" fill="#533130"/>
<g opacity="0.75">
<path opacity="0.75" d="M658.12 427C658.013 428.633 658.087 430.273 658.34 431.89C665.733 437.418 674.18 441.373 683.16 443.51C681.94 442.57 680.68 441.89 681.66 440.7C693.351 426.687 708.934 416.456 726.44 411.3C730.07 410.23 733.81 409.38 737.17 407.64C742.3 404.99 743.17 400.1 746.72 395.58C752.18 388.69 753.26 379.1 750.72 370.58C749.284 370.485 747.842 370.511 746.41 370.66C729.99 372.23 710.82 384.11 695.78 390.6C687.34 394.25 678.78 397.97 671.62 403.76C664.46 409.55 658.77 417.81 658.12 427Z" fill="#2D1919"/>
</g>
<path d="M660.921 464.487C660.359 473.742 659.225 482.95 657.523 492.051C655.043 505.407 655.598 519.185 659.144 532.276C661.507 541.447 665.194 550.188 670.078 558.197C672.37 561.924 674.985 565.423 677.888 568.651C686.237 577.759 696.645 584.521 708.152 588.314C723.489 593.521 737.001 603.076 752.26 609.294C773.142 617.818 793.868 616.164 814.497 608.477C825.763 604.281 837.156 599.922 846.948 592.714C847.602 592.234 848.256 591.693 848.901 591.234C858.595 583.577 866.298 573.378 872.683 562.536C878.878 551.954 883.797 540.61 887.327 528.764C891.118 516.067 893.32 502.91 893.877 489.622C894.971 462.567 888.879 437.269 870.837 417.208C854.095 398.566 841.003 377.525 814.214 379.536C791.438 381.251 769.56 369.664 746.617 378.127C730.558 384.048 715.592 394.748 702.685 406.202C691.497 416.146 684.136 427.642 675.506 439.729C669.502 448.131 661.848 452.807 660.921 464.487Z" fill="#533130"/>
<path d="M711.449 497C710.888 506.255 790.477 513.784 711.449 516.214C708.969 529.569 707.903 526.91 711.449 540C713.812 549.171 711.449 552 711.449 564C723.449 564 756.566 683 699.5 662C738.612 674.349 728.297 612.012 711.449 617.826C726.786 623.032 719.45 629.668 734.709 635.886C755.591 644.41 776.318 642.757 796.946 635.069C808.212 630.873 819.605 626.514 829.397 619.306C830.052 618.826 830.706 618.285 831.35 617.826C841.044 610.169 848.747 599.97 855.132 589.128C867.868 567.5 872.268 508.846 875.797 497C879.589 484.304 875.769 529.502 876.326 516.214C877.42 489.159 871.328 463.861 853.287 443.8C836.544 425.158 823.452 413.989 796.663 416C819.605 407.537 773.887 417.715 796.663 416C780.604 421.921 756.906 422.545 744 434C732.812 443.944 737.697 445.412 729.066 457.5C723.062 465.902 712.377 485.321 711.449 497Z" fill="#FB928E"/>
<path d="M668.36 675.48L694 726L734.62 805.9C749.29 781.4 759.73 765.68 790.94 763.01C797.23 762.47 804.69 762.08 808 756.7C809.87 753.7 809.78 749.88 809.53 746.33C808.44 731.06 800.44 717.63 801.01 702.33C801.204 700.915 801.025 699.474 800.49 698.15C799.828 697.128 798.929 696.281 797.87 695.68C782.66 685.37 785.5 675.45 787.27 657.95C787.39 656.63 787.53 655.27 787.72 653.95C787.72 653.73 787.72 653.5 787.79 653.29C787.97 651.92 788.14 650.57 788.36 649.21C788.58 647.85 788.73 646.72 788.95 645.46C789.06 644.7 789.22 643.91 789.36 643.12C789.61 641.77 789.88 640.45 790.16 639.12C790.33 638.28 790.51 637.46 790.7 636.61C790.7 636.4 790.79 636.18 790.85 635.97C790.91 635.76 790.95 635.54 790.98 635.36C785.359 636.234 779.621 636 774.09 634.67C773.44 634.51 772.78 634.33 772.09 634.13C771.4 633.93 771 633.79 770.44 633.59C769.88 633.39 769.44 633.23 768.9 633.03L768.6 632.9C768.23 632.75 767.85 632.6 767.49 632.44C766.001 631.794 764.549 631.066 763.14 630.26C762.76 630.06 762.41 629.84 762.05 629.62L761.59 629.34C761.22 629.13 760.86 628.89 760.49 628.65C760.12 628.41 759.83 628.21 759.49 627.98C759.15 627.75 758.69 627.44 758.28 627.15C757.87 626.86 757.28 626.43 756.8 626.05C755.8 625.31 754.8 624.51 753.8 623.66C753.43 623.35 753.07 623.04 752.71 622.66C751.9 621.97 751.09 621.22 750.29 620.45C749.73 619.93 749.15 619.38 748.58 618.8C739.33 609.62 730.04 597 719.21 581.66C719.07 581.47 718.95 581.29 718.81 581.11C717.45 579.11 716.04 577.11 714.61 575.11C714.61 575.34 714.61 575.58 714.61 575.83C714.61 576.42 714.52 577.02 714.46 577.62C714.46 578.04 714.38 578.45 714.33 578.87C714.28 579.29 714.25 579.79 714.21 580.25C714.12 581.13 714.02 582.04 713.93 582.95L713.84 583.75C713.77 584.31 713.71 584.86 713.63 585.41C713.55 585.96 713.5 586.51 713.42 587.07C713.26 588.21 713.11 589.36 712.94 590.55C712.1 596.15 710.99 602.1 709.49 608.23C705.8 623.23 699.82 639.23 690.14 653.14L688.86 654.95C683.187 662.861 676.263 669.795 668.36 675.48Z" fill="#FB928E"/>
<path d="M736.64 474.78C734.663 478.637 733.007 482.651 731.69 486.78C731.42 487.52 731.18 488.29 730.97 489.06C730.49 490.6 730.04 492.11 729.62 493.69C729.08 495.57 728.62 497.46 728.07 499.34C725.7 508.34 723.33 517.28 718.91 525.4C718.433 526.434 717.704 527.331 716.79 528.01C714.44 529.48 711.69 527.82 709.25 526.23C715.79 503.11 719.49 488.17 722.2 477.8C727.115 477.365 731.962 476.352 736.64 474.78Z" fill="#FFBBBE"/>
<g opacity="0.7">
<path opacity="0.7" d="M714.72 575.11C714.72 575.35 714.72 575.58 714.72 575.83C714.72 576.42 714.63 577.02 714.57 577.63C714.51 578.48 714.41 579.36 714.33 580.25C714.25 581.14 714.14 582.04 714.05 582.95C713.77 585.377 713.437 587.91 713.05 590.55C712.22 596.14 711.1 602.11 709.6 608.23C729.386 632.289 757.122 648.48 787.8 653.88C787.8 653.66 787.85 653.43 787.88 653.21C788.05 651.85 788.24 650.5 788.45 649.14C788.66 647.78 788.82 646.65 789.04 645.39C789.15 644.63 789.31 643.84 789.46 643.05C789.7 641.7 789.96 640.38 790.25 639.05C790.46 638.05 790.69 636.96 790.94 635.91C790.99 635.7 791.03 635.48 791.07 635.3C760.57 639.64 743.25 615.69 714.72 575.11Z" fill="#F15E64"/>
</g>
<g opacity="0.75">
<path opacity="0.75" d="M659.54 528.94C659.531 529.04 659.531 529.14 659.54 529.24C661.961 538.224 665.737 546.785 670.74 554.63C673.088 558.281 675.766 561.708 678.74 564.87L700.8 537.54C710.11 531.1 714.32 519.46 716.17 508.3C719.27 489.56 710.52 470.2 710.41 450.44C710.461 462.161 707.467 473.694 701.72 483.91C691.41 502.13 663.34 506.22 659.54 528.94Z" fill="#2D1919"/>
</g>
<g opacity="0.75">
<path opacity="0.75" d="M853.88 587C863.81 579.5 871.7 569.51 878.24 558.89C884.586 548.525 889.625 537.414 893.24 525.81C892.16 523.18 890.97 520.61 889.73 518.12C883.85 506.25 876.84 493.99 877.73 480.79C872.194 516.692 864.226 552.178 853.88 587Z" fill="#2D1919"/>
</g>
<path d="M815.76 526.58C821.59 539.39 827.7 572.4 806.71 568.38C825.77 566.93 815.1 536.87 815.76 526.58Z" fill="#F15E64"/>
<path d="M743.94 500.44C750.31 490.11 778.88 491.62 787.87 498.35C789.76 499.77 791.43 502.08 789.06 503.35C784.81 505.66 779.81 503.82 775.45 502.88C768.68 501.41 761.83 501.68 754.98 500.93C753 500.72 745.27 498.29 743.94 500.44Z" fill="#533130"/>
<path d="M873 512C873.288 512.738 873.361 513.542 873.21 514.32C866.955 512.416 860.475 511.354 853.94 511.16C849.09 510.99 842.62 511.21 838.15 509.04C830.54 505.35 848.56 503.57 850.15 503.59C857.05 503.68 869.94 504.27 873 512Z" fill="#533130"/>
<g opacity="0.7">
<path opacity="0.7" d="M709.67 540.18C706.43 527.06 677.62 515.83 681.44 538.45C686.41 569.75 718.08 578.36 709.67 540.18Z" fill="#F15E64"/>
</g>
<path d="M781.621 522.696C782.219 518.882 779.744 515.326 776.094 514.754C772.444 514.182 769 516.809 768.402 520.623C767.804 524.437 770.279 527.993 773.929 528.565C777.579 529.138 781.023 526.51 781.621 522.696Z" fill="#422727"/>
<path d="M845.461 529.634C846.006 526.036 843.656 522.697 840.211 522.175C836.766 521.653 833.532 524.146 832.987 527.744C832.442 531.342 834.792 534.681 838.237 535.203C841.682 535.725 844.916 533.232 845.461 529.634Z" fill="#422727"/>
<path d="M785.54 516.15C785.399 516.17 785.255 516.134 785.14 516.05C785.06 515.99 776.32 509.8 764.14 517.13C764.065 517.167 763.982 517.187 763.899 517.188C763.815 517.189 763.732 517.172 763.656 517.138C763.579 517.103 763.511 517.053 763.457 516.989C763.402 516.926 763.362 516.851 763.34 516.77C763.253 516.603 763.228 516.411 763.271 516.228C763.313 516.044 763.419 515.882 763.57 515.77C776.33 508.09 785.3 514.5 785.67 514.77C786.04 515.04 786.67 516.26 785.93 515.77C785.76 515.69 785.7 516.12 785.54 516.15Z" fill="#533130"/>
<path d="M850.237 523.457C850.117 523.455 850.003 523.409 849.917 523.326C849.857 523.266 843.867 517.636 833.667 522.226C833.397 522.356 833.087 522.166 832.987 521.796C832.936 521.633 832.942 521.457 833.003 521.297C833.065 521.138 833.179 521.003 833.326 520.916C844.106 516.066 850.326 521.917 850.586 522.207C850.707 522.341 850.781 522.511 850.797 522.692C850.814 522.872 850.771 523.052 850.677 523.207C850.632 523.284 850.568 523.347 850.49 523.391C850.413 523.435 850.326 523.458 850.237 523.457Z" fill="#533130"/>
<path d="M882.6 494.63C882.36 497.53 881.05 501 879.68 504.56C879.35 505.56 878.97 506.48 878.68 507.43C877.14 511.66 875.95 515.85 876.82 519.16C872.26 501.86 858.63 493.01 849.69 481C845.45 475.29 842.27 468.87 841.6 460.51C841.53 459.51 841.47 458.34 841.43 457.11C841.16 446.31 842.62 428.38 841.89 419.44C843.51 440.02 818.89 464.77 802.89 476.75C800.052 478.987 796.932 480.839 793.61 482.26C788.56 484.26 783 484.61 777.55 484.91C766.26 485.52 754.92 486.15 743.65 485.18C746.21 485.1 750.02 464.6 749.88 460.25V460.11C749.888 460.176 749.888 460.244 749.88 460.31C749.88 463.85 744.74 471.52 742.76 475.54C742.57 475.91 742.43 476.25 742.3 476.54C739.365 483.598 736.916 490.848 734.97 498.24C731.75 511.17 726.23 522.09 717.87 530.98C712.793 536.315 706.916 540.826 700.45 544.35C713.67 527.67 710.66 502.42 710.6 482.27C710.51 461.53 712.83 441.95 727.5 426.04C741.61 410.75 760.96 400.18 781.64 397.44C793.88 395.82 806.33 396.81 818.53 398.73C837.31 401.73 857.83 408.46 866.53 425.35C872.73 428.5 872.66 435.72 875.09 442.24C877.52 448.76 878.28 455.8 879.09 462.73C880 473 883.43 484.29 882.6 494.63Z" fill="#533130"/>
<path d="M766.53 512C766.045 512.832 765.751 513.761 765.67 514.72C765.618 515.708 765.761 516.697 766.09 517.63C766.391 518.598 766.818 519.523 767.36 520.38C767.719 520.875 768.207 521.262 768.77 521.5C769.144 521.651 769.554 521.69 769.95 521.61C770.381 521.528 770.768 521.293 771.04 520.95H769.81L770.34 521.32C770.581 521.488 770.843 521.622 771.12 521.72C771.34 521.799 771.58 521.799 771.8 521.72C771.956 521.638 772.084 521.513 772.17 521.36C772.287 521.142 772.365 520.905 772.4 520.66L772.24 520.55C772.06 520.655 771.872 520.749 771.68 520.83C771.45 520.89 771.53 520.75 771.59 520.72C771.432 520.397 771.244 520.089 771.03 519.8H769.8C769.64 519.8 769.8 519.8 769.54 519.66C769.264 519.517 769.006 519.343 768.77 519.14C768.182 518.56 767.698 517.884 767.34 517.14C766.903 516.392 766.621 515.564 766.513 514.705C766.405 513.845 766.472 512.973 766.71 512.14L766.53 512Z" fill="#422727"/>
<path d="M849.818 519C849.903 519.836 849.797 520.681 849.508 521.47C849.194 522.273 848.721 523.004 848.118 523.62C847.534 524.286 846.861 524.868 846.118 525.35C845.651 525.607 845.122 525.735 844.588 525.72C844.23 525.703 843.883 525.586 843.588 525.38C843.277 525.155 843.057 524.824 842.969 524.45L843.969 524.91L843.399 525.01C843.15 525.048 842.897 525.048 842.649 525.01C842.442 524.989 842.252 524.888 842.118 524.73C842.023 524.61 841.967 524.463 841.959 524.31C841.94 524.097 841.964 523.883 842.028 523.68H842.189C842.296 523.828 842.412 523.968 842.538 524.1C842.698 524.23 842.689 524.1 842.649 524.05C842.894 523.853 843.155 523.675 843.429 523.52L844.429 523.98C844.559 524.04 844.429 523.98 844.689 523.98C844.96 523.977 845.23 523.934 845.489 523.85C846.17 523.607 846.803 523.245 847.358 522.78C847.984 522.347 848.514 521.79 848.915 521.143C849.316 520.496 849.579 519.773 849.689 519.02L849.818 519Z" fill="#422727"/>
<g opacity="0.75">
<path opacity="0.75" d="M769.27 430.55C762.101 439.988 755.596 449.912 749.8 460.25C749.8 460.25 749.8 460.25 749.8 460.31C748.38 462.843 747 465.397 745.66 467.97C744.409 470.387 743.404 472.923 742.66 475.54C742.47 475.91 742.33 476.25 742.2 476.54C739.265 483.598 736.816 490.848 734.87 498.24C731.65 511.17 726.13 522.09 717.77 530.98L717.69 530.83C724.69 523.66 728.16 513.75 730.24 503.93C732.32 494.11 733.24 484.03 736.17 474.45C741.64 456.65 755.44 443.1 769.27 430.55Z" fill="#2D1919"/>
</g>
<g opacity="0.75">
<path opacity="0.75" d="M878.63 507.43C877.09 511.66 875.9 515.85 876.77 519.16C872.21 501.86 858.58 493.01 849.64 481C845.4 475.29 842.22 468.87 841.55 460.51C841.48 459.51 841.42 458.34 841.38 457.11C844.84 470.74 855.22 482.41 866.8 490.88C871.11 494.04 875.8 497.07 878.44 501.73C878.944 502.631 879.359 503.579 879.68 504.56C879.35 505.53 879 506.48 878.63 507.43Z" fill="#2D1919"/>
</g>
<path d="M824.71 590.77C821.63 596.77 819.91 599.84 814.3 604.57C814.3 604.57 814.21 604.63 814.19 604.57C814.17 604.51 813.96 604.73 813.84 604.79C803.27 610.79 789.23 608.44 783.84 596.87C783.61 596.41 783.42 595.94 783.22 595.48C782.558 593.802 782.092 592.054 781.83 590.27C781.46 587.86 780.92 585.27 781.89 583.14C781.97 582.98 782.05 582.81 782.15 582.64C781.39 583.93 797.25 588.78 798.5 589.13C801.76 590.13 818.16 592.84 823.5 591.27C823.704 591.2 823.904 591.12 824.1 591.03C824.143 591.039 824.187 591.039 824.23 591.03C824.395 590.953 824.555 590.866 824.71 590.77Z" fill="#533130"/>
<path d="M814.18 604.62C814.074 604.701 813.96 604.771 813.84 604.83C803.27 610.83 789.24 608.47 783.84 596.92C783.61 596.46 783.42 595.98 783.22 595.52C782.562 593.841 782.096 592.093 781.83 590.31C782.05 591.76 787.16 592.42 788.2 592.66C793.2 593.84 798.25 594.92 802.81 597.33C803.86 597.91 813.91 604.79 814.18 604.62Z" fill="#F15E64"/>
<g opacity="0.7">
<path opacity="0.7" d="M795.42 686.25C796.31 694.84 797.53 703.15 794.05 711.5C790.57 719.85 782.8 726.5 773.84 727.19C768.5 727.57 763.23 725.84 758.27 723.8C731.74 712.89 710.04 693.06 688.95 673.63C687.69 672.47 683.79 673.91 682.36 672.98C678.97 716.89 706.89 758.56 743.21 783.47C772.21 803.34 807.51 813.91 842.54 807.99C847.54 807.15 857.06 807.29 858.8 801.86C860.37 796.93 849.86 780.59 847.66 775.8C839.38 757.8 830.3 740.1 818.92 723.8C810.337 711.768 802.489 699.229 795.42 686.25Z" fill="#F15E64"/>
</g>
<path d="M676.17 665.65C677.89 667.83 678.79 672.37 679.27 677.88C679.53 680.65 679.65 683.65 679.69 686.73C689.94 765.34 699.97 844.04 705.17 923.17C705.79 932.47 706.35 941.86 709 950.78C713 964.24 721.49 975.88 730.79 986.36C761.5 1020.85 801.706 1045.52 846.37 1057.26C870.88 1063.64 898.47 1065.49 920.63 1053.97C917.37 1031.97 916.04 1009.54 913.2 989.65C912.027 980.996 911.359 972.282 911.2 963.55C910.96 953.78 911.2 944.15 911.2 934.55V933C911.13 914.17 910.2 895.45 903.79 876.13C893.24 844.36 868.79 818.59 854.42 789.43C838.76 757.58 824.07 719.24 800.16 691.61C802.088 695.599 802.887 700.039 802.47 704.45C802 711.34 799.16 720.16 791.97 731.35C768.85 767.18 681.06 671.07 676.17 665.65Z" fill="white"/>
<g opacity="0.48">
<path opacity="0.48" d="M800.13 691.58C802.058 695.569 802.857 700.009 802.44 704.42C811.62 726.9 821.73 748.957 832.77 770.59C848.93 802.22 867 832.92 880.72 865.69C890.21 888.35 897.57 912.24 900.36 936.54C903.91 935.24 907.5 934.01 911.17 932.97C911.1 914.14 910.17 895.42 903.76 876.1C893.21 844.33 868.76 818.56 854.39 789.4C838.73 757.55 824 719.21 800.13 691.58Z" fill="#D1D1D1"/>
</g>
<g opacity="0.48">
<path opacity="0.48" d="M709.64 946.66L707.25 943.4C707.54 944.91 707.87 946.4 708.25 947.94C708.69 947.49 709.17 947.09 709.64 946.66Z" fill="#D1D1D1"/>
</g>
<g opacity="0.48">
<path opacity="0.48" d="M678.37 676.58C678.82 679.96 679.24 683.34 679.69 686.73C689.94 765.34 699.97 844.04 705.17 923.17C705.43 927.17 705.69 931.17 706.12 935.17C721.68 941.39 749.5 942.79 760.12 945.35C766.82 946.95 773.35 948.87 779.83 950.72C777.013 947.851 774.536 944.667 772.45 941.23C764.62 928.5 762.54 913.23 760.24 898.43C748.11 820.35 724.69 742.43 679.24 677.84C679 677.43 678.68 677 678.37 676.58Z" fill="#D1D1D1"/>
</g>
<path d="M916.35 1017C917.11 1024.43 917.84 1032 918.74 1039.57C918.12 1034.22 917.56 1028.87 917.04 1023.57C916.8 1021.35 916.59 1019.15 916.35 1017Z" fill="#FEB95D"/>
<path d="M901.14 969.23C901.906 958.333 901.645 947.388 900.36 936.54C876.13 945.6 854.42 959.54 826.74 959.48C810.2 959.48 795.11 955.18 779.83 950.76C797.62 969.33 826.93 975.12 853.31 979.05C866.824 981.177 880.543 981.701 894.18 980.61C899 980.16 900.78 974.08 901.14 969.23Z" fill="#FEB95D"/>
<path d="M697.58 960.15C698.74 975.95 699.907 991.76 701.08 1007.58C703.253 1036.82 705.43 1066.07 707.61 1095.32C707.73 1096.88 707.8 1099.17 707.84 1101.99C710.127 1104.88 712.61 1107.6 715.27 1110.15C729.75 1123.99 748.82 1131.96 767.88 1138.15C781.991 1142.75 796.346 1146.57 810.88 1149.58C823.25 1146.98 835.67 1144.58 848.24 1142.86C879.65 1138.46 916.46 1140.66 943.24 1121.38C942.53 1121.9 940.73 1118.66 938.65 1113.93C928.78 1096.26 923.84 1075.35 920.65 1053.99C898.49 1065.51 870.9 1063.66 846.39 1057.28C801.726 1045.54 761.52 1020.87 730.81 986.38C721.51 975.9 713.02 964.26 709.02 950.8C708.74 949.8 708.48 948.91 708.27 947.96C704.288 951.636 700.704 955.722 697.58 960.15Z" fill="#FEB95D"/>
<path d="M696.75 928.94L707.25 943.4C706.76 940.7 706.4 937.96 706.12 935.21C701.91 933.51 698.59 931.48 696.75 928.94Z" fill="#FEB95D"/>
<path d="M707.25 943.4L709.64 946.66C709.17 947.09 708.69 947.49 708.25 947.94C708.46 948.94 708.72 949.83 709 950.78C713 964.24 721.49 975.88 730.79 986.36C761.5 1020.85 801.706 1045.52 846.37 1057.26C870.88 1063.64 898.47 1065.49 920.63 1053.97C920.28 1051.7 919.97 1049.43 919.63 1047.18C919.54 1046.52 919.47 1045.88 919.37 1045.18C919.14 1043.29 918.9 1041.4 918.69 1039.51C917.79 1031.94 917.06 1024.37 916.3 1016.94C915.733 1011.19 915.133 1005.56 914.5 1000.05C914.24 997.903 913.98 995.773 913.72 993.66L913.15 989.66C912.99 988.54 912.85 987.46 912.73 986.34C912.61 985.54 912.51 984.71 912.44 983.91C912.33 982.91 912.23 981.91 912.14 980.91C911.85 977.81 911.64 974.76 911.47 971.71C911.4 970.43 911.36 969.15 911.31 967.87C911.26 966.59 911.21 965.01 911.17 963.59C910.93 953.82 911.17 944.19 911.17 934.59V933C907.5 934 903.91 935.27 900.36 936.57C900.99 942.03 901.36 947.51 901.52 952.99C901.651 956.745 901 960.487 899.608 963.977C898.215 967.466 896.112 970.629 893.432 973.262C890.752 975.895 887.553 977.942 884.039 979.273C880.525 980.603 876.772 981.188 873.02 980.99C866.42 980.661 859.842 979.993 853.31 978.99C826.93 975.06 797.62 969.27 779.83 950.7C773.35 948.85 766.83 946.93 760.12 945.33C749.5 942.77 721.68 941.33 706.12 935.15C706.4 938 706.76 940.7 707.25 943.4Z" fill="#E69337"/>
<path d="M792.13 683.13C794.897 685.797 797.563 688.603 800.13 691.55C798.394 687.986 795.6 685.046 792.13 683.13Z" fill="white"/>
<path d="M384.27 2015.16C402.78 2031.62 463.12 2021.96 481.03 2024.03C516.97 2028.2 512.27 2003.42 528.41 1974.76C561.1 1916.76 580.54 1848.65 605.62 1786.53C611.74 1771.37 617.62 1756.68 623.13 1742.98L623.53 1741.98C641.87 1696.35 655.6 1661.6 657.53 1655.28C660.53 1645.7 617.05 1663.37 568.69 1685.49C510.75 1712.01 445.84 1744.92 445.84 1744.92L439.21 1773.54L420.66 1853.68C414.05 1882.23 406.91 1910.68 399.66 1939.04C396.05 1953.04 393.36 1967.91 388.66 1981.6C386.32 1988.34 377.4 2000.43 379.52 2007.76C380.366 2010.63 382.014 2013.2 384.27 2015.16Z" fill="#17465B"/>
<g opacity="0.4">
<path opacity="0.4" d="M408.83 1904.93C413.59 1901.76 418.33 1898.57 423.1 1895.37C458.2 1871.86 525.75 1868.55 561.1 1896.56C575.42 1861.31 591.1 1822.56 605.66 1786.56C611.78 1771.4 617.66 1756.71 623.17 1743.01L623.57 1742.01C617.13 1730.77 608.24 1721.01 596.18 1714.26C569.99 1699.55 534.78 1703.03 507.61 1716.26C480.44 1729.49 459.61 1750.94 440.3 1772.46C439.96 1772.84 439.64 1773.22 439.3 1773.6L420.75 1853.75L408.83 1904.93Z" fill="#092630"/>
</g>
<path d="M420.7 1853.67C442.02 1837.65 466.173 1825.79 491.89 1818.73C515.37 1812.24 539.99 1809.62 563.59 1803.56C578.39 1799.78 593.13 1794.38 605.59 1786.56C611.71 1771.4 617.59 1756.71 623.1 1743.01L621.32 1718.24C616.9 1704.07 602.98 1693.24 587.25 1688.55C581.21 1686.81 574.982 1685.8 568.7 1685.55C510.76 1712.07 445.85 1744.98 445.85 1744.98L420.7 1853.67Z" fill="#092630"/>
<path d="M452.24 1771C499.43 1789.62 552.54 1786.69 599.5 1767.29C678.58 1743.56 678.58 1793.64 704.93 1767.29C724.1 1748.15 736.28 1631.76 755.65 1494.77C760.65 1459.02 766.25 1421.88 772.52 1384.67C775.31 1368.06 778.27 1351.46 781.39 1334.97C816.28 1150.59 778.15 1083.97 762.73 959.21C761.85 952.157 761.053 944.887 760.34 937.4C760.34 937.24 760.34 937.07 760.29 936.91C747.11 797.19 675.95 665.4 675.95 665.4L662.26 692.04C657.2 701.95 650.9 714.21 643.78 728.12C591.53 830.12 494.06 1021.48 494.06 1029.19C494.06 1031.74 493.59 1052.42 492.57 1085.19C491.57 1117.03 490.06 1160.27 487.96 1209.39C483.37 1316.39 475.96 1451.27 465.06 1556.39C460.92 1596.25 452.06 1638.08 443.48 1678.27C439.11 1698.9 433.74 1719.71 430.92 1740.63C427.94 1762.8 432.08 1763.06 452.24 1771Z" fill="#CF3547"/>
<path opacity="0.3" d="M488 1209.37C508.93 1244.45 526.46 1282.37 550.33 1315.58C570.896 1344.17 596.089 1369.12 624.87 1389.41C652.53 1408.91 683.26 1423.9 710.04 1444.58C728 1458.6 743.438 1475.57 755.69 1494.78C760.69 1459.03 766.29 1421.89 772.56 1384.68C775.35 1368.07 778.31 1351.47 781.43 1334.98C816.32 1150.6 778.19 1083.98 762.77 959.22C761.89 952.167 761.093 944.897 760.38 937.41C747.72 929.68 734.73 922.63 723.95 911.13C699.65 885.13 696.46 852.82 691.37 819.49C685.81 783.077 680.267 746.67 674.74 710.27C673.46 701.96 668.8 696.1 662.3 692.05C657.24 701.96 650.94 714.22 643.82 728.13C591.57 830.13 494.1 1021.49 494.1 1029.2C494.1 1031.75 493.63 1052.43 492.61 1085.2C491.58 1117 490.06 1160.25 488 1209.37Z" fill="#771930"/>
<path opacity="0.72" d="M487.18 1062.7C488.83 1070.29 490.61 1077.79 492.57 1085.17C505.42 1133.64 525.5 1177.17 560.77 1214.69C582.16 1237.47 607.71 1259.04 615.68 1289.25C617.48 1296.04 618.35 1303.25 621.73 1309.36C625.66 1316.5 632.57 1321.47 639.52 1325.75C680 1350.66 733.84 1359.06 772.52 1384.68C775.31 1368.07 778.27 1351.47 781.39 1334.98C816.28 1150.6 778.15 1083.98 762.73 959.22C749.98 953.55 732.56 949.38 724.07 945.88C719.6 944.04 714.75 942.17 710.07 943.37C697.91 946.54 697.65 966.51 685.82 970.74C665.45 947.4 670.61 912.17 675.15 881.51C682.93 828.87 684.62 777.15 673.37 724.82C663.395 724.385 653.413 725.502 643.78 728.13C612.08 736.83 583.1 759.13 563.92 785.92C537.16 823.3 524.92 868.92 514.76 913.78C503.52 963.62 476.34 1012.76 487.18 1062.7Z" fill="#771930"/>
<path d="M623.67 1288.47L753.07 1335.64L831.64 1364.29L845.07 1369.19C862.32 1349.88 869.39 1310.19 871.85 1291.5L872.75 1292L900.29 1150.67L928 1008.36L916.14 1004.98L705.6 944.82L702.32 960.64L697.21 985.2C697.13 985.48 697.09 985.7 697.04 985.88C689.493 1022.05 681.953 1058.2 674.42 1094.35C674.16 1095.6 673.9 1096.83 673.64 1098.09L663.83 1145.09L657.51 1175.39L657.77 1175.54C653 1199 637.3 1271.72 623.67 1288.47Z" fill="white"/>
<path d="M863.67 1293.69C866.391 1293.38 869.09 1292.9 871.75 1292.25C869.21 1311.25 862.09 1350.15 845.08 1369.19L831.65 1364.28C841.81 1363.19 852.94 1334.47 863.67 1293.69Z" fill="#7CABD9"/>
<path d="M928 1008.35L900.26 1150.67C898.347 1149.3 896.267 1148.18 894.07 1147.34H893.92C907.11 1071.54 916.14 1005.02 916.14 1005.02L928 1008.35Z" fill="#7CABD9"/>
<path d="M900.3 1150.67L872.75 1292L871.86 1291.51C871.86 1291.75 871.79 1291.99 871.75 1292.25C869.09 1292.9 866.391 1293.38 863.67 1293.69C874.67 1251.96 885.22 1197.59 893.96 1147.29H894.11C896.309 1148.15 898.389 1149.28 900.3 1150.67Z" fill="#6891AD"/>
<g opacity="0.48">
<path opacity="0.48" d="M623.67 1288.47L753.07 1335.64C756.36 1331.74 759.37 1327.43 762.3 1323.39C769.49 1313.5 777.82 1304.16 788.23 1297.72C799.092 1291.17 811.827 1288.43 824.42 1289.94C828.25 1290.34 862.42 1298.55 863.67 1293.7C874.67 1251.97 885.22 1197.58 893.97 1147.29C884.79 1143.79 874.6 1145.29 864.83 1144.4C832.04 1141.35 808.93 1111.9 789.95 1084.98C760.763 1043.53 731.567 1002.08 702.36 960.64C704.36 963.43 698.48 980.51 697.25 985.2C697.17 985.48 697.13 985.7 697.08 985.88C689.533 1022.05 681.993 1058.2 674.46 1094.35C674.2 1095.6 673.94 1096.83 673.68 1098.09C670.47 1113.86 667.68 1129.69 663.87 1145.09L657.55 1175.39L657.81 1175.54C653 1199 637.3 1271.72 623.67 1288.47Z" fill="#D1D1D1"/>
</g>
<path d="M799.65 1132.48C799.65 1132.48 773.65 1326.48 738.15 1328.83L705 1283.88L752.31 1156.14L799.65 1132.48Z" fill="#771930"/>
<path d="M796.36 1152.41C797.603 1154.56 799.522 1156.24 801.818 1157.19C804.115 1158.14 806.66 1158.31 809.06 1157.66L828.38 1152.44C830.92 1151.76 833.54 1151.42 836.17 1151.44L885.82 1151.56C886.244 1151.56 886.663 1151.66 887.04 1151.85C887.418 1152.04 887.744 1152.32 887.99 1152.67C888.237 1153.01 888.396 1153.41 888.455 1153.83C888.514 1154.25 888.471 1154.68 888.33 1155.08C887.73 1156.85 887.06 1158.76 886.27 1160.63C884.59 1164.74 882.41 1168.78 879.27 1171.63C874.69 1175.72 868.02 1176.79 862.36 1177.96C859.36 1178.59 852.36 1178.71 850.11 1181.12C847.45 1184.02 852.8 1186.53 855.05 1187.82C864.49 1193.24 875.57 1193.46 885.59 1189.57C887.47 1188.85 889.39 1187.44 891.3 1186.47C891.986 1186.11 892.706 1185.83 893.45 1185.62C893.7 1185.55 893.961 1185.52 894.22 1185.54C894.597 1185.58 894.962 1185.7 895.289 1185.89C895.615 1186.08 895.895 1186.35 896.11 1186.66C898.04 1189.34 901.05 1191.57 903.95 1193.66C904.95 1194.43 905.95 1195.19 906.95 1195.93L907.11 1196.07C908.286 1197.04 909.148 1198.34 909.59 1199.8C909.951 1200.96 910.15 1202.17 910.18 1203.39C910.17 1203.48 910.17 1203.56 910.18 1203.65C910.33 1211.78 905.35 1222.96 904.44 1228.8C902.06 1244.13 899.05 1261.96 891.1 1275.52C886.75 1282.94 880.77 1284.34 873.99 1283.84C869.17 1283.5 863.99 1282.2 858.67 1281.39L822.67 1271.39C810.106 1267.89 798.992 1260.46 790.95 1250.19L750.95 1199.03C709.01 1157.86 548.05 958.84 545.22 943.55C543.97 936.81 546.83 919.69 550.42 902.64C554.96 881.01 560.69 859.54 560.69 859.54L615.16 931.46L796.39 1152.46L796.36 1152.41Z" fill="#FB928E"/>
<g opacity="0.7">
<path opacity="0.7" d="M893.92 1185.19C885.92 1198.19 864.55 1198.19 852.08 1192.39C849.17 1191.03 839.83 1181.21 838.08 1181.29C852.08 1180.72 864.08 1175.87 876.4 1169.44C880.34 1167.38 884.63 1164.82 885.78 1160.56C885.934 1160.52 886.096 1160.52 886.25 1160.56C884.57 1164.67 882.39 1168.71 879.25 1171.56C874.67 1175.65 868 1176.72 862.34 1177.89C859.34 1178.52 852.34 1178.64 850.09 1181.05C847.43 1183.95 852.78 1186.46 855.03 1187.75C873.64 1198.42 891.45 1186.89 893.92 1185.19Z" fill="#F15E64"/>
</g>
<g opacity="0.46">
<path opacity="0.46" d="M909.29 1199.18C909.38 1199.37 909.48 1199.56 909.56 1199.76C909.926 1200.56 910.12 1201.43 910.13 1202.31C910.13 1202.66 910.13 1203.01 910.13 1203.31C910.12 1203.4 910.12 1203.48 910.13 1203.57C910.28 1211.7 905.3 1222.88 904.39 1228.72C902.01 1244.05 899 1261.88 891.05 1275.44C886.7 1282.86 880.72 1284.26 873.94 1283.76C880.14 1274.89 883.08 1263.96 885.41 1253.3C886.99 1246.12 887.88 1238.84 889.18 1231.61C891.18 1220.74 893.47 1211.37 892.49 1200.2C892.09 1195.58 891.683 1190.96 891.27 1186.35C891.956 1185.99 892.676 1185.71 893.42 1185.5C893.67 1185.43 893.931 1185.4 894.19 1185.42C894.567 1185.46 894.932 1185.58 895.259 1185.77C895.585 1185.96 895.865 1186.23 896.08 1186.54C898.01 1189.22 901.02 1191.45 903.92 1193.54C904.92 1194.31 905.92 1195.07 906.92 1195.81C907.84 1196.84 908.635 1197.97 909.29 1199.18Z" fill="#F15E64"/>
</g>
<path d="M459.51 1006.88C453.834 991.853 452.922 975.443 456.9 959.88C472.46 898.88 514.42 744.08 548.09 708.57C590.27 664.1 677.26 664.1 677.26 664.1C689.12 736.74 641.67 953.18 641.68 953.18C700.31 1004.5 739.24 1081.57 798.49 1131.59L758.69 1216.49C742.32 1251.42 725.49 1291.37 736.57 1328.84C734.98 1323.48 701.82 1304.78 695.25 1299.76C681.7 1289.42 667.25 1280.29 653.4 1270.5C623.4 1249.32 588.69 1229.9 564.95 1200.85C540.61 1171.05 515.66 1139.23 498.27 1103.59C483.2 1072.68 471.93 1039.36 459.51 1006.88Z" fill="#CF3547"/>
<path opacity="0.3" d="M910 821.45C930.49 860.7 919.44 908.95 920.38 952.2C921.468 1003.2 925.23 1054.11 931.65 1104.71C932.169 1109.13 933.134 1113.48 934.53 1117.71C970.75 1111.23 1009.97 1095 1043.92 1077.94C1031.02 1072.62 1018.79 1065.12 1010.37 1057.94C989.01 1039.68 968.55 1017.63 961.12 989.83C956.06 970.83 954.66 940.77 959.32 921.54C963.13 905.8 979.86 889.72 990.03 874.22L947.45 909.22C947.45 909.22 944.77 897.37 940.04 879.34C932.04 865.79 929.23 841.77 923.74 830.34C916.6 815.34 908.74 800.82 900.44 786.46C894.1 775.46 877.83 758.12 875.72 745.89C880.65 774.4 897 796.47 910 821.45Z" fill="#771930"/>
<path d="M1083.62 810.57C1084.62 813.26 1088.28 816.1 1090.51 817.85C1093.66 820.357 1097.24 822.271 1101.07 823.5C1104.07 824.5 1107.57 823.84 1110.53 824.98C1112.77 825.83 1113.31 827.13 1114.09 828.67C1114.84 830.181 1115.97 831.473 1117.37 832.42C1122.51 835.84 1129.09 842.16 1135.18 842.67C1136.98 842.82 1146.18 842.91 1146.69 840.67C1147.69 835.6 1147.69 827.67 1150.31 823.37C1154.09 817.06 1159.42 815.37 1159.58 806.91C1159.65 802.63 1159.18 798.23 1160.06 793.99C1161.06 789.26 1162.87 784.72 1163.75 779.92C1164.65 774.92 1167.89 770.53 1168.26 765.51C1168.64 760.64 1167.56 755.74 1167.96 750.87C1167.95 750.733 1167.95 750.596 1167.96 750.46C1168.01 749.94 1168.08 749.4 1168.13 748.88C1168.39 746.51 1168.67 744.2 1169 741.88C1169.47 738.22 1170 734.57 1170.44 730.88C1171.19 724.467 1171.95 718.053 1172.7 711.64C1172.8 710.845 1172.59 710.043 1172.12 709.396C1171.64 708.748 1170.95 708.303 1170.16 708.15C1167.38 707.61 1163.16 707.23 1159.85 708.85C1157.22 710.15 1156.27 713.73 1156.11 717.85C1156.06 722.161 1156.32 726.469 1156.91 730.74C1156.98 731.41 1157.06 732 1157.1 732.56C1157.14 733.12 1157.22 733.7 1157.24 734.17C1157.25 734.43 1157.25 734.69 1157.24 734.95C1157.24 734.63 1151.18 729.55 1148.41 727.29C1147.95 726.905 1147.39 726.665 1146.8 726.6C1145.86 726.493 1144.92 726.517 1143.99 726.67C1142.66 726.816 1141.38 727.25 1140.24 727.941C1139.1 728.631 1138.12 729.563 1137.37 730.67C1133.82 736.13 1136.59 745.67 1139.24 751.67C1140.24 754.04 1146.07 761.73 1146.52 765.01C1146.57 765.267 1146.57 765.533 1146.52 765.79L1144.2 776.44L1143.98 777.44L1132.98 764.19C1131.58 762.517 1129.69 761.33 1127.58 760.8L1122.58 759.56C1121.88 759.389 1121.15 759.454 1120.5 759.746C1119.84 760.037 1119.31 760.539 1118.97 761.17C1113.74 771.23 1121.97 776.48 1127.16 784.47C1128.1 785.879 1128.88 787.385 1129.5 788.96C1131.14 793.22 1134.8 802.44 1130.8 806.42C1128.5 808.448 1125.94 810.166 1123.19 811.53C1123.11 811.602 1123.01 811.657 1122.9 811.69C1122.15 812.07 1113.9 808.19 1112.83 807.88C1103.41 805.07 1094.33 804.67 1084.89 802.54C1084.7 802.54 1084.49 802.47 1084.3 802.42C1084.11 802.37 1083.94 802.8 1083.8 803.42C1083.42 805.785 1083.36 808.189 1083.62 810.57Z" fill="#FB928E"/>
<g opacity="0.7">
<path opacity="0.7" d="M1156.93 730.82C1157 731.49 1157.08 732.08 1157.12 732.64C1157.16 733.2 1157.24 733.78 1157.26 734.25C1158.21 735.327 1159.24 736.33 1160.34 737.25C1164.2 740.9 1166.4 745.77 1167.96 750.93C1167.95 750.794 1167.95 750.657 1167.96 750.52C1168.01 750 1168.08 749.46 1168.13 748.94C1166.8 744.26 1165.6 739.64 1163.87 734.94C1161.57 728.55 1159.26 722.14 1156.94 715.76C1156.63 716.54 1156.35 717.29 1156.11 717.98C1156.06 722.274 1156.34 726.566 1156.93 730.82Z" fill="#F15E64"/>
</g>
<g opacity="0.41">
<path opacity="0.41" d="M1146.57 765.05C1146.62 765.307 1146.62 765.573 1146.57 765.83L1144.25 776.48C1147.99 781.19 1152.67 785.11 1157.14 789.18C1156.48 781.66 1157.94 772.65 1154.99 765.55C1153.85 762.83 1150.4 760.04 1148.58 757.7C1146.61 755.251 1144.82 752.657 1143.23 749.94C1139.89 743.94 1136.44 737.38 1137.39 730.73C1133.84 736.19 1136.61 745.73 1139.26 751.73C1140.33 754.08 1146.12 761.77 1146.57 765.05Z" fill="#F15E64"/>
</g>
<path opacity="0.55" d="M1172.79 656.77L881.79 283C881.79 283 806.21 677.75 734 805.65L1099.2 808.36L1172.79 656.77Z" fill="url(#paint0_linear)"/>
<g opacity="0.41">
<path opacity="0.41" d="M1123.25 811.54C1126.96 813.41 1130.6 815.39 1134.2 817.48C1136.92 819.04 1140.4 821.97 1143.57 822.48C1147.12 823.08 1146.9 821.07 1146.57 817.87C1145.98 812.95 1144.63 807.98 1143.71 803.13C1143.62 802.499 1143.43 801.886 1143.16 801.31C1142.8 800.718 1142.36 800.185 1141.84 799.73C1136.82 794.787 1132.12 789.534 1127.76 784C1127.62 784.11 1127.43 784.28 1127.24 784.45C1128.18 785.859 1128.96 787.365 1129.58 788.94C1131.22 793.2 1134.88 802.42 1130.88 806.4C1128.57 808.441 1126.01 810.169 1123.25 811.54Z" fill="#F15E64"/>
</g>
<g opacity="0.4">
<path opacity="0.4" d="M630.1 2237.23C630.36 2242.65 600.65 2252.79 596.91 2253.36C547.47 2260.84 507.77 2253.29 461.83 2240.75C442.31 2235.43 424.53 2227.55 404.35 2226.61C395.59 2226.2 388.07 2223.98 380.24 2221.1C389.02 2217.59 397.74 2213.96 406.4 2210.19C409.6 2208.79 412.797 2207.36 415.99 2205.91H416.1L420.34 2203.97C428.88 2199.97 437.39 2195.79 445.77 2191.36C471.77 2177.64 496.77 2161.72 519.08 2143.17C525.09 2151.66 532.291 2159.23 540.46 2165.67C550.52 2173.31 561.14 2178.61 572.46 2183.53C574.35 2184.34 575.86 2184.88 577.71 2185.59C578.16 2185.78 578.56 2185.92 578.99 2186.09C580.48 2186.68 581.83 2187.2 583.34 2187.74L584.17 2188.03L586.56 2188.93C587.2 2189.16 587.5 2189.28 588.24 2189.56L591.24 2190.65L592.83 2191.22L594.32 2191.74L595.79 2192.26C596.4 2192.45 597.35 2192.78 597.99 2192.99C601.65 2194.25 605.34 2195.43 608.94 2196.78C609.34 2196.94 609.53 2197.02 609.94 2197.18C610.35 2197.34 611.29 2197.73 611.69 2197.89C612.09 2198.05 612.05 2198.03 612.38 2198.17C612.71 2198.31 613.18 2198.51 613.51 2198.7C618.131 2201.01 621.893 2204.74 624.25 2209.34C624.869 2210.58 625.4 2211.86 625.84 2213.17C625.941 2213.44 626.028 2213.71 626.1 2213.98C626.24 2214.4 626.59 2215.68 626.69 2216.13C626.79 2216.58 626.76 2216.48 626.85 2216.84C626.94 2217.2 627.07 2217.84 627.11 2218.19C627.3 2219.13 627.52 2220.81 627.59 2221.5C627.66 2222.19 627.64 2222.02 627.66 2222.42C627.68 2222.82 627.71 2223.23 627.73 2223.51C627.74 2223.64 627.74 2223.76 627.73 2223.89C627.73 2224.13 627.73 2224.6 627.73 2224.79V2225.97C627.73 2225.97 627.73 2225.97 627.73 2226.04C627.73 2226.11 627.73 2226.09 627.73 2226.11C627.73 2226.13 627.61 2226.28 627.54 2226.35C629 2230.49 629.74 2229.37 630.1 2237.23Z" fill="#092630"/>
</g>
<defs>
<linearGradient id="paint0_linear" x1="852.98" y1="572.11" x2="1112.4" y2="732.13" gradientUnits="userSpaceOnUse">
<stop stop-color="white" stop-opacity="0"/>
<stop offset="0.08" stop-color="white" stop-opacity="0.12"/>
<stop offset="0.25" stop-color="white" stop-opacity="0.44"/>
<stop offset="0.5" stop-color="white" stop-opacity="0.94"/>
<stop offset="0.53" stop-color="white"/>
</linearGradient>
</defs>
</svg>
