<?xml version="1.0"?>
<svg xmlns="http://www.w3.org/2000/svg" xmlns:xlink="http://www.w3.org/1999/xlink" xmlns:svgjs="http://svgjs.com/svgjs" version="1.1" width="512" height="512" x="0" y="0" viewBox="0 0 64 64" style="enable-background:new 0 0 512 512" xml:space="preserve" class=""><g><path xmlns="http://www.w3.org/2000/svg" d="m55 47c-2.953 0-5.532 1.613-6.918 4h-6.089c9.39-3.924 16.007-13.203 16.007-24 0-14.336-11.664-26-26-26-14.001 0-25.453 11.125-25.981 25h-3.154l7.135 8.562 7.135-8.562h-3.108c.521-9.462 8.383-17 17.973-17 9.925 0 18 8.075 18 18s-8.075 18-18 18h-11v12h26.263c.892 3.445 4.017 6 7.737 6 4.411 0 8-3.589 8-8s-3.589-8-8-8zm-23 0c11.028 0 20-8.972 20-20s-8.972-20-20-20-20 8.972-20 20v1h.865l-2.865 3.438-2.865-3.438h.865v-1c0-13.233 10.767-24 24-24s24 10.767 24 24-10.767 24-24 24h-9v-4zm-9 8v-2h24.263c-.166.641-.263 1.308-.263 2zm32 6c-3.309 0-6-2.691-6-6s2.691-6 6-6 6 2.691 6 6-2.691 6-6 6z" fill="#318180" data-original="#000000" style="" class=""/><path xmlns="http://www.w3.org/2000/svg" d="m58.293 52.293-4.293 4.293-1.293-1.293-1.414 1.414 2.707 2.707 5.707-5.707z" fill="#318180" data-original="#000000" style="" class=""/><path xmlns="http://www.w3.org/2000/svg" d="m16 37h-12c-1.654 0-3 1.346-3 3v20c0 1.654 1.346 3 3 3h12c1.654 0 3-1.346 3-3v-20c0-1.654-1.346-3-3-3zm1 23c0 .552-.449 1-1 1h-12c-.551 0-1-.448-1-1v-20c0-.552.449-1 1-1h12c.551 0 1 .448 1 1z" fill="#318180" data-original="#000000" style="" class=""/><path xmlns="http://www.w3.org/2000/svg" d="m33 34c3.86 0 7-3.14 7-7s-3.14-7-7-7-7 3.14-7 7 3.14 7 7 7zm0-12c2.757 0 5 2.243 5 5s-2.243 5-5 5-5-2.243-5-5 2.243-5 5-5z" fill="#318180" data-original="#000000" style="" class=""/><path xmlns="http://www.w3.org/2000/svg" d="m20 30.781 2.416.603-1.281 2.135 5.347 5.346 2.134-1.281.603 2.416h7.562l.603-2.416 2.134 1.281 5.347-5.346-1.281-2.135 2.416-.603v-7.562l-2.416-.603 1.281-2.134-5.347-5.347-2.134 1.281-.603-2.416h-7.562l-.603 2.416-2.134-1.281-5.347 5.347 1.281 2.134-2.416.603zm2-6 2.446-.611.502-1.222-1.296-2.158 3.138-3.138 2.158 1.296 1.222-.502.611-2.446h4.438l.611 2.446 1.222.502 2.158-1.296 3.138 3.138-1.296 2.158.502 1.222 2.446.611v4.438l-1.949.487-.534.206-.466 1.138 1.296 2.16-3.138 3.139-2.158-1.296-1.22.496-.612 2.451h-4.438l-.487-1.949-.203-.535-1.142-.464-2.158 1.296-3.138-3.139 1.296-2.16-.503-1.22-2.446-.61z" fill="#318180" data-original="#000000" style="" class=""/><path xmlns="http://www.w3.org/2000/svg" d="m33 30c1.654 0 3-1.346 3-3s-1.346-3-3-3-3 1.346-3 3 1.346 3 3 3zm0-4c.551 0 1 .449 1 1s-.449 1-1 1-1-.449-1-1 .449-1 1-1z" fill="#318180" data-original="#000000" style="" class=""/><path xmlns="http://www.w3.org/2000/svg" d="m5 41h10v2h-10z" fill="#318180" data-original="#000000" style="" class=""/><path xmlns="http://www.w3.org/2000/svg" d="m5 45h10v2h-10z" fill="#318180" data-original="#000000" style="" class=""/><path xmlns="http://www.w3.org/2000/svg" d="m5 49h10v2h-10z" fill="#318180" data-original="#000000" style="" class=""/><path xmlns="http://www.w3.org/2000/svg" d="m5 53h10v2h-10z" fill="#318180" data-original="#000000" style="" class=""/><path xmlns="http://www.w3.org/2000/svg" d="m13 57h2v2h-2z" fill="#318180" data-original="#000000" style="" class=""/><path xmlns="http://www.w3.org/2000/svg" d="m9 57h2v2h-2z" fill="#318180" data-original="#000000" style="" class=""/><path xmlns="http://www.w3.org/2000/svg" d="m5 57h2v2h-2z" fill="#318180" data-original="#000000" style="" class=""/></g></svg>
