<?xml version="1.0"?>
<svg xmlns="http://www.w3.org/2000/svg" xmlns:xlink="http://www.w3.org/1999/xlink" xmlns:svgjs="http://svgjs.com/svgjs" version="1.1" width="512" height="512" x="0" y="0" viewBox="0 0 512.011 512.011" style="enable-background:new 0 0 512 512" xml:space="preserve"><g><g xmlns="http://www.w3.org/2000/svg"><path d="m180.56 473.569c-45.816-4.045-82.919-21.855-110.281-52.935-6.407-7.279-17.666 2.633-11.259 9.911 28.605 32.494 66.724 51.737 113.38 57.26v16.706c.341 9.924 14.657 9.929 15 0v-23.471c.001-3.887-2.968-7.129-6.84-7.471z" fill="#318180" data-original="#000000" style=""/><path d="m205.214 402.576c-31.703-3.57-59.084-6.672-80.593-30.682-11.572-12.919-33.232-10.483-41.591 4.814-12.101-20.592-20.567-45.567-21.963-69.586-.683-14.055-12.698-24.977-26.771-24.314-13.819.64-25.042 12.885-24.396 26.744.085 1.832 2.37 45.373 26.628 88.992 4.713 8.475 17.823 1.185 13.109-7.29-22.567-40.578-24.675-80.712-24.754-82.4.312-6.476 3.68-10.163 10.104-11.062 5.838-.271 10.814 4.244 11.1 10.116.087 1.544 2.363 38.235 22.733 74.188 20.867 36.833 52.842 59.647 95.036 67.808 9.163 1.772 12.576-12.793 2.956-14.791-27.848-5.784-51.128-18.942-69.194-39.109-7.897-10.675 6.773-24.212 15.829-14.102 25.342 28.288 56.832 31.834 90.169 35.589.058.006.117.012.175.018 14.833 1.319 26.019 13.535 26.019 28.416v58.587c.333 9.907 14.653 9.944 15 0v-58.587c.001-22.676-17.014-41.296-39.596-43.349z" fill="#318180" data-original="#000000" style=""/><path d="m495.452 291.128c-4.607-5.049-10.908-8.004-17.743-8.321-14.11-.632-26.085 10.261-26.766 24.265-1.363 23.961-9.896 49.099-21.965 69.637-8.36-15.296-30.018-17.736-41.591-4.815-21.51 24.01-48.891 27.112-80.594 30.683-22.58 2.056-39.598 20.675-39.598 43.348v58.587c0 4.142 3.357 7.5 7.5 7.5s7.5-3.358 7.5-7.5v-58.587c0-14.88 11.187-27.097 26.02-28.416.059-.005.117-.011.175-.018 33.339-3.754 64.828-7.301 90.169-35.589 8.951-9.991 23.855 3.253 15.829 14.102-18.066 20.167-41.347 33.325-69.194 39.109-9.211 1.913-6.638 16.649 2.956 14.791 78.024-12.938 114.046-87.076 117.772-142.054.282-5.815 5.276-10.337 11.094-10.059 6.427.898 9.796 4.585 10.107 11.062-.078 1.688-2.187 41.823-24.754 82.4-18.877 33.945-56.915 75.781-130.922 82.314-3.872.342-6.841 3.584-6.841 7.471v23.471c.341 9.924 14.658 9.93 15 0v-16.707c76.085-9.023 115.823-53.208 135.872-89.259 24.259-43.619 26.543-87.161 26.629-88.993.319-6.827-2.044-13.37-6.655-18.422z" fill="#318180" data-original="#000000" style=""/><path d="m268.607 387.852c77.379-8.129 141.216-67.093 131.613-148.758-2.984-25.383-11.216-43.377-11.564-44.131-3.066-6.625-13.187-5.145-14.229 2.081-2.655 18.409-6.935 30.1-11.118 37.501 6.523-46.262.776-88.796-17.16-126.695-4.151-8.764-17.706-2.348-13.559 6.417 19.241 40.655 23.342 87.305 12.189 138.654-.371 5.818 2.357 8.832 8.183 9.043 2.298-.263 19.222-3.281 30.008-35.225.96 4.455 1.811 9.351 2.407 14.572 3.473 30.376-2.83 56.892-18.733 78.814-12.182 16.793-29.866 30.544-51.379 40.008 25.115-36.24 5.729-82.755-15.031-115.657-12.224-19.373-21.879-34.675-16.751-62.373 1.236-6.681-6.723-11.464-12.042-7.236-20.872 16.506-48.521 58.611-47.524 102.492-1.521-3.795-2.538-8.033-2.572-12.607-.05-6.573-8.294-9.885-12.877-5.172-9.998 8.854-38.624 57.206-13.264 99.091-63.757-32.515-76.646-106.6-66.53-165.989 5.833 12.931 14.751 28.504 27.677 41.405 5.586 5.575 15.118-.607 12.306-7.981-.128-.335-12.412-33.793 18.852-59.501 23.152-18.362 32.875-48.683 28.03-78.681 7.303 8.109 14.918 19.199 18.515 32.754 1.811 6.829 11.579 7.427 14.209.87.291-.724 7.144-18 9.547-41.064 2.098-20.135.101-38.471-5.8-54.225 17.012 10.586 40.986 28.616 60.944 55.416 5.793 7.777 17.823-1.182 12.031-8.959-37.583-50.466-87.062-71.278-89.15-72.138-6.993-2.888-13.439 5.694-8.725 11.608 17.029 19.886 19.987 54.822 12.948 84.083-13.005-22.887-32.888-35.75-33.946-36.423-6.099-3.879-13.76 2.674-10.911 9.302 10.2 24.923 10.798 64.244-17.222 85.871-19.684 16.188-25.384 35.017-26.559 48.557-12.431-20.093-17.371-40.106-17.435-40.369-1.747-7.313-12.39-7.576-14.495-.357-.804 2.758-19.475 68.235.079 127.427 19.118 57.872 74.957 99.49 136.541 98.366 4.17.075 8.374-.171 12.497-.791zm-58.505-104.693c6.323 15.488 18.469 24.995 19.156 25.524 5.361 4.123 13.215-.722 11.938-7.362-7.432-35.729 2.997-73.002 25.975-100.612 1.086 21.195 10.522 36.153 20.378 51.772 17.669 28.003 37.747 70.809 13.723 101.362-10.993 13.981-28.028 19.466-45.154 19.796-57.068-.452-66.748-53.446-46.016-90.48z" fill="#318180" data-original="#000000" style=""/></g></g></svg>
