<svg width="66" height="66" viewBox="0 0 66 66" fill="none" xmlns="http://www.w3.org/2000/svg">
<g clip-path="url(#clip0)">
<path d="M9.86113 11.2224H1.69448C0.942742 11.2224 0.333374 10.613 0.333374 9.86127V1.69461C0.333374 0.942865 0.942742 0.333496 1.69448 0.333496H9.86113C10.6129 0.333496 11.2222 0.942865 11.2222 1.69461V9.86127C11.2222 10.613 10.6129 11.2224 9.86113 11.2224ZM3.05559 8.50016H8.50002V3.05572H3.05559V8.50016Z" fill="white"/>
<path d="M64.3057 11.2224H56.1391C55.3875 11.2224 54.778 10.613 54.778 9.86127V1.69461C54.778 0.942865 55.3875 0.333496 56.1391 0.333496H64.3057C65.0573 0.333496 65.6668 0.942865 65.6668 1.69461V9.86127C65.6668 10.613 65.0573 11.2224 64.3057 11.2224ZM57.5002 8.50016H62.9446V3.05572H57.5002V8.50016Z" fill="white"/>
<path d="M6.08368 30.2786C6.0163 30.2786 5.94811 30.2735 5.87951 30.2632C5.13621 30.1514 4.62416 29.4581 4.73605 28.7148C5.64799 22.6522 8.43241 17.1455 12.7882 12.7896C17.144 8.43382 22.6509 5.6494 28.7133 4.73745C29.4568 4.62584 30.15 5.13748 30.2617 5.88092C30.3735 6.62436 29.8617 7.31757 29.1182 7.42932C18.0172 9.09927 9.09771 18.0188 7.42777 29.1198C7.3265 29.7945 6.74599 30.2786 6.08368 30.2786Z" fill="white"/>
<path d="M59.9149 30.2787C59.2528 30.2787 58.6722 29.7946 58.5707 29.1199C56.9006 18.0188 47.9813 9.0993 36.8804 7.42935C36.1369 7.3176 35.625 6.62425 35.7369 5.88095C35.8488 5.13765 36.543 4.62573 37.2853 4.73748C43.3478 5.64942 48.8547 8.43385 53.2105 12.7897C57.5663 17.1455 60.3508 22.6523 61.2627 28.7148C61.3744 29.4581 60.8627 30.1515 60.1192 30.2632C60.0505 30.2737 59.9823 30.2787 59.9149 30.2787Z" fill="white"/>
<path d="M9.86113 38.4436H1.69448C0.942742 38.4436 0.333374 37.8341 0.333374 37.0825V28.9158C0.333374 28.1641 0.942742 27.5547 1.69448 27.5547H9.86113C10.6129 27.5547 11.2222 28.1641 11.2222 28.9158V37.0825C11.2222 37.8341 10.6129 38.4436 9.86113 38.4436ZM3.05559 35.7214H8.50002V30.2769H3.05559V35.7214Z" fill="white"/>
<path d="M64.3057 38.4436H56.1391C55.3875 38.4436 54.778 37.8341 54.778 37.0825V28.9158C54.778 28.1641 55.3875 27.5547 56.1391 27.5547H64.3057C65.0573 27.5547 65.6668 28.1641 65.6668 28.9158V37.0825C65.6668 37.8341 65.0573 38.4436 64.3057 38.4436ZM57.5002 35.7214H62.9446V30.2769H57.5002V35.7214Z" fill="white"/>
<path d="M37.0827 11.2224H28.916C28.1643 11.2224 27.5549 10.613 27.5549 9.86127V1.69461C27.5549 0.942865 28.1643 0.333496 28.916 0.333496H37.0827C37.8343 0.333496 38.4438 0.942865 38.4438 1.69461V9.86127C38.4438 10.613 37.8343 11.2224 37.0827 11.2224ZM30.2771 8.50016H35.7216V3.05572H30.2771V8.50016Z" fill="white"/>
<path d="M28.9166 7.13921H9.86111C9.10937 7.13921 8.5 6.52984 8.5 5.7781C8.5 5.02636 9.10937 4.41699 9.86111 4.41699H28.9166C29.6684 4.41699 30.2777 5.02636 30.2777 5.7781C30.2777 6.52984 29.6684 7.13921 28.9166 7.13921Z" fill="white"/>
<path d="M56.1382 7.13921H37.0827C36.3311 7.13921 35.7216 6.52984 35.7216 5.7781C35.7216 5.02636 36.3311 4.41699 37.0827 4.41699H56.1382C56.8898 4.41699 57.4993 5.02636 57.4993 5.7781C57.4993 6.52984 56.8898 7.13921 56.1382 7.13921Z" fill="white"/>
<path d="M32.9994 34.3613C32.2477 34.3613 31.6383 33.7518 31.6383 33.0002V13.9446C31.6383 13.1929 32.2477 12.5835 32.9994 12.5835C33.751 12.5835 34.3605 13.1929 34.3605 13.9446V33.0002C34.3605 33.7518 33.751 34.3613 32.9994 34.3613Z" fill="white"/>
<path d="M32.9994 42.5271C29.9973 42.5271 27.5549 40.0847 27.5549 37.0826C27.5549 34.0806 29.9973 31.6382 32.9994 31.6382C36.0014 31.6382 38.4438 34.0806 38.4438 37.0826C38.4438 40.0847 36.0014 42.5271 32.9994 42.5271ZM32.9994 34.3604C31.4983 34.3604 30.2771 35.5816 30.2771 37.0826C30.2771 38.5837 31.4983 39.8048 32.9994 39.8048C34.5004 39.8048 35.7216 38.5837 35.7216 37.0826C35.7216 35.5816 34.5004 34.3604 32.9994 34.3604Z" fill="white"/>
<path d="M41.3937 58.8614H24.6066C24.2066 58.8614 23.8267 58.6854 23.5681 58.3801C23.3095 58.0748 23.1983 57.6712 23.2641 57.2766L24.7495 48.3644L18.3436 40.6772C18.0179 40.2863 17.9373 39.7465 18.1348 39.2776L29.0237 13.4165C29.2363 12.9118 29.7305 12.5835 30.2781 12.5835H35.7225C36.2701 12.5835 36.7644 12.9117 36.977 13.4165L47.8659 39.2776C48.0633 39.7465 47.9827 40.2863 47.6571 40.6772L41.2512 48.3644L42.7366 57.2765C42.8023 57.6712 42.6911 58.0748 42.4325 58.3801C42.1736 58.6854 41.7937 58.8614 41.3937 58.8614ZM26.2134 56.1392H39.7869L38.463 48.1964C38.3978 47.8055 38.5062 47.4056 38.7599 47.1011L45.0353 39.5708L34.8186 15.3059H31.1817L20.965 39.5706L27.2402 47.101C27.4939 47.4055 27.6024 47.8054 27.5372 48.1961L26.2134 56.1392Z" fill="white"/>
<path d="M42.5279 65.6658H23.4724C23.0723 65.6658 22.6925 65.4898 22.4338 65.1845C22.1752 64.8792 22.064 64.4757 22.1299 64.0811L23.2641 57.2755C23.3736 56.6192 23.9414 56.1382 24.6067 56.1382H41.3937C42.0591 56.1382 42.627 56.6192 42.7363 57.2755L43.8705 64.0811C43.9361 64.4757 43.825 64.8792 43.5664 65.1845C43.3078 65.4898 42.9279 65.6658 42.5279 65.6658ZM25.0792 62.9436H40.9212L40.2407 58.8603H25.7597L25.0792 62.9436Z" fill="white"/>
</g>
<defs>
<clipPath id="clip0">
<rect width="65.3333" height="65.3324" fill="white" transform="translate(0.333374 0.333496)"/>
</clipPath>
</defs>
</svg>
