<svg width="66" height="66" viewBox="0 0 66 66" fill="none" xmlns="http://www.w3.org/2000/svg">
<path d="M59.4963 0.333496H6.50375C3.30967 0.333496 0.696337 3.32319 0.405967 7.10428C0.405967 7.36808 0.333374 7.54394 0.333374 7.80774V47.1134C0.333374 51.2463 3.09189 54.5877 6.50375 54.5877H59.4963C62.6904 54.5877 65.3037 51.598 65.5941 47.8169C65.5941 47.5531 65.6667 47.3772 65.6667 47.1134V7.80774C65.6667 3.67492 62.9082 0.333496 59.4963 0.333496ZM56.883 50.8066H8.60893C5.70523 50.8066 3.30967 47.9048 3.30967 44.3876V10.6216C3.30967 7.10428 6.14078 4.20252 9.04449 4.20252H57.3186C60.2223 4.20252 62.6178 7.10428 62.6178 10.6216V44.3876C62.6904 47.9048 59.8593 50.8066 56.883 50.8066Z" fill="white"/>
<path d="M46.5752 58.2793H19.4256C18.627 58.2793 17.9011 59.0707 17.9011 60.1259V63.819C17.9011 64.7863 18.5545 65.6656 19.4256 65.6656H46.6478C47.4463 65.6656 48.1722 64.8742 48.1722 63.819V60.1259C48.0997 59.1586 47.4463 58.2793 46.5752 58.2793Z" fill="white"/>
<path d="M25.0153 39.7279C24.7249 40.0796 24.3619 40.0796 24.0716 39.7279L14.6345 28.2967C14.3442 27.945 14.3442 27.5053 14.6345 27.1536L24.0716 15.7224C24.3619 15.3707 24.7249 15.3707 25.0153 15.7224L26.0316 16.9535C26.3219 17.3052 26.3219 17.7449 26.0316 18.0966L18.0464 27.7691L26.0316 37.4417C26.3219 37.7934 26.3219 38.2331 26.0316 38.5848L25.0153 39.7279ZM30.4597 43.9486C30.3871 44.3883 30.0242 44.6521 29.6612 44.4762L28.4271 44.0366C28.0642 43.9486 27.8464 43.509 27.9916 43.0693L35.5412 11.4137C35.6138 10.9741 35.9768 10.7103 36.3397 10.8861L37.5738 11.3258C37.9368 11.4137 38.0819 11.8534 38.0093 12.2931L30.4597 43.9486ZM41.9293 39.7279C41.639 40.0796 41.276 40.0796 40.9856 39.7279L39.9693 38.4969C39.679 38.1451 39.679 37.7055 39.9693 37.3537L47.9545 27.6812L39.9693 18.0087C39.679 17.6569 39.679 17.2173 39.9693 16.8655L40.9856 15.6345C41.276 15.2828 41.639 15.2828 41.9293 15.6345L51.3664 27.0657C51.6568 27.4174 51.6568 27.8571 51.3664 28.2088L41.9293 39.7279Z" fill="white"/>
</svg>
