<svg width="66" height="66" viewBox="0 0 66 66" fill="none" xmlns="http://www.w3.org/2000/svg">
<path d="M57.8203 30.1845C64.0091 19.4572 65.797 7.83606 65.6594 3.71021C65.5907 1.85357 64.0779 0.409519 62.29 0.340755C58.1641 0.203226 46.543 1.9911 35.8157 8.17988L30.6584 6.25448C24.6071 4.05403 17.7307 5.8419 13.5361 10.7929L4.80302 21.0388C3.90908 22.0703 3.56526 23.5143 3.97785 24.8896C4.18414 25.646 4.52796 26.2649 5.07808 26.815C5.49066 27.2276 6.04078 27.5714 6.65966 27.7777L13.9487 30.4595C9.89158 36.5108 7.48483 41.8056 8.86011 43.1809L22.888 57.2088C24.3321 58.6529 29.6269 56.1774 35.6782 52.1203L38.2912 59.4093C38.4975 60.0282 38.8414 60.5095 39.2539 60.9221C39.8041 61.4722 40.4229 61.816 41.1793 62.0223C42.4859 62.3661 43.9299 62.0911 44.9614 61.1284L55.2073 52.4641C60.0895 48.2695 61.9462 41.393 59.7457 35.3418L57.8203 30.1845ZM62.1525 3.29762C62.4963 3.29762 62.6338 3.50391 62.6338 3.77897C62.7026 5.97943 62.0837 10.8617 60.3646 16.5691L49.3623 5.56684C55.0697 3.84773 59.952 3.22886 62.1525 3.29762ZM7.62236 24.8896C7.20977 24.7521 6.93471 24.4083 6.86595 24.0644C6.79719 23.7206 6.86595 23.2393 7.14101 22.9642L15.8053 12.7183C19.1748 8.73 24.7447 7.28595 29.6269 9.07382L32.5838 10.174C30.2458 11.7556 27.9766 13.5435 25.9137 15.6064C22.4067 19.1134 18.6934 23.5831 15.599 27.8465L7.62236 24.8896ZM24.5384 54.5958L11.4044 41.4618C11.7482 40.1553 13.4673 36.5795 16.493 31.9036L34.0966 49.5072C29.4894 52.6016 25.8449 54.252 24.5384 54.5958ZM18.2121 29.3593C20.7563 25.7148 24.057 21.6577 28.0454 17.6694C33.3402 12.3745 40.0103 8.86753 46.1991 6.66707L59.3331 19.801C57.1327 25.9211 53.6257 32.66 48.3308 37.9548C44.3425 41.9432 40.2854 45.2438 36.6409 47.7881L18.2121 29.3593ZM53.2819 50.1949L43.036 58.8592C42.7609 59.1342 42.3483 59.203 41.9357 59.1342C41.5232 58.9967 41.2481 58.7216 41.1106 58.3778L38.1537 50.3324C42.4171 47.238 46.8868 43.5935 50.3938 40.0178C52.4567 37.9548 54.2446 35.6856 55.8261 33.3476L56.9264 36.3045C58.7142 41.2555 57.2702 46.8254 53.2819 50.1949Z" fill="white"/>
<path d="M45.9932 20.0076C42.83 16.8445 37.6727 16.8445 34.4408 20.0076C31.2088 23.1708 31.2776 28.3281 34.4408 31.56C37.6039 34.7919 42.7612 34.7232 45.9932 31.56C49.2251 28.3969 49.2251 23.1708 45.9932 20.0076ZM43.9302 29.3596C41.9361 31.3537 38.6354 31.3537 36.6412 29.3596C34.6471 27.3654 34.6471 24.0647 36.6412 22.0706C38.6354 20.0764 41.9361 20.0764 43.9302 22.0706C45.9244 24.1335 45.9244 27.3654 43.9302 29.3596Z" fill="white"/>
<path d="M16.493 58.1719L11.6107 63.0541C11.0606 63.6042 11.0606 64.5669 11.6107 65.1858C12.1608 65.7359 13.1235 65.7359 13.7424 65.1858L18.6247 60.3036C19.1748 59.7534 19.1748 58.7907 18.6247 58.1719C18.0058 57.6217 17.1118 57.6217 16.493 58.1719Z" fill="white"/>
<path d="M13.1926 52.8071C12.6425 52.257 11.6798 52.257 11.0609 52.8071L3.29058 60.5775C2.74046 61.1276 2.74046 62.0903 3.29058 62.7092C3.84069 63.2593 4.80339 63.2593 5.42227 62.7092L13.2614 54.87C13.8115 54.3199 13.8115 53.3572 13.1926 52.8071Z" fill="white"/>
<path d="M7.75986 49.5077C8.30997 48.9575 8.30997 47.9948 7.75986 47.376C7.20974 46.8259 6.24704 46.8259 5.62816 47.376L0.745899 52.2582C0.195784 52.8083 0.195784 53.771 0.745899 54.3899C1.29601 54.94 2.25871 54.94 2.87759 54.3899L7.75986 49.5077Z" fill="white"/>
</svg>
