<svg width="72" height="72" viewBox="0 0 72 72" fill="none" xmlns="http://www.w3.org/2000/svg">
<path d="M53.9489 38.1605C51.6098 35.9684 48.5531 34.811 45.3541 34.9207C42.1504 35.0234 39.1789 36.3685 36.9868 38.7077C34.7946 41.0457 33.6443 44.0977 33.7469 47.3014C33.8508 50.505 35.1948 53.4765 37.5339 55.6687C39.7763 57.771 42.6731 58.9144 45.7321 58.9144C45.8639 58.9144 45.9969 58.912 46.1288 58.9085C49.3324 58.8047 52.3039 57.4607 54.4961 55.1215C56.6883 52.7835 57.8386 49.7315 57.7348 46.5279C57.6309 43.3242 56.2869 40.3527 53.9489 38.1605ZM52.7928 53.5267C51.0264 55.4097 48.6336 56.4935 46.0529 56.5764C43.4793 56.6662 41.0141 55.7317 39.1299 53.9665C37.2458 52.2014 36.1631 49.8074 36.0791 47.2267C35.9951 44.646 36.9226 42.1879 38.6889 40.3025C40.4553 38.4195 42.8481 37.3357 45.4288 37.2529C45.5361 37.2494 45.6423 37.2482 45.7484 37.2482C48.2113 37.2482 50.5458 38.1699 52.3518 39.8627C54.2359 41.629 55.3186 44.0219 55.4014 46.6025C55.4866 49.1832 54.5591 51.6425 52.7928 53.5267Z" fill="white"/>
<path d="M61.8333 9.3335H56V11.6668H61.8333V9.3335Z" fill="white"/>
<path d="M70 9.3335H64.1666V11.6668H70V9.3335Z" fill="white"/>
<path d="M70 14H56V16.3333H70V14Z" fill="white"/>
<path d="M12.166 15.7663C9.81633 19.3608 8.41283 23.5538 8.197 27.9428L8.13633 29.1667H19.789L19.8777 28.0957C20.1857 24.3728 22.1025 20.9743 25.1405 18.7717L25.9583 18.1778L20.517 7.84933L19.4472 8.5365C17.234 9.9575 15.2985 11.7145 13.6768 13.7083L11.6667 10.1908V3.5H9.33333V9.33333H7V0H4.66667V9.33333H2.33333V5.83333H0V9.33333V10.5V11.6667H9.82333L12.166 15.7663ZM19.6548 11.2187L22.967 17.5058C20.1215 19.8742 18.2432 23.1875 17.6785 26.8333H10.6213C10.9503 23.7172 11.9397 20.7352 13.482 18.0705L13.6628 18.3867C13.1518 18.9117 12.8333 19.6268 12.8333 20.4167C12.8333 22.0243 14.1423 23.3333 15.75 23.3333C17.3577 23.3333 18.6667 22.0243 18.6667 20.4167C18.6667 18.8428 17.4102 17.5642 15.8492 17.5105L14.9298 15.9017C16.2528 14.1307 17.8337 12.5417 19.6548 11.2187ZM16.3333 20.4167C16.3333 20.7387 16.072 21 15.75 21C15.428 21 15.1667 20.7387 15.1667 20.4167C15.1667 20.0947 15.428 19.8333 15.75 19.8333C16.072 19.8333 16.3333 20.0947 16.3333 20.4167Z" fill="white"/>
<path d="M24.5 64.1665H0V66.4998H24.5V64.1665Z" fill="white"/>
<path d="M9.33333 59.5H0V61.8333H9.33333V59.5Z" fill="white"/>
<path d="M24.5 59.5H11.6666V61.8333H24.5V59.5Z" fill="white"/>
<path d="M70.2113 63.4583L60.3541 54.2183C61.557 51.8197 62.1543 49.1468 62.0656 46.3888C61.9245 42.029 60.0951 37.9842 56.9125 34.9998C56.79 34.8843 56.657 34.7887 56.5321 34.6778C56.9463 32.8765 57.1668 31.0285 57.1668 29.1665C57.1668 21.967 54.0261 15.5025 49.0655 11.0167L51.9343 6.99984H70.0001V4.6665H50.7326L47.2571 9.5315C43.1761 6.49 38.1361 4.6665 32.6668 4.6665C29.5728 4.6665 26.5546 5.23584 23.6986 6.3605L22.4713 6.8435L28.0643 17.1452L28.972 16.8733C30.1655 16.514 31.408 16.3332 32.6668 16.3332C39.7426 16.3332 45.5001 22.0907 45.5001 29.1665C45.5001 29.6472 45.4628 30.1255 45.4103 30.6003C41.1625 30.6867 36.9531 32.4075 33.8253 35.743C32.1815 37.4965 30.9856 39.5498 30.2506 41.7653C25.3903 40.8402 21.475 37.1862 20.2371 32.3748L20.012 31.4998H8.23914L8.44097 32.8403C9.1643 37.6517 11.2981 41.9707 14.3711 45.4217L9.33347 49.6193V57.1665H11.6668V50.7137L16.0045 47.0982C19.9746 50.7848 25.1511 53.1532 30.8235 53.579C31.6973 55.5367 32.9585 57.3193 34.5696 58.8302C37.7161 61.7795 41.7295 63.2402 45.7358 63.2402C48.5883 63.2402 51.4291 62.4853 53.9573 61.0142L63.8273 70.267C64.259 70.6718 65.0371 71.0825 66.0148 71.0825C67.038 71.0813 68.2805 70.6322 69.5708 69.2555C72.0978 66.564 71.0945 64.2867 70.2113 63.4583ZM32.6668 13.9998C31.5025 13.9998 30.3486 14.1317 29.2251 14.3918L25.7986 8.0825C28.0083 7.36384 30.3125 6.99984 32.6668 6.99984C37.631 6.99984 42.2043 8.66 45.9038 11.4285L45.6576 11.7738C45.4185 11.7108 45.1735 11.6665 44.9168 11.6665C43.3091 11.6665 42.0001 12.9755 42.0001 14.5832C42.0001 16.1908 43.3091 17.4998 44.9168 17.4998C46.5245 17.4998 47.8335 16.1908 47.8335 14.5832C47.8335 14.092 47.6993 13.6358 47.4846 13.2287L47.7016 12.9242C52.0755 16.9772 54.8335 22.7487 54.8335 29.1665C54.8335 30.4977 54.7098 31.8218 54.4753 33.1227C52.3963 31.8055 50.091 31.0145 47.7355 30.7275C47.7891 30.2095 47.8335 29.6892 47.8335 29.1665C47.8335 20.8038 41.0295 13.9998 32.6668 13.9998ZM45.5001 14.5832C45.5001 14.9052 45.2388 15.1665 44.9168 15.1665C44.5948 15.1665 44.3335 14.9052 44.3335 14.5832C44.3335 14.2612 44.5948 13.9998 44.9168 13.9998C45.2388 13.9998 45.5001 14.2612 45.5001 14.5832ZM17.8151 45.5897L18.1756 45.2887C18.5093 45.4217 18.8698 45.4998 19.2501 45.4998C20.8578 45.4998 22.1668 44.192 22.1668 42.5832C22.1668 40.9743 20.8578 39.6665 19.2501 39.6665C17.6425 39.6665 16.3335 40.9743 16.3335 42.5832C16.3335 42.9495 16.4093 43.2972 16.533 43.6203L16.162 43.9295C13.6443 41.1225 11.8161 37.675 10.9925 33.8332H18.2316C19.9105 39.0377 24.289 42.9472 29.6685 44.0275C29.4701 45.1417 29.3791 46.2838 29.4165 47.4412C29.4573 48.7163 29.6603 49.9588 29.9811 51.1605C25.3506 50.5982 21.1366 48.5915 17.8151 45.5897ZM18.6668 42.5832C18.6668 42.2623 18.9281 41.9998 19.2501 41.9998C19.5721 41.9998 19.8335 42.2623 19.8335 42.5832C19.8335 42.904 19.5721 43.1665 19.2501 43.1665C18.9281 43.1665 18.6668 42.904 18.6668 42.5832ZM36.1668 57.128C33.4391 54.5707 31.87 51.1033 31.7486 47.3665C31.6273 43.6285 32.9701 40.0678 35.5275 37.339C38.2796 34.4037 42.0083 32.9208 45.7451 32.9208C49.1786 32.9208 52.6203 34.1727 55.3165 36.7008C58.0441 39.2582 59.6133 42.7255 59.7346 46.4623C59.8548 50.2003 58.5131 53.761 55.9558 56.4898C50.6766 62.1202 41.7995 62.4083 36.1668 57.128ZM67.871 67.6607C66.4021 69.2287 65.5551 68.671 65.4245 68.5648L55.9255 59.6585C56.5286 59.1767 57.1143 58.6633 57.658 58.0835C58.1981 57.5083 58.6741 56.8912 59.1198 56.2553L68.6165 65.1582C68.6235 65.1675 69.4483 65.9783 67.871 67.6607Z" fill="white"/>
</svg>
