<svg width="14" height="12" viewBox="0 0 14 12" fill="none" xmlns="http://www.w3.org/2000/svg">
<path d="M11.4553 11.9103C11.4127 11.9103 11.3701 11.9018 11.3297 11.8847L9.13893 10.9502C8.45157 11.1642 7.73269 11.2729 7.00005 11.2729C3.47989 11.2729 0.616211 8.76456 0.616211 5.68136C0.616211 2.59816 3.47973 0.0898438 6.99989 0.0898438C10.5199 0.0898438 13.3834 2.59816 13.3834 5.6812C13.3834 7.16616 12.6985 8.60216 11.4978 9.64776L11.7719 11.5446C11.7885 11.659 11.7418 11.7735 11.6501 11.8441C11.5933 11.8878 11.5245 11.9103 11.4553 11.9103ZM9.15461 10.2889C9.19749 10.2889 9.24005 10.2975 9.28021 10.3145L11.057 11.0726L10.8391 9.5636C10.8229 9.45256 10.8663 9.34136 10.953 9.27032C12.1077 8.32472 12.7434 7.05016 12.7434 5.68136C12.7434 2.95112 10.1668 0.730004 6.99989 0.730004C3.83269 0.730004 1.25605 2.95112 1.25605 5.68136C1.25605 8.4116 3.83269 10.6329 6.99989 10.6329C7.70565 10.6329 8.39669 10.5226 9.05413 10.3052C9.08677 10.2943 9.12069 10.2889 9.15461 10.2889Z" fill="#767683"/>
</svg>
